<?xml version="1.0" encoding="utf-8"?>
<!-- Generator: Adobe Illustrator 21.0.2, SVG Export Plug-In . SVG Version: 6.00 Build 0)  -->
<svg version="1.1" id="Capa_1" xmlns="http://www.w3.org/2000/svg" xmlns:xlink="http://www.w3.org/1999/xlink" x="0px" y="0px"
	 viewBox="0 0 696 486" style="enable-background:new 0 0 696 486;" xml:space="preserve">
<style type="text/css">
	.Arqueado:_x0020_verde{fill:url(#SVGID_1_);stroke:#FFFFFF;stroke-width:0.25;stroke-miterlimit:1;}
	.st0{fill:#C4072F;}
</style>
<linearGradient id="SVGID_1_" gradientUnits="userSpaceOnUse" x1="-48" y1="549" x2="-47.2929" y2="548.2929">
	<stop  offset="0" style="stop-color:#259E2E"/>
	<stop  offset="0.9831" style="stop-color:#1C381D"/>
</linearGradient>
<path class="st0" d="M645,384L528,123l64-15V0H104v108l64,15L51,384L0,395v91h294v-90l-40-12l15-39h104l15,39l-40,12v90h348v-91
	L645,384z M290.3,268l31.3-103.3L356.3,268H290.3z M344.3,135.3L355.7,96l-31.3-26H365l14-36.7L393,70h40.7l-31.3,26l11.3,39.3
	L379,110L344.3,135.3z M379,176.8h40.7l14-36.7l14,36.7h40.7l-31.3,26l11.3,39.3l-34.7-25.3L399,242.2l11.3-39.3L379,176.8z
	 M433.7,286.7h40.7l14-36.7l14,36.7H543l-31.3,26L523,352l-34.7-25.3L453.7,352l11.3-39.3L433.7,286.7z M577.7,460.5L543,435.2
	l-34.7,25.3l11.3-39.3l-31.3-26H529l14-36.7l14,36.7h40.7l-31.3,26L577.7,460.5z"/>
</svg>
