<svg id="Layer_1" data-name="Layer 1" xmlns="http://www.w3.org/2000/svg" viewBox="0 0 249.4 234.44"><defs><style>.cls-1{fill:#fff;}.cls-2{fill:#b1063a;}.cls-3{fill:#ffc20e;}</style></defs><title>ARZ</title><g id="ARZ"><path class="cls-1" d="M249,190.12c-18.56-3.9-55.39-.1-76.39,44.33,0,0-35.92-42.87-85.83-50.4,2-23.85-29.64-30.19-35.69-71.22,0,0-24.56-20.1-36.83-51.76l6.54,2.1S11.24,52.59,3.9,34.37l6.91,2.29S3.82,27.18,0,0C84.71,58.26,129.33,37.93,180.85,67.07c35,19.81,43.3,42.8,46.23,65.75C227.08,132.82,253,156.27,249,190.12Z"/><path d="M245.45,185.16c.56-28.81-22.07-49.28-22.07-49.28-2.45-18.21-9.06-44.55-44.33-64C125.51,42.37,95.88,66.47,11.46,14.77c1.76,9.66,7.32,23,14.41,31.35l-8.73-2.86C23.49,56.63,33.65,68.76,39,72.7l-9.78-3.08c10.36,25.43,30.61,40.49,30.61,40.49,4.61,38.93,33.18,45.57,35.48,69.52,37.21,5.77,76.54,45.61,76.54,45.61C192.4,189.85,221.11,183,245.45,185.16Z"/><path class="cls-1" d="M197.8,135c-8.09,13-21.77,9.4-26.65-6.84l9.86.6c-8.65-5.18-16.5-12.79-22.58-20.29-1.78,35.88,32,52,43.14,26.79A32.38,32.38,0,0,1,197.8,135Z"/><path class="cls-2" d="M174.57,76.76c-38.79-21.27-86.21-7.46-146.79-45,6,17.93,43.5,38.94,43.5,38.94L38.11,59.93c8.45,14.67,43,33,43,33L50.21,83C63,104.25,92.1,118.62,92.1,118.62l-17.87-1.29c2.31,20,30,37.25,31.43,52.7,12.51,4.78,28.63,13.11,41.19,23.92,24-11.81,17.4-51.76-28.4-108.42,63,3.81,61.25,50.5,97.41,43.79C213.21,116.76,211.5,97,174.57,76.76Z"/><path class="cls-3" d="M240.93,177.72c-2-14.82-15.32-32.1-24.87-38.15-4.48,9.16-15.4,15-25,17.71C213.58,160,232.11,168.95,240.93,177.72Z"/><path class="cls-1" d="M197.8,135c-8.09,13-21.77,9.4-26.65-6.84l9.86.6c-8.65-5.18-16.5-12.79-22.58-20.29-1.78,35.88,32,52,43.14,26.79A32.38,32.38,0,0,1,197.8,135Z"/><path class="cls-3" d="M192.71,190c14.65-8.22,33.53-12.21,47.31-9.43-8.82-7.46-30.6-16.62-50.35-14.69C189.67,165.85,196.42,177.33,192.71,190Z"/></g></svg>