<svg id="Layer_1" data-name="Layer 1" xmlns="http://www.w3.org/2000/svg" viewBox="0 0 245.43 232.92"><defs><style>.cls-1{fill:#bbc4ca;}.cls-2{fill:#fff;}.cls-3{fill:#c9243f;}</style></defs><title>ATL</title><g id="ATL"><path class="cls-1" d="M230.2,50C197.14,29.09,121.42,13.13,64.94,0L0,69.8l55.74-1.19C28,113.45,33.64,218.9,103.83,232.92c-3.61-6.93-9.89-19.65-1.75-35.41,5.79-11.21,38-72.81,38-72.81h7.71c10.44,0,13.87,3.93,9.24,9.46,27.83-.36,44.91-10.87,52.58-22.12-5.84-10.68-24.4-23.25-31.93-28.35H216.6c11.16,0,13.68,4.68,11.05,9.77C245.88,89.89,255.2,65.73,230.2,50Z"/><path class="cls-2" d="M225.76,52.09C180.73,26.83,69.24,10,69.24,10L21.48,61.16H71C34.44,109.47,42.54,207,96.3,227.25c-3.81-9.07-5.75-19.59,1.13-33,7.76-15.1,20.1-40.49,37.79-74.37h14.43c12,0,15.81,5.06,14.18,9,9.85,0,27.86-1,40.93-16.82-10.89-15.21-46.88-32.94-46.88-32.94h61.75c9.07,0,13.61,3.23,12.35,8.69C247.75,80.09,243.65,62.13,225.76,52.09Z"/><path d="M152.67,80.77l1.14,3.37c-2.69,5.25-12.31,24.33-15.65,31h25c.34,4.42,4.73,8.18,9.29,9.17-2.7-3.61-1.63-7.19.39-9.17h11.8c3.28,0,2.27,3.94-3.06,8,8.34-1.91,14.58-5.7,18.65-11.13C192.47,100.24,152.67,80.77,152.67,80.77Z"/><path d="M223.89,55.48C186,34.71,66.09,17.13,66.09,17.13l4.35,5.53L42.63,52.6l97.78,7.48-.54,1.08H74.2L79.28,66A110.31,110.31,0,0,0,68.63,84.72l54.92-11.22-.88,1.33L57.23,96.63,63,99.88a139.8,139.8,0,0,0-5.29,27.59l55.59-33.74c-.16.51-.32,1-.48,1.53L51.5,143.63l5.65,1.42a132.2,132.2,0,0,0,4.35,30.2l49.9-58.83c.08.47.18.94.28,1.4L62.25,190.36l4.65.31c5.73,12.89,13.87,23.46,24.24,30-4-8.9-2.73-19.58,1.92-29.09C97.08,183.38,149.48,79,149.48,79l-8.75-4.69h81.42c8.34,0,13,3.5,12.87,8.21C240.16,78.22,241.31,65,223.89,55.48Z"/><path class="cls-2" d="M207.32,53.84c4.16,1.39,13.53,6.61,17.07,10.7h-6.73C215,60.18,207.32,53.84,207.32,53.84ZM228.19,63l1,4.62c-7.13,1.34-19.73,2.41-23.3,2.7l-.54,1.07h18.77c7.44,0,10.58,3.53,11.24,5.56C236.38,74.16,235.49,66.71,228.19,63Z"/><path class="cls-3" d="M197.88,59,68.1,41.06,76,32.47c43.71,6.75,96,17.43,122.54,25.16ZM178.3,109.7,150,105.47,147.08,111h30.55ZM65.87,155.81,102,115.53c0-.57,0-1.15-.06-1.72L64.7,145.44C64.95,148.94,65.35,152.41,65.87,155.81Zm43.38-15.55q-.39-.7-.76-1.4L76,187.83a70.31,70.31,0,0,0,5.64,9ZM84.43,68.32q-2.64,3.63-4.93,7.53l39.12-7,1-1.34ZM66.55,111.64l40-21.84c.22-.54.44-1.08.67-1.63L68.73,102Q67.44,106.76,66.55,111.64Z"/></g></svg>