<svg id="Layer_1" data-name="Layer 1" xmlns="http://www.w3.org/2000/svg" viewBox="0 0 247.69 119.58"><defs><style>.cls-1{fill:#fff;}.cls-2{fill:#d2aa41;}.cls-3{fill:#2c2d8b;}.cls-4{fill:#da2128;}</style></defs><title>BAL</title><g id="BAL"><path class="cls-1" d="M247.38,73.57c-1-6.1-5-15.07-18.52-23.14-.91-.54-1.87-1.07-2.85-1.6l5.14-1.73-15-5.83c-1.28-.5-2.62-.95-4-1.39l2-2.06-11.47-1.61a77,77,0,0,0-11.86-.81c0-.48-.07-.93-.12-1.33l-1.91-14.36L184,26.38a29.93,29.93,0,0,0-3.24-4.44L168.4,8l.89,7.4A74.56,74.56,0,0,0,156,8c-19.9-8.53-45.06-10.31-69-4.87-20.06,4.55-49,16.41-73.07,47.07L0,67.87l20.9-8.33c.17-.07,16.3-6.36,29.31-8.19,4.85-.68,8.57-.74,5.55,5.91-2.38,5.24-7.78,12.9-7.83,13L37.46,85.45l17.45-6.06c8.4-2.92,15.93-4.35,19.74-4.49,1.36,0,1.61.92,1.18,1.9a9.14,9.14,0,0,1-1.14,2L63.75,94.38,81.7,88c13-4.67,30.15-7.75,36.28-5.41.5.19,2.12,1,.51,3.4l-7.05,11.22,11.89-1.81c.82,10.24,6,15.82,6.59,16.47l7.56,7.76,2.65-10.5c1.91-7.56,5.5-11.68,8.71-13.92l.62,4.31,7-2.53a44,44,0,0,0,13.92-7.61,155.26,155.26,0,0,1,25.72,0c18,1.77,30-.61,33.29-1.39a12.88,12.88,0,0,1,8.09.85l5.34,2.91,2.88-5.41a20.27,20.27,0,0,0,2-9A23.54,23.54,0,0,0,247.38,73.57Z"/><path class="cls-2" d="M244.88,74.61c-.89-5.41-4.55-13.4-17-20.83a73.27,73.27,0,0,0-10.57-5.11l4.39-1.48-6-2.36a72.38,72.38,0,0,0-9.37-2.91l1.3-1.32L203,40a65.17,65.17,0,0,0-14.94-.61c0-.62,0-1.29,0-2a20.42,20.42,0,0,0-.13-2.59L187.2,29,184,33.41a27.22,27.22,0,0,0-5.24-8.94l-5-5.65.56,4.72a66.41,66.41,0,0,0-19.24-12.22C135.74,3,111.22,1.3,87.82,6.61,68.21,11.06,39.89,22.66,16.34,52.68l-5.93,7.57,8.93-3.56c.17-.07,16.78-6.64,30.29-8.45,5.3-.71,9-.08,10.29,1.77s.85,5.16-1.09,9.17a132.92,132.92,0,0,1-8.14,13.5l-4.48,6.51,7.46-2.59c9.83-3.42,22.23-5.94,25.1-4.07a2.43,2.43,0,0,1,1.16,1.66c.46,2.39-1.59,6-2.35,7.09l-4.68,6.68,7.68-2.75c12.27-4.4,34.26-9.44,41.06-4.23,3.15,2.41.21,7.18.08,7.38l-3,4.8,5.6-.85,2.74-.42c0,.44,0,.88,0,1.3,0,10.85,5.48,16.61,5.75,16.88l3.24,3.32,1.14-4.49c3.18-12.63,10.72-17,14.92-18.48.12.84.7,4.93.7,4.93l3-1.08c7.35-2.65,11.46-5.56,13.73-7.75a163,163,0,0,1,27.66-.06c17.52,1.74,29.16-.57,32.31-1.32A16.37,16.37,0,0,1,240,86.28l2.31,1.26,1.24-2.32a17.07,17.07,0,0,0,1.57-7.44A19.7,19.7,0,0,0,244.88,74.61Z"/><path d="M226.38,56.4c-5.18-3.67-12.16-6.33-18.93-8.24a19.34,19.34,0,0,1,5.65-.85A64.84,64.84,0,0,0,200,44l1.58-1.41a60.73,60.73,0,0,0-16.3-.88,19.29,19.29,0,0,0,.31-7.22,10.57,10.57,0,0,1-3.2,4.51c-.3-3.61-1.45-8.83-5.37-12.37l.73,6.37c-3.45-5.2-10-11.84-22.43-17.65C121.57-.46,62.11,5.51,29.48,47.67A78.28,78.28,0,0,1,59.75,40.9c9.21-.21,11.45,4.94,8.1,13.64a75,75,0,0,1-9.29,16.41s39.79-14.1,27.23,5.49c0,0,30-9,39.05,1.56,4.19,4.9-.69,11.74-.69,11.74l8.52-1.85c-2.76,10.82,2.07,17.74,2.07,17.74,3.52-14.15,15.78-17.92,20.12-18.63l.94,3.83c7.27-2.63,10.7-5.43,12.65-7.73,15.4-2.43,25.87-.35,37.74.3,17.3.94,26.24-2.07,29.1-2.05,2.1,0,4.59,1.85,4.59,1.85S247.07,71.05,226.38,56.4Z"/><path class="cls-1" d="M212.18,79.42a90.78,90.78,0,0,0,20.13-2c-18.72-8-55.37-11.45-61-11,0,0-3.1.88.47,4.31-5-2-10-5.72-10.32-7.62s3.28-2.58,11.92-1.56c32.35,3.82,60.34,9.23,64.13,17.16,0,0,2-9.92-14.16-19.37-13.8-9.2-35-10.71-35-10.71L193.66,53l-10-.86,7.89,5.7c-8.47-2.77-31.27-10.24-50.16-5.51,0,0,20.73-.23,30.19,5.42-35-5.72-53.23,6.45-53.23,6.45,19.7-5.63,35.42-4.07,40.58-3.3-8.29,2,1.47,8,7.43,11.21.68,1.66,2.31,5.06.71,7.92a24.34,24.34,0,0,0,3.1-5.65l4.85,3.89C189.53,76.43,200.2,79.48,212.18,79.42Z"/><path class="cls-3" d="M145.95,16.66C107.65,5.23,67.7,16.29,45.52,37.53c0,0,22.33-7,29-.12,7.78,8-4,26.9-4,26.9l7.72-1.21-.87.1c6-21.1,11.47-28.5,15.12-32.11,2.16-2.64,6-4.43,9.07-5.48a291.35,291.35,0,0,0-40.7,5.23c13-10.07,43.06-17.11,60.4-15.34s16.16,8.81,14.38,12.82c-1.44,3.24-8.53,7.64-15.19,9.06,6.9.9,10.81,6.22,8.33,11.53a12,12,0,0,1-.72,1.32,74.44,74.44,0,0,0-19.25,7.55l-.56.32-.75.44-.57.34-.69.43-.57.36-.65.42-.56.36-.61.42a38.11,38.11,0,0,0-9.26,8.41s45.1-9.14,37.29,13.57l11.65-3.19a31.57,31.57,0,0,1-3.89,5c-5.51,6.12-5.13,11.93-5.13,11.93s1.62-6.36,12-10.73c9.5-4,11.69-10.73,11.69-10.73a12.56,12.56,0,0,1,.57,11.23s4.38-1.09,8.29-6.46c1.6-2.85,0-6.25-.71-7.91-6-3.17-15.72-9.23-7.43-11.21-5.16-.77-20.88-2.32-40.58,3.3,0,0,18.21-12.17,53.23-6.45-9.46-5.65-30.19-5.42-30.19-5.42,7.22-1.8,15-1.83,22.33-1a100.05,100.05,0,0,0-11.67-2.49,68.17,68.17,0,0,0-20.42.7c7.13-7.4,20.11-6.42,20.11-6.42-8.66-5.83-19.95-4-19.95-4,12.66-6.55,26.73-4.33,26.73-4.33-4.42-5.84-14.87-7.13-14.87-7.13,20.71-.84,28,10,28,10a19.75,19.75,0,0,0-8.84-1.91s5,.81,8.35,7.1c3.57,6.67,6.6,6.48,6.6,6.48S183.42,27.84,145.95,16.66Z"/><path class="cls-1" d="M105,60.09l1.21-.78.69-.43.57-.34.75-.44.56-.32a74.44,74.44,0,0,1,19.25-7.55,11.93,11.93,0,0,0,.72-1.32c2.47-5.31-1.43-10.64-8.33-11.54,6.66-1.42,13.75-5.82,15.19-9.06,1.78-4,3-11-14.38-12.82s-47.43,5.27-60.4,15.34a291.18,291.18,0,0,1,40.7-5.23c-3.07,1-6.9,2.83-9.07,5.48-3.64,3.62-9.09,11-15.12,32.11l.88-.1c2.59-.33,10.36-1.26,15-1.5l7.76-.44c.84,0,1.71,0,2.58-.08l.29-.2.61-.42Z"/><path d="M115.19,33.84a10.13,10.13,0,0,1-.85,1.51,9,9,0,0,0,5.35-3.75c2.07-3.63.48-6.23-2.87-6.58h-3.48a10.73,10.73,0,0,0-1.7,2.16C115.69,27.21,117.34,29.24,115.19,33.84Z"/><path d="M109.18,51.16a9.62,9.62,0,0,1-2.53,3.34,10.12,10.12,0,0,0,7-5.59c2.57-5.54.28-7.86-3.85-7.86H104.7c-.39.75-.75,1.5-1.11,2.25h1.74C109.46,43.29,111.75,45.62,109.18,51.16Z"/><path class="cls-3" d="M106.65,54.5a9.61,9.61,0,0,0,2.53-3.34c2.57-5.54.28-7.86-3.85-7.86h-1.74A107.51,107.51,0,0,0,99,54.9h4.43A13.51,13.51,0,0,0,106.65,54.5Z"/><path class="cls-3" d="M114.34,35.34a10.22,10.22,0,0,0,.85-1.51c2.14-4.6.5-6.62-3.55-6.66a57.79,57.79,0,0,0-4.53,8.75h3.11A14.54,14.54,0,0,0,114.34,35.34Z"/><path class="cls-2" d="M134.05,22.77c-1.62-2.66-5.58-4.24-12.6-4.59a66.8,66.8,0,0,0-16.12.24c-3.56.48-20.88,2.24-35.63,9.44,12.9-3.14,28.14-4.29,37.79-4.64,4.06-.14,8.51,0,8.51,0,2.89,0,5.56.85,6.59,2.54s1.36,3.83-.64,6.38c-1.1,1.41-2.39,2.89-6.14,4.42l4.32-.92c6.46-1.38,12.33-5,13.68-7.83C134.79,25.72,134.85,24.07,134.05,22.77Z"/><path class="cls-2" d="M106.48,59.16a74.25,74.25,0,0,1,18.92-8.24,10.82,10.82,0,0,0,1.18-2,7.16,7.16,0,0,0,.3-5.11c-.79-2.36-2.37-3.94-7.35-5.1-6.55-1.53-16.12-.86-16.12-.86a76,76,0,0,1,5.49-11.18,22,22,0,0,0-14,5.9c-4.77,4.22-9.93,15.18-14,28.22,7.05-.74,13.45-1.07,13.45-1.07l6.71-.29A50.23,50.23,0,0,0,106.48,59.16Zm-3.71-19.91h7.12c3.68,0,5.36,1.51,6.14,2.78,1.21,2,1,4.66-.51,8-2.9,6.47-9.92,7.05-12,7.05l-8.08.31A111.06,111.06,0,0,1,102.77,39.25Z"/><path class="cls-4" d="M166.2,41.32c1.07,2.54-.41,5.37-3.31,6.31a5.85,5.85,0,0,1-7.2-2.9c-1.07-2.55.41-5.37,3.31-6.31A5.85,5.85,0,0,1,166.2,41.32Z"/><path class="cls-1" d="M158.74,45.06c-.81-1.91.36-4.06,2.6-4.79a4.93,4.93,0,0,1,2.58-.13,4.87,4.87,0,0,0-4.06-.47c-2.25.73-3.41,2.87-2.6,4.79a4.05,4.05,0,0,0,2.95,2.28A3.74,3.74,0,0,1,158.74,45.06Z"/><path d="M165.94,42.87a3,3,0,0,1-1.87,3.81,3.12,3.12,0,0,1-4-1.71,3,3,0,0,1,1.87-3.8A3.11,3.11,0,0,1,165.94,42.87Z"/></g></svg>