<svg id="Layer_1" data-name="Layer 1" xmlns="http://www.w3.org/2000/svg" viewBox="0 0 249.82 135.7"><defs><style>.cls-1{fill:#000016;}.cls-2{fill:#d1d3d4;}.cls-3{fill:#0099d9;}</style></defs><title>CAR</title><g id="CAR"><path class="cls-1" d="M228.8,13.84c.06-.13.1-.26.14-.38l.08-.3v0c-.36-1-1.08-1.11-2.6-1-2.21.42-4.26.69-6,.86h0l-.28,0-.2,0-.75.07h-.1c-2.22.18-3.62.19-3.62.19a17.06,17.06,0,0,1,6.33,10.92l.29-.25C226.46,20.85,228.8,13.84,228.8,13.84Z"/><path class="cls-2" d="M169.92,49.09c2.81,8.28-1.92,19.37-1.92,19.37,6.21-5.32,11.09-16.27,11.09-16.27,10.2-2.07,15.82,0,15.82,0a27.45,27.45,0,0,1-1.63,14.49c5.92-4.73,8.58-17.3,8.58-17.3s-2.37-2.22-12.86-3A48.11,48.11,0,0,0,169.92,49.09Z"/><path class="cls-2" d="M177.57,80.76s-3.08,8.58-6.25,11.75c0,0,4.09,2.24,11.22,1.58s8.85-3.3,9.51-5.94,0-6.34-1.19-9.11c0,0,.53,7-4.36,10.56,0,0-5.26,1.1-8.7,0C177.8,89.65,179.15,86.83,177.57,80.76Z"/><path class="cls-2" d="M160.77,14.05l.22,0-.22,0a5.67,5.67,0,0,0-6.12,2.43c-1.36,2-.85,3-.85,3,13.26-.23,20.41,1.91,20.41,1.91a27.23,27.23,0,0,0-12.91-7.21Z"/><path class="cls-2" d="M213.75,20.86A11.44,11.44,0,0,0,204.21,18c-4.07.81-4.3,5.23-4.3,5.23C204.33,19.12,213.75,20.86,213.75,20.86Z"/><path class="cls-3" d="M115.06,29.57a124.39,124.39,0,0,1,46.85,1.72A32.25,32.25,0,0,1,165,28.83,105.44,105.44,0,0,0,115.06,29.57Z"/><path class="cls-3" d="M115.17,38.1a124.39,124.39,0,0,1,42.51-1.56,15.41,15.41,0,0,1,1.84-2.78A108,108,0,0,0,115.17,38.1Z"/><path class="cls-3" d="M115.66,46.37a124.31,124.31,0,0,1,40.92-4,9,9,0,0,1,.09-2.9A108,108,0,0,0,115.66,46.37Z"/><path class="cls-3" d="M62.28,103.36h.12l1.74.16,2.38.25q4.67.52,9.44,1.32h0c7.16-26.21,27.31-40.22,27.31-40.22A93.86,93.86,0,0,0,62.28,103.36Z"/><path class="cls-3" d="M190.77,67.06a16.49,16.49,0,0,1,2.8-13.32c-10.24,9-4,18-.94,24.94s1.86,12.09-1.24,15.65S179.77,98.21,174,97.12,165.36,90,163.81,82.86,165,63.18,165,63.18c-4.18,6.35-4.18,19.37-.93,29.91s11.78,13.17,18,13.17,17.36-5.27,15.64-17.82S192.48,75,190.77,67.06Z"/><path class="cls-3" d="M124.11,73.47c-10.69-10.83-11-23.07-11-23.07s-3.67,14.28,5,25,29.94,11.86,29.94,11.86A53.77,53.77,0,0,1,124.11,73.47Z"/><path class="cls-3" d="M178.2,26.61C190.77,31.49,190.62,39,190.62,39c1.92-7.25,10.79-11.09,10.79-11.09a32.79,32.79,0,0,0-10.94-2.66A38.81,38.81,0,0,0,178.2,26.61Z"/><path class="cls-3" d="M160.77,14.05c-7.57-1.5-14.84,1.53-15.21,1.69h0c7,.12,9.1.74,9.1.74A5.67,5.67,0,0,1,160.77,14.05Z"/><path class="cls-3" d="M185.38,112.41h0a21.4,21.4,0,0,1-10,.61s7.28,7,14.67,22.45v0h0l.29,0c-.71-7-3.71-18.79-4.4-21Z"/><path class="cls-1" d="M217.61,38.61a8.52,8.52,0,0,0-.68-2.18,7.42,7.42,0,0,0-1-1.53,18,18,0,0,0-1.92-2,11.64,11.64,0,0,0-3.81-2h0a7.53,7.53,0,0,1,3.15,5.83c.4,8.24-8.11,11.57-8.11,11.57a12.5,12.5,0,0,0,4.65-11.7c-.93-5.85-8.52-8.63-8.52-8.63S192.54,31.79,190.62,39c0,0,.15-7.54-12.42-12.42a38.84,38.84,0,0,1,12.27-1.33,32.76,32.76,0,0,1,10.94,2.66s1.18-3.1,7.42-4.16a38.54,38.54,0,0,1,13,.47c-1.25-2.28-2.68-5.59-9-8.16a16.94,16.94,0,0,0-11.9-.25s-.41-3-5-6C188.59,5.08,169,2.22,165.22,2s2.83,2.23,5.48,3.74c3,1.71,6.38,4.63,6.67,7.39a3,3,0,0,1-.43,1.93,11.05,11.05,0,0,0-1.8-3c-5.37-6.9-19-9.88-29.21-9.2a56,56,0,0,0-18.33,4.55c.12.94-3.77,4.24-14.48,5.42a64.3,64.3,0,0,1-20-1.13l-.19,0c-1.05-.13-1.84-.08-2.17.67l0,.11s0,.09,0,.14a3.22,3.22,0,0,0,.28,1.25l-.15-.29c.73,1.4,5.07,9.4,10.79,13.51,0,0,3.42-.72,7.48-1.16,0,0-62.72,30.52-88.12,78.21a205.86,205.86,0,0,1,41.45-.74h-.12a93.87,93.87,0,0,1,41-38.47S83.12,78.9,76,105.1a141,141,0,0,1,27.53,7.49c29.29,11.42,54,23.35,81.81,23.1l4.74-.21v0C182.63,120.06,175.35,113,175.35,113a21.41,21.41,0,0,0,10-.61c.42-.15.77-.3,1.07-.43,9.1-4.91,10.63-13.21,11.37-19.16a31.5,31.5,0,0,0-.36-11.29s15.75-20.68,19.76-37A14.19,14.19,0,0,0,217.61,38.61ZM204.21,18a11.44,11.44,0,0,1,9.54,2.91s-9.42-1.74-13.84,2.33C199.91,23.19,200.14,18.77,204.21,18Zm-58.67-2.21h0c.38-.16,8-3.34,15.75-1.57a27.23,27.23,0,0,1,12.91,7.21s-7.15-2.14-20.41-1.91c0,0-.52-1,.85-3,0,0-2.12-.62-9.1-.74ZM165,28.83a32.38,32.38,0,0,0-3.13,2.46,124.39,124.39,0,0,0-46.85-1.72A105.44,105.44,0,0,1,165,28.83ZM118.14,75.37c-8.71-10.69-5-25-5-25s.32,12.25,11,23.08a53.78,53.78,0,0,0,24,13.76S126.86,86.06,118.14,75.37Zm38.44-33a124.27,124.27,0,0,0-40.92,4,108,108,0,0,1,41-6.91A9,9,0,0,0,156.58,42.36Zm1.1-5.81a124.4,124.4,0,0,0-42.51,1.56,108,108,0,0,1,44.34-4.34A15.4,15.4,0,0,0,157.68,36.55Zm40.05,51.9c1.72,12.55-9.44,17.82-15.64,17.82s-14.73-2.63-18-13.17-3.26-23.56.93-29.91c0,0-2.79,12.55-1.24,19.68S168.3,96,174,97.12s14.26.77,17.36-2.79,4.34-8.68,1.24-15.65-9.3-16,.94-24.94a16.49,16.49,0,0,0-2.8,13.32C192.48,75,196,75.9,197.73,88.45ZM186.5,89.6C191.39,86,190.86,79,190.86,79c1.19,2.77,1.85,6.47,1.19,9.11s-2.38,5.28-9.51,5.94-11.22-1.58-11.22-1.58c3.17-3.17,6.25-11.75,6.25-11.75,1.58,6.07.23,8.89.23,8.89C181.24,90.7,186.5,89.6,186.5,89.6Zm6.78-22.92a27.45,27.45,0,0,0,1.63-14.49s-5.62-2.07-15.82,0c0,0-4.88,10.94-11.09,16.27,0,0,4.73-11.09,1.92-19.37A48.1,48.1,0,0,1,189,46.43c10.5.74,12.86,3,12.86,3S199.2,62,193.28,66.68Z"/><path class="cls-3" d="M249.12,49c-9.21-5-19.65-6.59-27.67-6.9h0c.3-1,.67-2.3,1-3.7l.31,0c16.06-.53,24.54,3.72,24.54,3.72l-.81-.62a59.65,59.65,0,0,0-23.25-5.15H223c.25-1.11.57-3.37.63-3.37h.16c12.35.13,19.09,3.06,19.09,3.06l-.81-.64a55.84,55.84,0,0,0-18.26-4.19,11.65,11.65,0,0,0-1.21-5.79A20.79,20.79,0,0,0,229,13.17h0c0-.08.06-.3.06-.34a1.36,1.36,0,0,0,0-.14,1.75,1.75,0,0,0,0-.23s0-.08,0-.12,0-.14,0-.2l0-.11c0-.06,0-.12-.05-.18l0-.09-.07-.16,0-.07-.09-.13-.05-.06-.11-.11-.06-.05-.12-.09-.06,0-.13-.07-.06,0-.13-.06-.06,0-.12,0-.05,0-.12,0h0l-.1,0h-.24a40.32,40.32,0,0,1-14.25-2.57l-.53-.19C195.15,1.56,177.09-.26,161,0V0c-7.18.06-12.42.65-12.42.65A187.89,187.89,0,0,0,109,8.15,50.29,50.29,0,0,1,94.3,9.5s-3.11-.05-3.72,1.92c-.53,1.26-.6,2.76.59,6C92.53,21.25,98,28.36,98,28.41c-16.5,6.71-59.5,30.82-98,79.32a171,171,0,0,1,20.94-3.62h0C46.35,56.42,109.07,25.9,109.07,25.9c-4.06.44-7.48,1.16-7.48,1.16C95.87,23,91.53,14.95,90.8,13.55l.15.29a3.22,3.22,0,0,1-.28-1.25.86.86,0,0,1,0-.14l0-.11c.33-.76,1.12-.81,2.17-.67l.19,0a64.3,64.3,0,0,0,20,1.13c10.71-1.18,14.6-4.48,14.48-5.42a56,56,0,0,1,18.33-4.55c10.22-.68,23.84,2.3,29.21,9.2a11.06,11.06,0,0,1,1.8,3,3,3,0,0,0,.43-1.93c-.29-2.76-3.66-5.67-6.67-7.39C168,4.25,161.44,1.82,165.22,2S188.59,5.08,196,9.88c4.56,2.95,5,6,5,6a16.94,16.94,0,0,1,11.9.25c6.27,2.56,7.71,5.88,9,8.16a17.06,17.06,0,0,0-6.33-10.92s1.4,0,3.62-.19h.1l.75-.07.2,0,.28,0h0c1.72-.17,3.77-.44,6-.86,1.52-.12,2.24,0,2.6,1v0c0,.1-.05.2-.08.3s-.08.25-.14.38-2.34,7-6.69,10.16l-.29.25a38.54,38.54,0,0,0-13-.47c-6.24,1.06-7.42,4.16-7.42,4.16s7.59,2.78,8.52,8.63a12.5,12.5,0,0,1-4.65,11.7s8.51-3.33,8.11-11.57a7.53,7.53,0,0,0-3.15-5.83h0a11.64,11.64,0,0,1,3.81,2,17.81,17.81,0,0,1,1.92,2,7.45,7.45,0,0,1,1,1.53,8.55,8.55,0,0,1,.68,2.18,14.25,14.25,0,0,1-.4,6c-4,16.28-19.76,37-19.76,37h0c11.91-10.16,19.85-28.14,23.32-37.19,18.78.2,29,5.43,29,5.43Z"/></g></svg>