<svg id="Layer_1" data-name="Layer 1" xmlns="http://www.w3.org/2000/svg" viewBox="0 0 248.66 165.93"><defs><style>.cls-1{fill:#00143f;}.cls-2{fill:#fff;}.cls-3{fill:#f26522;}</style></defs><title>CHI</title><g id="CHI"><path class="cls-1" d="M76.24,11.49C47.84,23.23,34.93,41.05,29.12,53.93c-3.74,8.36-7.41,14.65-11.55,19.77A55,55,0,0,1,1,84.71L.15,85,0,88.13l1.18.23c5.88,1.17,13.2,5.59,15.58,8.61,3.05,3.07,5.18,5.19,10.53,14.69L30,116a60.56,60.56,0,0,0,8.34,11.27c3.7,5.2,21.41,21.54,40.69,28.57,13.54,6.71,31.32,10,54.23,10.09,33.64.19,59.1-7.16,82.56-23.84,9.73-7.53,12.87-10.57,21.07-20.3,5.49-6.49,11.46-17.94,11.72-30.59l0-1.41-47.59-.05-.26,1.05c-3.87,15.53-19.51,25.22-28.5,29.61-23.44,10-53,10.09-75.13.27-20.73-10.39-31.75-24.44-31-39.53C67,65.74,80.11,51,99.59,43.66c37.69-13.81,73.91-1.94,87.59,10.91l.4.38L243,54.89,242.28,53C230.88,24.09,189.63,7.8,171.44,4.43,130.72-4.89,95.55,2,76.24,11.49Z"/><path class="cls-2" d="M26,69.51a69.9,69.9,0,0,0,5.63-10.74L33.36,55C38.47,44.15,47.06,34.2,58.2,26.22c10.89-7.29,23-13.14,33.06-16,43.93-12.76,88.85-1.81,108.32,8.67,7.7,3.53,28.53,15.9,37,32H189.61c-32.67-25.42-76.75-19-98.49-8.35A73.59,73.59,0,0,0,70.85,58.11c-9.92,12-15.26,32.47,2.18,50.8a77.14,77.14,0,0,0,25.6,16.89c22.72,9.42,54.62,8.37,77.55-2.56,14.65-7.64,24.38-17.78,28.31-29.36h39.58c-1.4,10.06-4.33,20.45-19.34,35l-1.67,1.5c-7.27,6.56-17.23,15.55-36.69,22.65-33.19,12.88-82.82,11.39-110.67-3.3l-1.75-.88a98.84,98.84,0,0,1-25.63-17.46c-7.54-6.92-12.79-13.76-19.39-25.23-7.2-13.17-16.21-18-21.06-20A45.31,45.31,0,0,0,26,69.51Z"/><path class="cls-3" d="M27.75,76.8c4.71-5.21,8.42-18.58,15.85-28.74C54.17,33.18,68.14,25.38,78.54,20.41c23.78-11.64,58-15,91.41-6.94,12.14,2.87,24.27,7.19,32.94,12.83,8.68,5.15,18.83,12.58,24.53,19.82H191.7c-10.6-8.47-22.24-12.58-32.65-14.81-11.64-3-30-4.56-51.78.65A84.46,84.46,0,0,0,76.81,45.83c-17.1,12.14-35.92,44-2.48,71.79,10.9,9.21,20.07,12.19,30.22,15.71,18.83,5.45,42.37,4.41,56,.69,20.56-5.45,28.24-12.63,34.93-18.33,6.19-5.95,11.4-13.13,12.83-16.85l29.33-.05c-2,10.95-10,19.87-17.64,27.3-8.79,8.29-15.36,12.64-28.34,19.13-30.37,14.56-75,14.07-102.46,4.11-14.12-5.15-18.09-7.48-28.74-14.86-8.67-7-14.37-11.59-22.54-24.23-3.72-6.19-5.45-9.66-9.66-15.36-3-3.22-5-6.2-10.16-8.67C22.86,82.86,25.46,80.39,27.75,76.8Z"/></g></svg>