<svg id="Layer_1" data-name="Layer 1" xmlns="http://www.w3.org/2000/svg" viewBox="0 0 250.17 176.04"><defs><style>.cls-1{fill:#fff;}.cls-2{fill:#f04e23;}</style></defs><title>CIN</title><g id="CIN"><path class="cls-1" d="M224.63,85.15a1.41,1.41,0,0,1-.2-2.58c11.26-8.34,18.85-19,18.85-35.56,0-19.56-14-47-68.68-47h-141L1.69,55.62H25.14a4.73,4.73,0,0,1,4.73,4.73v55.53a4.73,4.73,0,0,1-4.73,4.73H0L32.26,176l149,0c48.09,0,68.89-25.09,68.89-52C250.17,106.17,237.5,91.71,224.63,85.15Z"/><path class="cls-2" d="M207.23,86.41a1.54,1.54,0,0,1-.18-2.95c15.29-5.79,24.21-16.08,24.21-34.24C231.48,24.88,210,8.15,175,8.15H42.4L19.15,49.24h16A5.72,5.72,0,0,1,40.87,55v66.31A5.72,5.72,0,0,1,35.15,127H19.32l23.44,40.89,138.53,0c39.56,0,55.85-26.29,55.85-45.63C237.13,105.24,224.6,90.56,207.23,86.41ZM141.14,127H122.23a4.25,4.25,0,0,1-4.25-4.25V100.5h23.16c11.09,0,15.21,5.44,15.21,13C156.35,121.37,152.22,127,141.14,127Zm0-51.28H118V53.44a4.26,4.26,0,0,1,4.25-4.22h18.91c11.09,0,15.21,5.66,15.21,13C156.35,70.09,152.22,75.73,141.14,75.73Z"/><path d="M156.27,8.15A360.43,360.43,0,0,0,143.33,49.3c-.7-.05-1.43-.08-2.19-.08H122.23A4.26,4.26,0,0,0,118,53.44V75.73h19.88c-1.31,8-2.37,16.27-3.08,24.77H118v22.26a4.25,4.25,0,0,0,4.25,4.25h11.61a247.08,247.08,0,0,0,3.86,40.85H120.41C106.78,134.94,88,79.24,106.68,8.15h49.59Zm47.17,4.57c-28.13,41.73-43.38,94.91-36.54,143.35A181.54,181.54,0,0,1,231.22,50.43c0-.4,0-.79,0-1.21C231.41,32.44,221.24,19.28,203.44,12.72ZM87.51,156.28c-24.58-46.21-31-99.33-21.89-148.13H42.4L19.15,49.24h16A5.72,5.72,0,0,1,40.87,55v50.88C52.8,125.21,70.08,143.75,87.51,156.28Z"/></g></svg>