<svg id="Layer_1" data-name="Layer 1" xmlns="http://www.w3.org/2000/svg" viewBox="0 0 248.7 189.25"><defs><style>.cls-1{fill:#e93825;}.cls-2{fill:#2d1b00;}.cls-3{fill:#fff;}</style></defs><title>CLE</title><g id="CLE"><path class="cls-1" d="M112.72,107.86c3.16,3.37,7.87,8.15,11.39,11.54a41.44,41.44,0,0,1,.06-15.11,28.85,28.85,0,0,1,3.34-8.55l-3-6.62c-.68,1-1.9,2.89-3.06,4.71,0,0-4.28,6.84-8.73,14"/><path class="cls-1" d="M126.79,130.71a38.34,38.34,0,0,1-8.86-7.24s-5-4.73-9.24-9l-4.46,7.23,9.52,6.25c2,1.35,4.33,2.95,4.42,5.93s-2.58,6.66-3.44,7.82c-1.12,1.48-4.65,5.68-9.24,2.76,0,0-6.64-4.13-11.33-6.93l-3.61,5.34,37.46,6c-.81-5.92-2.76-11.33-3.94-16.05a72,72,0,0,1,5.42,16.29l3.06.49c-.32-1.58-.66-3-.93-4.23-.56-2.55-2.83-8-4.84-14.62"/><path class="cls-1" d="M139.69,84c5.47-3,8.84-4.56,17.5-5.67l2.16-.3c1.47-.22,4.29-.81,5.1-2.27a6.25,6.25,0,0,0,.57-3.29c-9.24,1.93-18.91,4.25-27.27,7.65a35.9,35.9,0,0,0-7.42,4l2.35,5.18a33.65,33.65,0,0,1,6-4.61c.31-.23,1-.66,1-.66"/><path class="cls-2" d="M90.37,181.51c-9.2-.39-20-4.22-27.77-8.21-3.78-2.19-12.8-6.91-16.4-7.1C50.34,167.11,59,172,62.06,174c6.66,3.63,17.84,8.73,28.31,9.12,25.11,1.56,39.15-12.07,39.89-26.24l-2.07-.34c-2,17.93-21.06,26.53-37.82,25"/><path class="cls-2" d="M128,148.83l1.48.23a72.22,72.22,0,0,0-5.42-16.29c1.18,4.73,3.13,10.13,3.94,16.05"/><path class="cls-2" d="M71.37,123.6a9.67,9.67,0,0,0-7,2.88c-4.08,4.15-3.79,11.32.64,16a11.82,11.82,0,0,0,8.37,3.77,9.85,9.85,0,0,0,3.2-.49l6.71-9.93a12.6,12.6,0,0,0-3.53-8.43,11.79,11.79,0,0,0-8.37-3.76"/><path class="cls-2" d="M57.32,153c9.42,12.07,26,12.13,34.36,3.28C88.12,158,73.25,167.74,57.32,153"/><path class="cls-2" d="M103,162.57a3.2,3.2,0,0,0,5.28.89,5,5,0,1,0-5.28-.89m2.92,1.33a2.75,2.75,0,1,1,2.71-2.74,2.72,2.72,0,0,1-2.71,2.74m2.15-5.51a3,3,0,0,0-3.48-.47c-.46.29-.93-.09-.35-.68a2.93,2.93,0,0,1,4.23.51c.49.73,0,1.23-.41.64m-1.61-3.62a4.08,4.08,0,0,1,2.8,7c1.17-2.53.21-5.75-2.89-5.88a3.74,3.74,0,0,0-3.73,4.8c-1.09-1-.72-5.86,3.82-5.88"/><path class="cls-3" d="M104.26,157.25c-.58.59-.11,1,.35.68a3,3,0,0,1,3.48.47c.38.58.9.09.41-.65a2.94,2.94,0,0,0-4.24-.5"/><path class="cls-3" d="M106.38,155.86c3.1.14,4.06,3.35,2.89,5.88a4.09,4.09,0,0,0-2.8-7c-4.53,0-4.9,4.85-3.82,5.88a3.74,3.74,0,0,1,3.73-4.8"/><path class="cls-3" d="M108.64,161.16a2.71,2.71,0,1,0-2.71,2.74,2.73,2.73,0,0,0,2.71-2.74m-2.73,2.15a2.17,2.17,0,1,1,2.17-2.17,2.16,2.16,0,0,1-2.17,2.17"/><path class="cls-2" d="M105.9,159a2.17,2.17,0,1,0,2.17,2.17A2.17,2.17,0,0,0,105.9,159m-1.6,2.24c.06-.28.19-.14.25.07a1.84,1.84,0,0,0,2.73.29c.25-.36.25.14.25.14a1.68,1.68,0,0,1-3.23-.49"/><path class="cls-3" d="M107.29,161.57a1.84,1.84,0,0,1-2.73-.29c-.06-.21-.19-.35-.25-.07a1.68,1.68,0,0,0,3.23.49s0-.5-.25-.14"/><path class="cls-2" d="M60.93,161.08a4.58,4.58,0,0,0-1.55,4.4,3.58,3.58,0,0,0,.93,3.91c1.24,1.31,3,1.7,4.1,1a3.66,3.66,0,0,0,2.69-.74c1.79-1.49,1.87-4.41.23-6.75s-4.51-3.15-6.4-1.82m-.3,7.92c-1.16-1.23-1.36-2.93-.44-3.8s2.6-.58,3.76.65,1.36,2.93.45,3.8-2.6.58-3.77-.65m4.47-3a3.82,3.82,0,0,0-2-1.73c-.61-.12-.38-1.1.35-.85a5.3,5.3,0,0,1,2,1.54c.66,1.1,0,1.66-.33,1m.82,3.42c3.33-4.33-3.15-9.37-5.71-5.37,2.13-6.54,10.73,1.67,5.71,5.37"/><path class="cls-3" d="M63.46,163.44c-.73-.25-1,.73-.35.85a3.83,3.83,0,0,1,2,1.74c.29.61,1,.06.33-1a5.19,5.19,0,0,0-2-1.54"/><path class="cls-3" d="M60.22,164.06c2.56-4,9,1,5.71,5.37,5-3.7-3.58-11.91-5.71-5.37"/><path class="cls-3" d="M63.95,165.84c-1.16-1.23-2.85-1.51-3.76-.65s-.72,2.57.45,3.79,2.85,1.52,3.76.65.71-2.56-.45-3.79m0,3.53c-.76.56-2,.1-3-.76a2.19,2.19,0,0,1-.4-3.05c.78-.75,2.18-.28,3,.67.68.77,1.26,2.49.38,3.15"/><path class="cls-2" d="M60.52,165.56a2.18,2.18,0,0,0,.4,3c.94.87,2.23,1.33,3,.76s.29-2.37-.38-3.14c-.83-1-2.23-1.42-3-.67M63.27,169c-1.56.15-3-1.75-2.38-2.59,0,0,.43-.59.51,0a3,3,0,0,0,2,2.15c.22.05.3.39-.17.48"/><path class="cls-3" d="M61.4,166.37c-.08-.54-.51,0-.51,0-.58.84.82,2.74,2.38,2.59.47-.09.4-.42.17-.48a3,3,0,0,1-2-2.15"/><path class="cls-3" d="M53.59,174.43c.31-.21.63-.45.88-.63-4.27-2.72-9.57-4.51-18.18-1.66l-.38.12a30.05,30.05,0,0,1,6.71-.77,18.3,18.3,0,0,1,8.79,2.5l-1.59.86a48.15,48.15,0,0,1-17.43,4.91c-3.52.25-2.84-1.81-.52-3a5.53,5.53,0,0,0,2.83-4.14c-.38.2-.38.12-.95.22h-.06c-.77,5.53-11.59,5-10.39-2.57,0,0-1.56-3.2-2.45-5.05,0,.07-.22-1.17-.1-1.19s2.65,4.29,3.74,5.65c-1.46,5.14,6.05,7.28,8.06,3.41-6.62,1.23-6.87-2.16-6.77-3.29-.05-.17-.09-.35-.13-.53-1.15-1.17-4.9-6.16-9.17-14-.57,4.56,4.6,15.11,5,16.15l.44,1.09c-1.56,4.32,2.93,10,11,8.68,7.94-.75,16.86-4.08,20.67-6.81"/><path class="cls-2" d="M166.29,160.4s-.48.08-1.32.17l.52,1c.34.65.71,1.28,1.09,1.9a26.93,26.93,0,0,0,2.44-3.37l-2.72.28"/><path class="cls-2" d="M170.18,134.47a42.93,42.93,0,0,1-1.13,17.75l3.44-.34a40.86,40.86,0,0,0,1.32-8.48c0-.27,0-.54,0-.8L199.57,147s-1.69-3.83-2.14-5.13l-23.66-4.06c0-.25,0-.5,0-.75-.07-1-.16-1.94-.28-2.91l-3.28.35"/><path class="cls-2" d="M126.79,130.71c2,6.63,4.28,12.06,4.84,14.62.27,1.22.6,2.65.93,4.23l3.94.63c0-.26,0-.51,0-.76,4.34-3.13,7.68-8.26,9.49-13.05l-.3-.66-.63,0a41.87,41.87,0,0,1-14.57-3.11c1.28,4.87,2.6,9.58,3.32,14-.9-3.78-3-8.91-4.86-14.7-.7-.35-1.4-.72-2.11-1.12"/><path class="cls-2" d="M124.12,119.4l1.52,1.45.39.3c-1.53-7.84-1.58-16.09,2.36-23.48l-.88-1.93a28.77,28.77,0,0,0-3.34,8.55,41.34,41.34,0,0,0-.06,15.11"/><path class="cls-3" d="M167.51,113.55c-1.56-7.26.1-20.75,5.39-24.6-7.56.91-9.67,19.87-5.39,24.6"/><path class="cls-2" d="M142.16,128l-13-28.67c-3,7.55-2.55,15.51-1,23.34A27.89,27.89,0,0,0,142.16,128"/><path class="cls-3" d="M248.69,171.1c-1.15-15.6-4.65-31.14-10.55-47.66l-.72-1.71c-1.49-3.88-4.19-4.62-8.45-4.09l-3.7.41c-7.5.67-19.63,1.95-29.68.19L181.89,85.71l-.35,0c-.28,0-.54,0-.8.08,3.73,8.84,16,37.85,16,37.85-2.35.43-4.94.6-4.94.6L176.31,88a6.44,6.44,0,0,0-.78.94l-.13.21,11,26.18a8.76,8.76,0,0,1-1.67-1.05,49.08,49.08,0,0,1-14.25-14.11s0,.12-.08.32-.15.69-.26,1.24a43.11,43.11,0,0,0,17.13,15.42l2.43,6c-9.75-2.83-17.92-11.68-20.19-14.33,0,.24,0,.49,0,.73s0,.43,0,.64A44.6,44.6,0,0,0,190,124.73c-5.74.74-12,1.46-17.89,2.08l-3.33.34A58.86,58.86,0,0,0,166,119c-5.51-13-20.58-7.08-19.52.78L133.76,91.61a42.26,42.26,0,0,1,8.46-7.05,24.22,24.22,0,0,0-5.5,3.5,35.31,35.31,0,0,0-3.27,2.86l-.77-1.69L130.34,84a35.8,35.8,0,0,1,7.42-4c8.36-3.41,18-5.72,27.27-7.65l1.55-.32c.28,4.62-2.05,6.38-6.07,7.21-2.62.54-4.75.63-5.84,1l2.49.09a22.44,22.44,0,0,0,6.71-1.32c2.51-.93,4.4-2.62,3.6-7.15l1.29-.27c.68,4.31,0,8.48-8.31,9.29,1.43,1,14.44-1.43,22.27.37.19.08,3.47,1.21-.28,2.86,7.26-1.62,7.66-8.86,6.28-14.24l.3,0a31,31,0,0,1,3.44.44h0c.7.07,1.55.17,2.42.29,5.41.54,4.92-5.86,2.07-6.68a18.42,18.42,0,0,0-3.26-.74l-.76-.09-6.75-15.05,3.74-1.74,9.66,17.44c4.49,7.12-2.95,10.05-7,7.91a5.6,5.6,0,0,0-1.26.83,7.48,7.48,0,0,0,4.21,1.22,6.9,6.9,0,0,0,6.19-3.23c.8-1.45,1.29-3.93-.89-7.4L190.51,44.65l-8.2,3.62a1.7,1.7,0,0,1,1.35.91l1.44-.58,6.34,14.33c-.78-.16-2.95-.34-3.48-.38,0,0-1.58-.05-1.58-.05-1.37-4.25-3.18-9.65-4.41-12.81a13.52,13.52,0,0,0-2.27-.18.46.46,0,0,1,.05.08c1,1.8,3.9,10.87,4.87,13.34a14.54,14.54,0,0,1,1.26,5.36l-6.31-.12c-.1-1.84-1.84-5.3-1.84-5.3l-2.34-4.74-.64-1.36-2.43-5.11h0a10.93,10.93,0,0,1-.83-2.82,2.79,2.79,0,0,1,2.92-3.31,5.19,5.19,0,0,1,4.43,2.57h.88a72,72,0,0,0-4.37-7.28C150.85,5.93,110.15-4.39,74.3,4.32c45.44-6.65,80.09,12.9,97.38,42.12-1.45.72-3.84,1.92-5,2.52-.5,0-2.35-.05-3,0-1.08.09-2.09.14-1.36,2.71.55,1.9.74,2.35,1.18,3.52.51,1.41,2.16,5.66,3.36,9.28l-1.27.24c-.22-.64-.46-1.31-.74-2-1.41-3.59-3.11-8.26-3.61-9.85a6.41,6.41,0,0,1-.18-3.73s-1.72,1.35-.18,5l3.88,10.75-1.57.31c-11.77,2.37-23.29,5.48-29.76,8.19a32.84,32.84,0,0,0-8.28,4.56.48.48,0,0,0-.2.27A5,5,0,0,0,122.45,80a20.16,20.16,0,0,0-2.09,1.83c-1.36,1.57-2.55,3-4.07,5-1.33,2-6.1,9.53-10.36,16.43a3.87,3.87,0,0,0-1.06.59,4.24,4.24,0,0,0-1.58,4c-3.45,5.6-5.48,8.85-6.32,10.19a3.87,3.87,0,0,0-3,1.83,83,83,0,0,1-5.11,8.27A4.7,4.7,0,0,0,88,132l-.32.64-8,11.88a3,3,0,0,0-.31,3.09,4.9,4.9,0,0,0,4,2.54,3.68,3.68,0,0,0,2.41-.64l42.37,7.06,2.07.35,3.32.55,2.68.45a35,35,0,0,1-3.48,12.84l.74.1c11.7.95,20-1.13,25.79-5q.74,1.41,1.58,2.74c5.61,8.95,14.18,14.89,25.4,17.86a70,70,0,0,0,37.17-1,4.19,4.19,0,0,0,3.93-.21,3.75,3.75,0,0,0,.77-.54c13.61-3.1,15.93-4.23,16.76-5l.27-.17c3.7-2.17,3.51-8.15,3.5-8.43m-19.61-3.16a140.39,140.39,0,0,0-2.74-16.88c3.13-.57,8.93-2,11.06-2.57l.16.9c1.09,5.91,2.75,14.85,3.38,20.33a5.21,5.21,0,0,1-.09,1.36,14.18,14.18,0,0,0-2-.27,40.5,40.5,0,0,1-9.74-2.87m.57-42.77h.28a87.21,87.21,0,0,1,3.23,9.69l1,4.19a82.72,82.72,0,0,1-10.55,1.65,126.12,126.12,0,0,0-4.7-13.17c8.17-1.14,10.72-2.36,10.72-2.36M238,146.84s-2.07,1.06-11.64,2.77c0,0-.78-3-1.14-4.51,0,0,8.09-1.68,11.25-2.87,0,0-.06-1.05-1.62-1,0,0-8.21,2.07-10.11,2.25l-.45-1.26s7-1.36,9.38-1.9c0,0,5-1.72,6.05,2.08,0,0,1.08,3.28-1.72,4.45m-1.14-22.43c6.35,17.8,11.27,42.18,9.86,50.62,0-1.09-1.68-3.11-4.57-3.7a24.63,24.63,0,0,0,0-2.47c-.73-7.35-3.37-20.71-3.37-20.71,4.09-1.32,3.73-9.69-3.25-9.64a96.42,96.42,0,0,0-4.12-13.63c3.79-2.08,2-5.58-.06-6.2,0,0,3.8-.81,5.54,5.75m-7.09-5a2.21,2.21,0,0,1,2,2,2.09,2.09,0,0,1-1.78,2.2l-.6.13c-1.48.46-4.45,1.16-7.41,1.72a33.52,33.52,0,0,1-3.38.59c-.39-.86-.66-1.75-1.79-3.93a103.12,103.12,0,0,0,10.34-2.25,21.51,21.51,0,0,1,2.6-.49m-6.36,0a66.3,66.3,0,0,1-7.68,1.35,3.5,3.5,0,0,0-1.92-.8h0c2.41.16,9.6-.55,9.6-.55m-13.27.91a1.62,1.62,0,0,0-1.44,1.45c-3.25.81-10.77,1.63-10.77,1.63l-1.54-3.52a62.26,62.26,0,0,0,13.75.45m-14-55.24.06,0h.06c.95.14,1.51,1.36,1.42,2.37a2,2,0,0,1-2.25,1.78c-1.69-.37-6.12-.79-8.38-1a14.93,14.93,0,0,0-1.17-4.61,96.59,96.59,0,0,1,10.25,1.43m-16.9,5.2s3.79,0,5.72,0c0,0-1.42,2.67-7.44,2.25,0,0,1.63-1.11,1.72-2.28M168.81,48.83l1.62-.84s.14-.09.13-.07a1.66,1.66,0,0,0-.07.61,5.2,5.2,0,0,0,.6,2.51c1,2.58,5.95,12.94,6.52,14.45,2.89,7.5-4.57,8.89-5.35,5.57,7.94-.6,4.72-8.92.21-7.74-1.72-4.25-3.08-8.49-3.08-8.49s-1.76-4.61-.59-6m-.67,6.1,3.09,8.64-1.62.31s-2-5.55-3.27-9.39c-1-2.92-.27-4.35-.27-4.35l1.48-.7c-.67,2.16.6,5.49.6,5.49M133.81,74.79c8-3.36,24.58-7.64,38.93-9.95a2.6,2.6,0,0,1,3,1.94c.14,1-.35,2.12-2.23,2.42l-.87.18c-11.48,2.29-24.48,4.9-35.36,9.32a24.15,24.15,0,0,0-7.16,3.73s-1.06-2.29-1.44-3c-.6-1.07-.69-1.18-1.19-1.46a37,37,0,0,1,6.36-3.21M123.44,81a3.38,3.38,0,0,1,2.63-1.62,2.65,2.65,0,0,1,1.14.24l22,48.71a25.88,25.88,0,0,1-5.42-.36L123.43,83.45a2.26,2.26,0,0,1,0-2.4m4.08,14.7.87,1.93c-3.94,7.39-3.89,15.64-2.36,23.48l-.39-.3-1.52-1.45c-3.53-3.39-8.23-8.18-11.4-11.54,4.45-7.19,8.73-14,8.73-14,1.16-1.82,2.39-3.69,3.07-4.71Zm1.63,3.6,13,28.67a27.88,27.88,0,0,1-14.05-5.33c-1.51-7.82-1.94-15.79,1-23.34M117.47,87.69a65.11,65.11,0,0,1,4.38-5.81,5.19,5.19,0,0,0,.54,2.47c.51,1,1.55,3.59,1.55,3.59.17-.17-2.32,2.92-3.71,5.11l-8.37,13.74-2.25-2.48s-1-1.15-1.86-1.15c4.38-7.11,8.37-13.43,9.73-15.46m13,44.87A41.93,41.93,0,0,0,145,135.67l.63,0,.3.67c-1.8,4.79-5.15,9.93-9.49,13.06,0,.25,0,.5,0,.76l-3.94-.63-3.07-.49-1.48-.24-37.46-6,3.61-5.34c4.69,2.8,11.33,6.93,11.33,6.93,4.58,2.92,8.11-1.28,9.23-2.76.87-1.16,3.53-4.74,3.44-7.81s-2.38-4.58-4.43-5.93l-9.52-6.25,4.46-7.22c4.27,4.28,9.19,9,9.24,9a38.31,38.31,0,0,0,8.86,7.24c.71.41,1.41.78,2.11,1.13,1.9,5.79,4,10.91,4.86,14.7-.72-4.4-2-9.12-3.32-14m76,14.59a38.59,38.59,0,0,1-4.77.94c-.95-1.8-7-16.5-7-16.5.71-.09,4.75-.75,4.75-.75a166.25,166.25,0,0,0,7,16.32m1.18-.36-1.81-4.16c6,.1,10.41,0,10.41,0,.73,2.68-1.77,2.77-1.77,2.77Zm-2.3-5.44-4.59-10.89c3.08-.49,5.94-1,8.43-1.42h0l0,0a2,2,0,0,1,1.6,0,2.09,2.09,0,0,1,.9,1.13v0l0,0c1,2.57,2.87,8.09,3.83,11-3.92.16-7.52.17-10.31.12M197,140.7l-23.3-4.08c0,.13,0,.28,0,.42s0,.49,0,.75l23.65,4.06c.45,1.3,2.14,5.12,2.14,5.12l-25.75-4.38c0,.26,0,.53,0,.81s0,.25,0,.38l25.4,4.32c-8.48,1.45-17.28,2.79-26.72,3.79l-3.44.34a42.93,42.93,0,0,0,1.13-17.75l3.28-.36c6.55-.73,13.4-1.61,19.74-2.53L197,140.7M160.31,153a22.24,22.24,0,0,1-5.45.12c-1.62-3.07-3.41-7.24-8-17.28a24,24,0,0,0,5.48,0Zm-47.16-22.36-10.2-6.8.86-.83c3.66,2.36,8.48,5.52,10.56,7.09,3.73,2.83,1.71,6.23,1.71,6.23.38-2-.55-4.08-2.93-5.69m-15.48-11,0,0,0-.05c.09-.14,1.35-2.23,6.13-10a32.5,32.5,0,0,0,3.75,4.08l-5.81,9.21c-.78.62-2.42,0-3.45-1-.24-.23-1.36-1.39-.68-2.2m-1.83.43c-.15,2.74,4,4.94,6,4.4l10.63,7.11c1.6,1.15,3.16,3.11,2.23,5.76-.14-2.48-3.22-4.45-3.22-4.45s-11.42-6.72-14.92-8.91c-2-1.26-1.8-3-.74-3.91m-5.32,8.49c2.1-3,3.13-4.65,3.58-5.44A5.26,5.26,0,0,0,96,124.93c3.53,2.21,11,6.71,13.1,7.9a10.18,10.18,0,0,1,2.76,1.9c2.67,2.54,2.16,5.05.86,6.81-1.48,2-4.31,3.25-6.67,1.68l-3.21-2h0l-1.16-.7-10-6.11,0,0,0,0a4.09,4.09,0,0,1-2.08-2.31,4.23,4.23,0,0,1,1-3.51m-6.93,20a3.46,3.46,0,0,1-2.78-1.73,1.54,1.54,0,0,1,.18-1.65l7.58-11.57c.47.92,4.29,3.2,4.29,3.2l-7.3,10.85a2.06,2.06,0,0,1-2,.89m139.62,35.22s.07.14-1.83.78c-11.68,3-24.2,3.18-34.75.4-9.57-2.53-20.89-8.08-27.18-22a14.78,14.78,0,0,1-1-2.24s3.21.06,5.32-.11c9.75,20.9,34.9,24.79,56.45,19.27a6.32,6.32,0,0,0,2.52-.93,13.22,13.22,0,0,0,.4-3.7c0-.61-.53-13.48-2.9-22a3.6,3.6,0,0,0-.73-1.67,3.83,3.83,0,0,0-1.11-.28,13.54,13.54,0,0,0-2.67.27c-13.29,3.17-33.85,5.79-50.07,7.43,0,0-1.27.19-3.47.29l-1.75.05a77.36,77.36,0,0,1-12.94-1S87,148.46,87.26,148.46L90.5,144l58.28,9.57c8.88,1.33,13,.69,13.12.67,15.7-.87,44.73-5.18,51.75-7,0,0,3.8-.9,4.28-1.38.31-.31-.47-3.17-.47-3.17s-2.88-9.39-4.3-13l0,.07c0-.14-.65-2.14-1.3-2.44h-.48s-.84.16-1.86.39c-13.68,2.49-38.68,6-53.37,6.87,1.27-.07-5.94.26-11.55-.13-8-.45-16.84-2.43-25.65-12-.09-.09-9.84-9.39-13.77-13.69a2.67,2.67,0,0,1,.57-3.73,2.23,2.23,0,0,1,3,.1c1.73,2.31,11.58,12.49,16.45,17.05,5.4,4.21,9.29,6.41,16.83,7.26a84.93,84.93,0,0,0,9.14.43c9.94.25,46.15-4.18,56.8-6.28a10.52,10.52,0,0,0,2.16-.5l0-.21.06-.45a2.81,2.81,0,0,1,1.14-.88,3.17,3.17,0,0,1,3.37.44c7.59,14,15.1,40,13.36,59.64a2.68,2.68,0,0,1-1.32,2.29,4.34,4.34,0,0,1-3.49-.12M205,155.4c1-.18,5.09-1.09,5.09-1.09a47.25,47.25,0,0,0,11.28,11.2c.18,1.63.33,5.79.33,5.79C210.74,166,205,155.4,205,155.4m6.62-1.51c2.24-.45,4.34-.9,6.26-1.36a.83.83,0,0,1,.75.06,1.71,1.71,0,0,1,.5,1.11v.08l0,.07a67.35,67.35,0,0,1,1.69,9.32,41.09,41.09,0,0,1-9.23-9.28m10.15,19.06c.13,1.87.19,3.08.19,3.11a2.44,2.44,0,0,1-1,2.21c-19.94,5.4-43.65,2.66-54.33-14.77-.38-.61-.74-1.24-1.09-1.89l-.51-1c.84-.09,1.32-.17,1.32-.17l2.73-.29c10.69-1.15,23.43-2.84,34.44-4.73,4.86,8.74,11.51,14.44,18.27,17.55m7.69,10.19a26.46,26.46,0,0,0,.36-5.15c16-3.43.81-4.87.81-4.87,3.53,1.09,3.43,2.34,3.43,2.34a16.75,16.75,0,0,1-4.24-.72c.09-1-.18-5.06-.18-5.06,4.15,1.8,4.81,1.29,9.11,2.25s2.25,2.81,2.25,2.81c-2.25,2.8-10.55,4-10.55,4,13.9-1.81,12.63-5.6,12.63-5.6,5.68,3.7.09,6.32-2.79,7.13-2.56.73-10.84,2.9-10.84,2.9"/><path class="cls-3" d="M102.93,138.9a9.16,9.16,0,0,0,.51,1.11h0a4,4,0,0,0,1.38,1.42c4.19,2.49,6.49-.68,6.51-.71s1.92-2.52-.86-5.24a5.52,5.52,0,0,0-4.09-1.3,4.75,4.75,0,0,0-4.92-3.53h0c-2.78.19-3.43,1.69-3.74,2.56a4.33,4.33,0,0,0,.34,3.55,4.55,4.55,0,0,0,4.91,2.14m3.67-4c3.13-.09,5.57,3,4,5.33l-.57.1c-2.73.35-4.26-.73-4.72-3.16a3.63,3.63,0,0,0,1.29-2.26m-3.65-3.34a3.49,3.49,0,0,1,2.6,3.25l.18,0c-.13,1-1.2,2.4-3.38,2.07a6.87,6.87,0,0,1-.15-1.37,3.21,3.21,0,0,0,1.19.17,4.71,4.71,0,0,1,0-.63,3.67,3.67,0,0,1-1.24-.36,7.07,7.07,0,0,1,.76-3.14m-3.62.67a2.88,2.88,0,0,1,2.3-.8,6,6,0,0,0-.67,2.77c-.22-.18-.39-.18-.6-.41v.76c.13.24.35.32.63.51a6.2,6.2,0,0,0,.16,1.6c-.14,0-.22-.17-.37-.24-2.17-1.21-1.45-4.19-1.45-4.19m-.8,1c-.36,4.51,3.76,5.17,6.07,4.32.5,3.65,3.68,3.74,5.22,3.5a4.33,4.33,0,0,1-6.32-3c-2.91.88-6.21-1.46-5-4.78"/><path class="cls-2" d="M176.36,53.17a5.31,5.31,0,0,1-2.11-4.24c2.16,0,2.78,3.16,2.11,4.24"/><path class="cls-2" d="M178.59,59a5.66,5.66,0,0,1-1.75-4,2.7,2.7,0,0,1,1.75,4"/><path class="cls-2" d="M169.4,54.84s1.36,4.24,3.08,8.49c4.5-1.18,7.73,7.13-.21,7.74.77,3.31,8.24,1.93,5.35-5.57C177,64,172,53.62,171.09,51a5.19,5.19,0,0,1-.6-2.51,1.7,1.7,0,0,1,.07-.61s-.13.06-.13.06l-1.62.85c-1.17,1.4.59,6,.59,6"/><path class="cls-2" d="M166.06,50.14s-.69,1.42.27,4.35c1.27,3.83,3.28,9.39,3.28,9.39l1.62-.3-3.09-8.64s-1.27-3.33-.6-5.49Z"/><path class="cls-2" d="M185,70.37c-1.93,0-5.72,0-5.72,0-.08,1.18-1.71,2.29-1.71,2.29,6,.42,7.43-2.26,7.43-2.26"/><path class="cls-2" d="M109.6,104.3l2.25,2.48L120.23,93c1.39-2.18,3.88-5.28,3.7-5.11,0,0-1-2.57-1.55-3.59a5.16,5.16,0,0,1-.54-2.47,65.89,65.89,0,0,0-4.38,5.82c-1.36,2-5.35,8.35-9.73,15.45.9,0,1.86,1.16,1.86,1.16"/><path class="cls-2" d="M223.43,119.48s-7.18.72-9.6.55a3.49,3.49,0,0,1,1.92.8,66.57,66.57,0,0,0,7.68-1.35"/><path class="cls-2" d="M213.84,120h0"/><path class="cls-2" d="M216.24,142.66s-4.36.06-10.41,0l1.81,4.16,6.83-1.34s2.49-.1,1.77-2.78"/><path class="cls-2" d="M199.48,130.83s-4,.66-4.75.75c0,0,6,14.7,7,16.5a39.57,39.57,0,0,0,4.77-.93,166.12,166.12,0,0,1-7-16.32"/><path class="cls-2" d="M210,154.31s-4.09.91-5.09,1.09c0,0,5.78,10.56,16.69,15.89,0,0-.15-4.15-.32-5.78A47.26,47.26,0,0,1,210,154.31"/><path class="cls-2" d="M243,173.1s1.27,3.79-12.63,5.6c0,0,8.3-1.17,10.55-4,0,0,2.16-1.81-2.25-2.81s-5-.45-9.11-2.26c0,0,.26,4.07.18,5.06a16.7,16.7,0,0,0,4.24.72s.09-1.26-3.43-2.35c0,0,15.17,1.45-.81,4.87a26.56,26.56,0,0,1-.37,5.15s8.28-2.18,10.84-2.9c2.88-.81,8.48-3.43,2.79-7.13"/><path class="cls-2" d="M146.87,135.85c4.58,10,6.37,14.21,8,17.28a22.27,22.27,0,0,0,5.45-.12l-8-17.13a24,24,0,0,1-5.47,0"/><path class="cls-2" d="M143.79,128a25.83,25.83,0,0,0,5.42.36l-22-48.71a2.73,2.73,0,0,0-1.14-.23A3.37,3.37,0,0,0,123.44,81a2.28,2.28,0,0,0,0,2.41L143.79,128"/><path class="cls-2" d="M228,181.65C229.77,162,222.27,136,214.67,122a3.17,3.17,0,0,0-3.37-.44,2.8,2.8,0,0,0-1.14.88l-.06.45,0,.21a9.77,9.77,0,0,1-2.16.49c-10.65,2.11-46.86,6.53-56.8,6.28a83.81,83.81,0,0,1-9.14-.43c-7.54-.85-11.43-3.05-16.83-7.26-4.87-4.56-14.72-14.74-16.45-17.05a2.23,2.23,0,0,0-3-.1,2.67,2.67,0,0,0-.57,3.73c3.93,4.31,13.68,13.6,13.77,13.69,8.81,9.57,17.67,11.55,25.65,12,5.61.39,12.82.05,11.55.13,14.69-.89,39.68-4.38,53.37-6.87,1-.23,1.86-.4,1.86-.4h.48c.65.3,1.27,2.29,1.3,2.44l0-.08c1.43,3.59,4.27,12.89,4.3,13s.78,2.85.47,3.16c-.48.48-4.28,1.38-4.28,1.38-7,1.88-36.05,6.18-51.75,7.05-.11,0-4.24.66-13.12-.67L90.5,144l-3.24,4.44c-.25,0,60.28,9.86,60.28,9.86a76.94,76.94,0,0,0,12.94,1l1.76,0c2.19-.09,3.44-.29,3.47-.29,16.23-1.64,36.78-4.27,50.07-7.43a13,13,0,0,1,2.67-.28,3.73,3.73,0,0,1,1.11.29,3.57,3.57,0,0,1,.73,1.67c2.37,8.55,2.87,21.42,2.9,22a13.15,13.15,0,0,1-.4,3.7,6.39,6.39,0,0,1-2.52.93c-21.55,5.51-46.69,1.63-56.45-19.27-2.11.18-5.32.11-5.32.11a14.54,14.54,0,0,0,1,2.24c6.29,13.91,17.6,19.46,27.18,22,10.55,2.79,23.07,2.61,34.75-.39,1.9-.63,1.83-.78,1.83-.78a4.34,4.34,0,0,0,3.49.12,2.69,2.69,0,0,0,1.31-2.29"/><path class="cls-2" d="M91.63,134.38l0,0,0,0,10,6.1,1.16.7h0l3.21,2c2.36,1.57,5.19.31,6.67-1.68,1.3-1.76,1.81-4.28-.86-6.81a10.21,10.21,0,0,0-2.76-1.89c-2.14-1.19-9.57-5.69-13.11-7.9a5.24,5.24,0,0,1-1.85-1.8c-.45.79-1.47,2.48-3.58,5.44a4.23,4.23,0,0,0-1,3.51,4.08,4.08,0,0,0,2.08,2.3m6-1.17c.32-.87,1-2.37,3.74-2.56h.05a4.76,4.76,0,0,1,4.92,3.53,5.54,5.54,0,0,1,4.08,1.3c2.78,2.73.88,5.22.86,5.25s-2.33,3.19-6.51.71a3.89,3.89,0,0,1-1.38-1.43h0a8.83,8.83,0,0,1-.51-1.1A4.56,4.56,0,0,1,98,136.76a4.34,4.34,0,0,1-.34-3.55"/><path class="cls-2" d="M114.37,130.11c-2.08-1.58-6.89-4.73-10.55-7.09l-.86.83s8.12,5.4,10.2,6.8c2.38,1.61,3.31,3.65,2.93,5.69,0,0,2-3.4-1.71-6.23"/><path class="cls-2" d="M96.59,124c3.5,2.19,14.92,8.92,14.92,8.92s3.08,2,3.22,4.44c.93-2.65-.64-4.61-2.23-5.76l-10.63-7.11c-2,.54-6.18-1.66-6-4.4-1.06.91-1.26,2.65.75,3.91"/><path class="cls-2" d="M105.31,137.14c.46,2.43,2,3.51,4.72,3.16l.57-.1c1.57-2.3-.87-5.42-4-5.33a3.63,3.63,0,0,1-1.29,2.26"/><path class="cls-2" d="M103.5,138a4.33,4.33,0,0,0,6.32,3c-1.54.25-4.72.15-5.22-3.51-2.31.85-6.43.2-6.07-4.31-1.23,3.33,2.06,5.67,5,4.78"/><path class="cls-2" d="M227.19,119.94a103.87,103.87,0,0,1-10.34,2.25c1.13,2.19,1.4,3.07,1.79,3.93a33.54,33.54,0,0,0,3.38-.59c3-.55,5.92-1.25,7.4-1.71l.59-.13a2.09,2.09,0,0,0,1.78-2.2,2.21,2.21,0,0,0-2-2,20.94,20.94,0,0,0-2.6.48"/><path class="cls-2" d="M233.69,140.31c-2.35.55-9.38,1.9-9.38,1.9l.45,1.26c1.9-.19,10.11-2.26,10.11-2.26,1.56,0,1.62,1,1.62,1-3.15,1.18-11.25,2.87-11.25,2.87.36,1.53,1.14,4.51,1.14,4.51,9.57-1.71,11.64-2.77,11.64-2.77,2.8-1.17,1.72-4.45,1.72-4.45-1.09-3.79-6.05-2.08-6.05-2.08"/><path class="cls-2" d="M231.4,124.87a96.42,96.42,0,0,1,4.12,13.63c7-.05,7.34,8.32,3.25,9.64,0,0,2.65,13.36,3.37,20.71a23.93,23.93,0,0,1,0,2.47c2.88.6,4.57,2.62,4.57,3.71,1.41-8.43-3.51-32.82-9.86-50.62-1.75-6.56-5.54-5.75-5.54-5.75,2.08.63,3.86,4.13.06,6.2"/><path class="cls-2" d="M208.72,121.82a1.61,1.61,0,0,1,1.44-1.44,62.24,62.24,0,0,1-13.74-.45l1.54,3.53s7.51-.82,10.76-1.63"/><path class="cls-2" d="M85.56,147.71s5.71-8.49,7.3-10.85c0,0-3.81-2.29-4.28-3.2L81,145.24a1.54,1.54,0,0,0-.19,1.65,3.48,3.48,0,0,0,2.78,1.71,2.05,2.05,0,0,0,2-.89"/><path class="cls-2" d="M128.64,79.46c.38.67,1.44,3,1.44,3a24.16,24.16,0,0,1,7.16-3.73c10.87-4.42,23.88-7,35.36-9.31l.87-.18c1.88-.3,2.37-1.44,2.23-2.42a2.6,2.6,0,0,0-3-1.94c-14.34,2.31-30.93,6.59-38.93,9.95A36.88,36.88,0,0,0,127.45,78c.51.28.59.39,1.19,1.46"/><path class="cls-2" d="M101.8,122.85l5.81-9.21a31.77,31.77,0,0,1-3.75-4.07c-4.78,7.75-6,9.85-6.13,10l0,0,0,0c-.68.81.45,2,.68,2.2,1,1,2.66,1.62,3.45,1"/><path class="cls-2" d="M187.09,68.32c2.26.21,6.69.64,8.38,1,1.87,0,2.19-1.24,2.25-1.78.09-1-.47-2.24-1.42-2.38h-.06l-.06,0a96.59,96.59,0,0,0-10.25-1.43,14.94,14.94,0,0,1,1.16,4.6"/><path class="cls-2" d="M199.58,63.84l-9.66-17.44-3.74,1.74,6.76,15.05.76.09A18.36,18.36,0,0,1,197,64c2.85.82,3.34,7.22-2.07,6.68-.87-.11-1.72-.21-2.41-.29h0A31.29,31.29,0,0,0,189,70l-.3,0c1.38,5.38,1,12.62-6.28,14.24,3.75-1.64.47-2.77.28-2.86-7.83-1.79-20.84.61-22.27-.37,8.36-.81,9-5,8.31-9.29l-1.29.27c.81,4.53-1.09,6.22-3.6,7.15a22.38,22.38,0,0,1-6.71,1.32l-2.49-.09c1.08-.36,3.21-.45,5.83-1,4-.83,6.36-2.6,6.07-7.21l-1.55.32a6.26,6.26,0,0,1-.57,3.29c-.81,1.47-3.63,2-5.1,2.27l-2.16.3c-8.67,1.11-12,2.72-17.5,5.67,0,0-.68.43-1,.66a33.39,33.39,0,0,0-6,4.61l.77,1.69a34.76,34.76,0,0,1,3.27-2.86,24.18,24.18,0,0,1,5.5-3.5,42.12,42.12,0,0,0-8.46,7.05l12.75,28.14c-1.06-7.85,14-13.82,19.52-.77a59,59,0,0,1,2.74,8.16l3.33-.34q-.54-2.2-1.23-4.39a56.64,56.64,0,0,1-1.37-12.92c0-.25,0-.49,0-.73,2.27,2.65,10.44,11.49,20.19,14.33l-2.43-6a43.11,43.11,0,0,1-17.13-15.42c.1-.55.19-1,.25-1.24a25.64,25.64,0,0,1,4.69-11l.46-.54a6.53,6.53,0,0,1,.78-.94l15.48,36.29s2.58-.18,4.93-.6l-16-37.85c.25,0,.52-.06.8-.08l.36,0h0l.53,0a9.06,9.06,0,0,0,7-4.88,13.76,13.76,0,0,0,1.18-7.48,4.36,4.36,0,0,1,.62-.7,5.46,5.46,0,0,1,1.26-.83c4.1,2.14,11.54-.79,7-7.91m-32.07,49.7c-4.28-4.73-2.18-23.69,5.39-24.6-5.29,3.85-7,17.34-5.39,24.6"/><path class="cls-2" d="M103.38,135.68a3,3,0,0,1-1.18-.17,6.52,6.52,0,0,0,.15,1.37c2.18.34,3.26-1.05,3.38-2.07l-.18,0a3.48,3.48,0,0,0-2.6-3.25,7.18,7.18,0,0,0-.76,3.14,3.73,3.73,0,0,0,1.24.37,5.17,5.17,0,0,0,0,.63"/><path class="cls-2" d="M100.78,136.4c.15.07.23.19.37.24A6.29,6.29,0,0,1,101,135c-.28-.19-.49-.26-.63-.5v-.76c.21.24.38.24.6.41a6,6,0,0,1,.67-2.77,2.88,2.88,0,0,0-2.3.8s-.72,3,1.45,4.19"/><path class="cls-1" d="M159.64,54.85a12.78,12.78,0,0,1-.69-2.17,6.31,6.31,0,0,1-.08-2.53A3.45,3.45,0,0,1,159.3,49a2.7,2.7,0,0,1,.21-.23,2.56,2.56,0,0,1,.52-.48,2.73,2.73,0,0,1,.32-.23,87.42,87.42,0,0,0-24-25.85A91.46,91.46,0,0,0,106,7.89l-.39-.11-.25-.06A91.9,91.9,0,0,0,67.12,6.35C47.71,12.57,30.22,24.5,18.21,41.2c-.1.14-.2.27-.29.41l-.13.19C3.36,62.19-2.94,89.57,5.23,122.27c6.25,22.76,13.56,34.83,21.5,46.15,0,0-.36,5.49,9.11,2.63a43.35,43.35,0,0,1,5.92-1.43c5.51-.84,10.13.3,16.85,5.32.4.3.81.59,1.24.88,15.78,11,41.71,15.81,58.58,7a29.08,29.08,0,0,0,10.87-9.57,2.25,2.25,0,0,1,.12-.23,20.77,20.77,0,0,0,2.73-5.36,27.33,27.33,0,0,0,1.43-10.21l-3.32-.55c-.74,14.16-14.78,27.8-39.89,26.23-10.47-.39-21.65-5.48-28.31-9.11C59,172,50.34,167.11,46.2,166.2c3.6.19,12.62,4.91,16.4,7.1,7.75,4,18.57,7.83,27.77,8.21,16.76,1.57,35.79-7,37.82-25L85.82,149.5a3.67,3.67,0,0,1-2.4.64,4.89,4.89,0,0,1-4-2.54,3,3,0,0,1,.31-3.09l8-11.88L88,132a4.72,4.72,0,0,1,.88-3.79A82.82,82.82,0,0,0,94,119.93a3.86,3.86,0,0,1,3-1.83c.84-1.35,2.87-4.6,6.32-10.19a4.25,4.25,0,0,1,1.58-4,3.82,3.82,0,0,1,1.06-.59c4.26-6.9,9-14.45,10.36-16.43,1.52-2.09,2.71-3.48,4.08-5A20.24,20.24,0,0,1,122.45,80,5.05,5.05,0,0,1,125,78.2a.51.51,0,0,1,.2-.27,32.87,32.87,0,0,1,8.28-4.56c6.47-2.71,18-5.83,29.76-8.19-.82-2.39-3.44-9.91-3.44-9.91s-.09-.2-.18-.42m-53.28,99a5,5,0,0,1,1.95,9.57,3.21,3.21,0,0,1-5.29-.89,5,5,0,0,1,3.34-8.68M67.1,169.64a3.67,3.67,0,0,1-2.69.74c-1.12.7-2.86.31-4.1-1a3.58,3.58,0,0,1-.93-3.91,4.59,4.59,0,0,1,1.55-4.4c1.89-1.33,4.75-.51,6.4,1.82s1.57,5.26-.23,6.75m24.57-13.41C83.31,165.09,66.74,165,57.32,153c15.93,14.79,30.8,5,34.35,3.28M76.56,145.72a9.86,9.86,0,0,1-3.2.49A11.8,11.8,0,0,1,65,142.44c-4.44-4.65-4.73-11.81-.64-16a9.65,9.65,0,0,1,7-2.87,11.81,11.81,0,0,1,8.37,3.76,12.62,12.62,0,0,1,3.52,8.43Z"/><path class="cls-2" d="M185.11,48.61l-1.45.57a1.67,1.67,0,0,0-1.35-.91,5.39,5.39,0,0,0-.62-.09C129.08-45.83-33,6.28,6,130.7a137.31,137.31,0,0,0,9.35,22.52,12.63,12.63,0,0,0,0,6c1.06,4,1.95,6.43,5.15,13.5-1.29,4.77,3.17,11.81,14,9.72,12.9-2,19.65-6.67,21.2-7.87.44.31.88.62,1.31.94,22.87,17.85,60.28,19.27,74.09-1.86a43.68,43.68,0,0,0,12.39.21c7.15-.47,12.91-2.39,17.42-5.37-.55-.88-1.08-1.79-1.57-2.74-5.76,3.91-14.1,6-25.79,5l-.75-.1a34.81,34.81,0,0,0,3.49-12.84l-2.68-.45a27.35,27.35,0,0,1-1.43,10.21,20.67,20.67,0,0,1-2.73,5.36,2.22,2.22,0,0,0-.12.23,29.09,29.09,0,0,1-10.86,9.57c-16.87,8.8-42.8,4-58.58-7-.42-.29-.84-.59-1.24-.88-6.72-5-11.34-6.15-16.85-5.31A42,42,0,0,0,35.84,171c-9.48,2.87-9.11-2.63-9.11-2.63C18.79,157.11,11.48,145,5.23,122.27-2.94,89.57,3.36,62.18,17.78,41.79l.13-.19.3-.42c12-16.69,29.51-28.62,48.91-34.85a91.85,91.85,0,0,1,38.24,1.38l.25.06.39.11a91.46,91.46,0,0,1,30.31,14.32,87.4,87.4,0,0,1,24,25.85,3,3,0,0,0-.33.22,2.8,2.8,0,0,0-.52.48,2.24,2.24,0,0,0-.2.23,3.32,3.32,0,0,0-.45,1.15,6.28,6.28,0,0,0,.08,2.52,13.16,13.16,0,0,0,.69,2.17l.18.42s2.62,7.52,3.44,9.91h0l1.57-.31-3.88-10.76c-1.54-3.64.18-5,.18-5a6.47,6.47,0,0,0,.18,3.73c.5,1.59,2.2,6.25,3.62,9.85.27.71.52,1.38.74,2l1.27-.25c-1.2-3.62-2.85-7.86-3.36-9.28-.43-1.18-.62-1.62-1.17-3.52-.74-2.57.27-2.61,1.35-2.71.63-.05,2.49,0,3,0,1.12-.61,3.51-1.8,5-2.52C154.39,17.22,119.73-2.32,74.3,4.33c35.85-8.73,76.55,1.59,101,36.51a69.8,69.8,0,0,1,4.38,7.28h-.87a5.17,5.17,0,0,0-4.44-2.57c-.09,0-3.35,0-2.92,3.31a11,11,0,0,0,.81,2.83h0l2.43,5.12.64,1.35,2.35,4.73s1.74,3.46,1.84,5.31l6.3.13a14.45,14.45,0,0,0-1.26-5.37c-1-2.47-3.9-11.54-4.87-13.34a.26.26,0,0,1,0-.09,12.79,12.79,0,0,1,2.26.18c1.24,3.16,3,8.56,4.41,12.81,0,0,1.59.08,1.58.05.54,0,2.7.23,3.48.39ZM54.46,173.8l-.87.63c-3.81,2.73-12.73,6.06-20.67,6.81-8.06,1.3-12.56-4.36-11-8.68l-.44-1.09c-.43-1-5.6-11.58-5-16.15,4.27,7.82,8,12.81,9.18,14a5.31,5.31,0,0,0,.13.54c-.09,1.13.15,4.52,6.77,3.28-2,3.87-9.52,1.73-8.06-3.4-1.09-1.36-3.74-5.66-3.74-5.66s.13,1.28.11,1.19c.89,1.86,2.44,5.07,2.44,5.07-1.19,7.52,9.63,8.1,10.4,2.57l.06,0c.57-.11.57,0,1-.22a5.55,5.55,0,0,1-2.83,4.15c-2.32,1.17-3,3.23.53,3a48.46,48.46,0,0,0,17.43-4.91l1.58-.86a18.38,18.38,0,0,0-8.79-2.5,29.67,29.67,0,0,0-6.71.78c.12-.05.25-.07.38-.12,8.61-2.84,13.9-1.06,18.18,1.67M180.67,57.54c.56,2.51-1.25,3.86-3,1.79a6.71,6.71,0,0,1-1.43-2.69l0-.15A7.07,7.07,0,0,1,176,54.1a8.17,8.17,0,0,1-1.22-1.36,3.64,3.64,0,0,1-.25-.31,5.84,5.84,0,0,1-.85-1.72l-.09-.35a.41.41,0,0,1,0-.08,7.7,7.7,0,0,1-.1-1.12,2.53,2.53,0,0,1,.28-1.31h0a.65.65,0,0,1,.16-.2s0,0,0,0l.1-.07a1.51,1.51,0,0,1,1.06-.14c1.57.21,3.38,2.47,3.38,5.69,0,.14,0,.26,0,.39a7.19,7.19,0,0,1,2.16,4.08"/><path class="cls-3" d="M180.67,57.54a7.22,7.22,0,0,0-2.16-4.08c0-.14,0-.26,0-.39,0-3.22-1.81-5.48-3.38-5.69a1.51,1.51,0,0,0-1.06.15l-.1.07s0,0,0,0a.57.57,0,0,0-.16.2h0a2.52,2.52,0,0,0-.28,1.31,7.6,7.6,0,0,0,.1,1.12.55.55,0,0,0,0,.07l.09.35a5.87,5.87,0,0,0,.85,1.73,3.81,3.81,0,0,0,.25.3A8,8,0,0,0,176,54.09a7.23,7.23,0,0,0,.15,2.4l0,.16a6.66,6.66,0,0,0,1.43,2.68c1.79,2.08,3.6.72,3-1.78m-4.3-4.38a5.29,5.29,0,0,1-2.11-4.23c2.16,0,2.78,3.16,2.11,4.23M178.59,59a5.66,5.66,0,0,1-1.75-4,2.7,2.7,0,0,1,1.75,4"/></g></svg>