<svg id="Layer_1" data-name="Layer 1" xmlns="http://www.w3.org/2000/svg" viewBox="0 0 248.98 235.36"><defs><style>.cls-1{fill:#fff;}.cls-2{fill:#002a5c;}</style></defs><title>DAL</title><g id="DAL"><polygon class="cls-1" points="248.98 89.96 154.57 89.96 124.49 0 94.41 89.96 0 89.96 77.36 145.35 47.66 235.36 124.49 180.46 201.33 235.25 171.62 145.35 248.98 89.96"/><polygon class="cls-2" points="124.49 10.71 96.83 93.32 10.45 93.32 81.31 144.06 54.06 226.66 124.51 176.34 194.93 226.66 167.66 144.06 238.53 93.32 152.15 93.32 124.49 10.71"/><polygon class="cls-1" points="124.49 33.48 102.25 100.39 32.28 100.39 89.68 141.49 67.6 208.4 124.66 167.64 181.37 208.4 159.3 141.49 216.71 100.39 146.73 100.39 124.49 33.48"/><polygon class="cls-2" points="124.49 53.15 107.01 106.01 51.74 106.01 97.08 138.48 79.64 191.34 124.72 159.15 169.34 191.34 151.9 138.49 197.24 106.01 141.97 106.01 124.49 53.15"/></g></svg>