<svg id="Layer_1" data-name="Layer 1" xmlns="http://www.w3.org/2000/svg" viewBox="0 0 248.98 235.36"><defs><style>.cls-1{fill:#fcd8c8;}.cls-2{fill:#f26522;}</style></defs><title>DB</title><circle class="cls-1" cx="94.78" cy="96.65" r="12.09"/><circle class="cls-1" cx="17.17" cy="96.65" r="12.09"/><circle class="cls-1" cx="120.85" cy="96.65" r="12.09"/><circle class="cls-1" cx="146.93" cy="96.65" r="12.09"/><circle class="cls-1" cx="146.93" cy="128.88" r="12.09"/><circle class="cls-1" cx="146.93" cy="170.22" r="12.09"/><circle class="cls-1" cx="146.93" cy="213.48" r="12.09"/><circle class="cls-1" cx="173.01" cy="96.65" r="12.09"/><circle class="cls-1" cx="199.09" cy="96.65" r="12.09"/><circle class="cls-1" cx="227.72" cy="108.73" r="12.09"/><polygon points="212.01 72.52 202.09 63.02 211.59 53.11 208.43 50.08 198.94 60 189.02 50.5 185.99 53.66 195.91 63.16 186.41 73.08 189.57 76.1 199.07 66.18 208.99 75.68 212.01 72.52"/><polygon points="177.93 72.52 168.01 63.02 177.51 53.11 174.35 50.08 164.85 60 154.94 50.5 151.91 53.66 161.83 63.16 152.33 73.08 155.49 76.1 164.99 66.18 174.9 75.68 177.93 72.52"/><polygon points="143.84 72.52 133.93 63.02 143.42 53.11 140.27 50.08 130.77 60 120.85 50.5 117.83 53.66 127.75 63.16 118.25 73.08 121.41 76.1 130.9 66.18 140.82 75.68 143.84 72.52"/><polygon points="161.08 35.31 151.17 25.82 160.66 15.9 157.51 12.87 148.01 22.79 138.09 13.29 135.07 16.45 144.99 25.95 135.49 35.87 138.65 38.89 148.14 28.97 158.06 38.47 161.08 35.31"/><polygon points="63.75 35.31 53.83 25.82 63.33 15.9 60.17 12.87 50.68 22.79 40.76 13.29 37.73 16.45 47.65 25.95 38.16 35.87 41.31 38.89 50.81 28.97 60.73 38.47 63.75 35.31"/><polygon class="cls-2" points="29.25 77.2 19.33 67.7 28.82 57.78 25.67 54.76 16.17 64.68 6.25 55.18 3.23 58.34 13.15 67.83 3.65 77.75 6.81 80.77 16.3 70.86 26.22 80.35 29.25 77.2"/><polygon points="109.76 72.52 99.84 63.02 109.34 53.11 106.19 50.08 96.69 60 86.77 50.5 83.75 53.66 93.66 63.16 84.17 73.08 87.32 76.1 96.82 66.18 106.74 75.68 109.76 72.52"/></svg>