<svg id="Layer_1" data-name="Layer 1" xmlns="http://www.w3.org/2000/svg" viewBox="0 0 247.33 145.01"><defs><style>.cls-1{fill:#001f53;}.cls-2{fill:#f15623;}.cls-3{fill:#fff;}</style></defs><title>DEN</title><g id="DEN"><path class="cls-1" d="M125.29,143.5a2.05,2.05,0,0,1-.35,1,1.77,1.77,0,0,1-1,.46,1.94,1.94,0,0,1-1.62-.35,1.55,1.55,0,0,1-.65-1.08h0v0h0l-4.33-14.1c-2.43-7.23-6.09-15-13.21-21.85-8.59-8.29-21.26-14-38.73-17.52C50.2,87,40.17,84.37,32.93,81.55A48.94,48.94,0,0,1,17.85,72.6C7.61,63.93.46,52.86,0,38.93c0,0,10.19,14.4,21.4,7.53,5.3-3.25,9.1-2.79,9.1-2.79a26.28,26.28,0,0,1-6.67-14.17,39.85,39.85,0,0,1,1-14.25A37.68,37.68,0,0,1,33.2,0s-2.42,21,7.62,28.44a19.4,19.4,0,0,0,12.54,2.08S45,26.66,43.86,14.27a38.58,38.58,0,0,1,.51-10.83s11,15.54,22,9.16C68.86,11.18,81.87,4.45,87.48,3a48.94,48.94,0,0,1,24.22-.46,54.43,54.43,0,0,1,18.89,8.85,80.93,80.93,0,0,1,20.18,21.58s21.61-1,33.44,14.16l0,0,27.35,12.07-3.1,2-.13.09.14.09C217.34,67,232.83,77,237,80.55h0l7.84,3.73-1.43,3.79h0c-.09.26-2.22,6.34,1.79,9.35l2,1.51,0,0,0,0-6.16,16.32-1.56-2.1c-8.59-11.84-16.71-14-20.8-14.11-4.62-.1-4.94,2.36-4.37,3.42,1.86,3.43,12.21,5.21,16,5.6l2.61.34-10,8.94L205,116.3H205v-.07l.3-3.55h0c-.09-.67-1.31-6.74-16.1-12.82h0l0,0a39.36,39.36,0,0,1-14,3.5,32.64,32.64,0,0,1-21-6.11l0,0H154a52.91,52.91,0,0,0-12.55,6.26c-9.29,6.38-14.36,14.73-15.06,24.82,0,0-.81,8.31-1.07,15.21"/><path class="cls-2" d="M66.34,32.35c-13,4-22.15,3.93-28.09-.14-5.06-3.47-8.12-9.63-8.4-20.13-3.9,12.17-2,21.82,3.63,28.29,4.49,5.14,12.14,8.54,20.46,9.1A167.71,167.71,0,0,1,104.76,35C100.1,27.12,86.48,26.16,66.34,32.35Z"/><path class="cls-2" d="M128.92,15.87a50.87,50.87,0,0,0-17.64-8.73,43.86,43.86,0,0,0-22.63.22c-5,1.34-16.23,6.87-20.45,9C57.13,22.16,50,14.73,47.26,11.93l-.12-.12a30.4,30.4,0,0,0,2,7.12,15.62,15.62,0,0,0,6.59,7.72c5.09,2.84,12.17,2.44,21-1.2,9.88-4.05,18.17-5.29,24.64-3.68,5.83,1.45,11.19,6.09,14.35,12.43a144.07,144.07,0,0,1,31.91,2.26A80,80,0,0,0,128.92,15.87Z"/><path class="cls-3" d="M238.31,91.84a17.42,17.42,0,0,1,.89-5.27l-4.66-2.18h0v0c-2.88-3.12-34.07-22.73-34.38-22.93l-.12-.07.12-.07,2.3-1.54-21.13-9h0l0,0c-8.58-12.83-25.49-13.34-28.73-13.32,6.44,2,8.41,3.95,8.9,5.25a1.67,1.67,0,0,1,0,1.44l0,.06-.06,0C88.39,24.31,28.73,70,26.23,72c2.86,2.89,9.3,6.78,32.43,11.92,5.16-4,29.77-21.53,66.91-20.5l-6-9.1s23,6,36.14,13.28a20.7,20.7,0,0,0,34,17.86L206.2,96l-15.83-6.15a26.94,26.94,0,0,1-42.62-19.27c-35.64-9-61.92,13.59-67.17,18.55A90.5,90.5,0,0,1,92.29,93.7a63.92,63.92,0,0,1,11.65,7.11c2.64-3.22,13.16-14.28,33.34-14.45,0,0-19.81,5.13-26.13,21.27,5.61,6.5,8.5,13.37,10.72,19.93a34.71,34.71,0,0,1,5.95-17,42.13,42.13,0,0,1,11.26-11,55.5,55.5,0,0,1,15.78-7.37h0l0,0C171,105.15,188.67,95,188.85,94.85l0,0h0a58.17,58.17,0,0,1,12.4,6.29,25.53,25.53,0,0,1,6.16,5.78c2.26,3.11,2.33,5.35,2.31,5.82l12,.79,3.51-3c-10.88-1.41-14.18-4.79-14.85-7.69-1.17-7,6-7.85,9.22-7.43,7.58,1,16.8,7.78,20.27,12.51l2.57-6.9A11,11,0,0,1,238.31,91.84Z"/><path class="cls-2" d="M6.69,50.08s4.68,24.16,39.41,4.2c-9.61-3-11.58-9.55-23.08-3.65C12.77,55.87,6.69,50.08,6.69,50.08Z"/><path class="cls-1" d="M196.09,63.77a2.71,2.71,0,1,1-4.54-2.38c-8-3.93-12.19-4.53-12.19-4.53,9.7,6.44,13.84,11.81,13.84,11.81l2.62-1.79,24.52,13.68A167.17,167.17,0,0,0,196.09,63.77Z"/><path class="cls-2" d="M190.7,63.16a2.71,2.71,0,0,0,5.39.61l-1.14-.62-2.68,2,.74-3-1.47-.74A2.73,2.73,0,0,0,190.7,63.16Z"/><path class="cls-1" d="M192.27,65.12l2.68-2c-.66-.36-1.31-.7-1.93-1Z"/><path class="cls-1" d="M234.86,87.14c-5.77,2.31,1.66,8.93,1.66,8.93C220.35,83.3,234.86,87.14,234.86,87.14Z"/><path class="cls-1" d="M164.49,45.44c10.46.21.08-4.22.08-4.22a18.65,18.65,0,0,1,11.91,8.14A108.11,108.11,0,0,0,164.49,45.44Z"/></g></svg>