<svg id="Layer_1" data-name="Layer 1" xmlns="http://www.w3.org/2000/svg" viewBox="0 0 249.33 189.94"><defs><style>.cls-1{fill:#fff;}.cls-2{fill:#006db0;}</style></defs><title>DET</title><g id="DET"><path d="M221.16,60.19s3.11-2.68,6.38-2.62,5.53,1.15,6.75,2.46a15.17,15.17,0,0,1,5.43.43c2.82.77,6.81,3.1,8.36,5.81A8.72,8.72,0,0,1,248.2,75a6.61,6.61,0,0,1-.78,4.5,10.58,10.58,0,0,1-3.49,3.78,11,11,0,0,1-5.36,5.4c-3.87,1.72-9-.22-9-.22a32.2,32.2,0,0,1-5.07.56,18.83,18.83,0,0,1-6.18-1.39s-2.6,3.81-3.32,4.72a24.54,24.54,0,0,0,7.42,4.3c3.88,1.22,6.92,1.77,8.69,3a8.5,8.5,0,0,1,2.44,2.52,16,16,0,0,1,5.31.19,14.37,14.37,0,0,1,7.64,5.37c2,2.71,3.21,6.2,2.38,9.52a7.57,7.57,0,0,1-2.73,4.53,13.68,13.68,0,0,1-2.81,4.94,7.6,7.6,0,0,1-4.56,2s-1.48,2-5.3,2.59a9.13,9.13,0,0,1-6.55-1.5,19.14,19.14,0,0,1-7.12-.94c-4.1-1.27-6.9-5.47-6.9-5.47a21.22,21.22,0,0,0-7.6-1.51c-4.92-.22-15.94-2.44-20.84-5.29,0,0-2.88,1.39-11.61,1.84,0,0-1.29-3.94-3.82-5.93,0,0-7.51,4.16-9.89,5.27s-6.79,3-10.62,3.26c0,0-1,6.27-2.83,9.64a15.5,15.5,0,0,1-8.31,6.87,15,15,0,0,1,6.6,4.91c2.27,3.38,3,7.09,1.49,10.08s-3.3,3.8-3.3,3.8a8,8,0,0,1-4.38,4.59c-3.5,1.57-7.9.73-7.9.73a13.3,13.3,0,0,1-5.76,1.25c-3.34,0-7.53-2.87-7.53-2.87s-10.94,1-14.2.73-7.12-1.62-9-6.43a26.31,26.31,0,0,1-5,3.11,93.43,93.43,0,0,0-12.71,7.12l.13,2.16s5.94,2.24,6.32,8.33-2.94,8.35-3.88,9a9.75,9.75,0,0,1-4,4.13,9.51,9.51,0,0,1-5.7.74s-6.69,3-11.79-1.9-3.65-10.13-3.6-11.4.42-12.43.38-12.94c0,0-2.53-3.39-2-7.21s3.49-6.2,4.87-7.36a12.1,12.1,0,0,0,3.87-6c.83-2.93.89-8.91,1.16-11.12s.39-5.92.39-5.92-10-2.77-15.22-8.58-6.64-10-8-15.78S36.54,89.23,31.25,86a12.44,12.44,0,0,1-7.44-.61c-4-1.6-6.42-4.82-9-8S3.21,72.79,0,72.62c0,0,6.81-7.52,16-10.74s13.56-1.94,16.61-.22a14,14,0,0,1,6.57,8.53A31.34,31.34,0,0,1,49.26,77.6a32.93,32.93,0,0,1,7.36,14.33c1.33,5.26,3,11.64,13.56,14,0,0,6.25-6.26,8.63-7.81A24.91,24.91,0,0,1,85,95.4c.86-.25,4.88-1.56,4.88-1.56s6.32-5.15,7.35-6.18c0,0,2.36-4.19,3.85-6.62A33.25,33.25,0,0,1,105,76.18a26.93,26.93,0,0,1-2.9-11.93,12.66,12.66,0,0,0,2.86.87,16.5,16.5,0,0,1,2.9-8.88,43.43,43.43,0,0,1,6-6.93A20.9,20.9,0,0,1,117,38.36s-2.58-4.15-2.81-6.82a48.22,48.22,0,0,0,7.58-1.33c3.26-.94,4.87-1.6,6.53-3.6s5.64-6.86,10.68-9.24a30.61,30.61,0,0,1,14.64-2.93,17.81,17.81,0,0,0-5.18-3s4.63-3.42,13.77-4.4c0,0,.06-4.63,1.06-7.06,0,0,12.12,8.3,18.21,10.68s10.52,3.15,13.67,4.71,5.38,4.41,5.9,6.16a32.42,32.42,0,0,1,6,3.13c2.6,1.83,4.1,6.23,4.1,6.23a75.23,75.23,0,0,1,10,5.06c5.1,3.1,11.34,9.64,11.34,9.64a19.52,19.52,0,0,0-7.28,6.56s-1.55,5.37-4.08,8"/><path class="cls-1" d="M214,62.43a17.13,17.13,0,0,1,4.3.51,18.58,18.58,0,0,1,3.29,1.23,24.42,24.42,0,0,0,2.23-1.6,7.13,7.13,0,0,1,5-1.5,6,6,0,0,1,3.8,2.38,33.1,33.1,0,0,0,3.31,0,11,11,0,0,1,6.88,2.34c2.34,1.87,4.49,4.64,1.64,8.33a6.7,6.7,0,0,1-.23,4,6.72,6.72,0,0,1-3,2.61s-1.34,4-4.47,5-7.07-.9-7.07-.9a25.72,25.72,0,0,1-6.36.71c-2.67-.19-5.59-2.44-5.59-2.44a4.49,4.49,0,0,0-1.25,1.27c-.61.89-5.2,7.33-6.28,8.46,0,0,4.5,4.36,8.95,6.19a43.91,43.91,0,0,0,7.86,2.43,7.55,7.55,0,0,1,4.68,4.59,19.37,19.37,0,0,1,4.73-.56c1.87.14,3.7.52,7,3.89s2.53,6.41,2,7.82a6.83,6.83,0,0,1-2.45,2.61,7.07,7.07,0,0,1-1.85,4.32,5.6,5.6,0,0,1-4,1.24,5.55,5.55,0,0,1-3.24,2.41c-2.34.7-4.87-.52-6-1.45,0,0-4.82.42-8-1.12a11,11,0,0,1-4.6-4.58,33.68,33.68,0,0,0-10.84-2.21c-5.52,0-16.22-3-19.72-5.59,0,0-5.33,2.42-9.61,2.48a13.88,13.88,0,0,0-6-6.79s-9.93,5.5-13.49,7.14S145.9,117.93,145,118a9.86,9.86,0,0,1-.08,3.94c-.47,2.43-2,7.21-3.23,8.8s-4.77,3.56-6.84,4.31a62.21,62.21,0,0,0-6.79,2.48,31.86,31.86,0,0,0-5.92,4.3,28.08,28.08,0,0,0,4.31.8c1,0,2.78-1,4.09-1.54a8.82,8.82,0,0,1,8,1c2.95,2.2,4.49,5.06,4.4,7.21s-1.48,3.71-3.55,4.78c0,0-.62,3-3.19,4s-6.86.08-6.86.08a10.26,10.26,0,0,1-4.46,1.46c-2.43.14-5.71-2-6.22-2.24a3.57,3.57,0,0,0-1.92-.56c-.89,0-10.53.79-13.53.79a6.78,6.78,0,0,1-6.32-3.79c-1.26-2.34.51-6.09,1.64-7.58s2.9-3.56,3.13-4a1.15,1.15,0,0,0-.32-1.54c-.61-.42-2.56-1.38-2.56-1.38s-3,5.92-4.08,7.93a15.17,15.17,0,0,1-5.38,6c-2.81,1.73-8.75,4.35-11.89,6.27a32.62,32.62,0,0,0-5,3.68s0,5.65.2,6.34c0,0,2.83.55,4,1.54a6.11,6.11,0,0,1,2.2,4.77c0,2.2-.34,4.79-3.08,5.81,0,0-.76,2.85-2.92,3.69a7,7,0,0,1-4.35.1,10.26,10.26,0,0,1-6,.84,7.65,7.65,0,0,1-5.71-7.07c0-3.23.51-14.93.51-15.68a4.78,4.78,0,0,0-.56-2.57c-.56-1-1.87-3.6-1.54-5.24s2-3.56,3.56-4.87,3.42-2.62,4.35-5.25a33,33,0,0,0,1.83-9c.09-2.76.43-11.75,1-14.18,0,0-11.62-2.58-16.86-8.57S42.8,103.1,41.3,96.69s-3.4-11.32-9.52-14.51a9.46,9.46,0,0,1-7.47-.24c-4.21-1.82-6.51-6.6-8.75-8.29S7.2,71,6,71c0,0,7.29-5.06,12.3-6.56s10.44-2,13.86.75,3.93,7.4,3.93,7.4,7,2.9,11.1,7.91a30.7,30.7,0,0,1,6.08,12.83c.8,3.14,3.27,9.41,7.23,12.17a24.12,24.12,0,0,0,11,4.1s6.83-7.14,9.17-8.68a21,21,0,0,1,6.08-2.48c1.13-.33,5-1.61,5-1.61s6.89-5.94,8.22-7c0,0,4-6.92,5.12-8.56s4.14-5.49,4.14-5.49a12,12,0,0,1-2.73-7.23,12.12,12.12,0,0,0,2.66.22,8.32,8.32,0,0,1-.7-5.52c.65-3.23,4.16-8.48,8.84-12.5a21.89,21.89,0,0,1,.8-6.64,20.43,20.43,0,0,1,3-5.81s-2.14-2.64-2.47-4.71a37.64,37.64,0,0,0,6.84-1.32,16.59,16.59,0,0,0,5.06-2.93s5.38-7.42,11.94-9.76A33.57,33.57,0,0,1,155.7,18a36.45,36.45,0,0,1,4.69-2.63s-2.6-2.93-4.76-3.83a30.94,30.94,0,0,1,9.71-1.17A27.09,27.09,0,0,1,166,5.27s8.11,5.85,11.81,7.49,10.77,4,13.15,4.73,6.45,2.31,7.29,6.63c0,0,3.94,1.65,5.49,2.5a9.66,9.66,0,0,1,3.46,3.7,18,18,0,0,0,1.05,2.53A3.47,3.47,0,0,0,210,34.2a62.15,62.15,0,0,1,10.16,5.38c3,2.25,7.07,6.13,7.07,6.13s-4.06,3.24-5.05,4.73a30,30,0,0,1-3.19,7,11.67,11.67,0,0,1-4.91,4v1Z"/><path class="cls-2" d="M179.28,72.12c-3.55-3.81-15.55-6.17-27-1.89,11.41-6.18,22-4.39,27.42-1.6,5.19,2.67,4.72,6.93,4.63,7.51,0,0,0,0,0,.07a23.41,23.41,0,0,0,6.46-2.38c.23-3.57,2.26-7.17,5.56-7,3.7.21,8.82,2.94,8.82,2.94-7.09,5.72-20.09,10.47-24.67,11.43,0,0,3.16-4.33-1.25-9.09m-45.4-1.41a23.3,23.3,0,0,1-13.9-1c10.71-.38,15.78-3.41,26.39-9s21.82-.92,21.82-.92a30.25,30.25,0,0,0-18.37,3.06c-3.93,1.92-8.57,6.12-15.94,7.86m26.77-22.6a24.4,24.4,0,0,1,16,10.32s-8.31-6.7-17.18-7.63a40.8,40.8,0,0,0-17.19,2.4,22.16,22.16,0,0,1,18.4-5.08m37.41-11.76c1.11,0,3.42,1.51,5,1.61a24.79,24.79,0,0,0-1.61,2.41c-.2.5.6,1.51.6,1.51s-3.22-2.41-4.22-3.11S193,37.25,193,37.25a43.39,43.39,0,0,1,5-.9M205.34,93c3.85-3.48,7.71-10.57,9.57-12.18a5.65,5.65,0,0,1,4.23-1.24A6.76,6.76,0,0,0,224,82.08a17.13,17.13,0,0,0,5.84-.87s4.6,1.86,6.22,1S238.53,78,238.53,78s2.61-.5,2.74-1.74A7.91,7.91,0,0,0,240.4,73s1.74-1.12,2-1.86-.62-1.74-1.37-2.36-3.48-2.11-4.85-1.86a36.6,36.6,0,0,1-5.6-.12s-.62-1.74-1.74-2.11a3.17,3.17,0,0,0-3.11.87c-.75.75-3,2.24-4.1,2.24s-2-1.12-5.47-1.74a7.46,7.46,0,0,0-5.6,1,24.09,24.09,0,0,0,.14-4.37c0-.15-.74,0-.76-.12-.09-1.7,0-4.21,0-4.21-.37,1-3.67,5.47-6.53,4s-2-6.85-2-6.85c4.48-2.74,10.82-2.36,10.82-2.36a6.46,6.46,0,0,1-.37,5.47c5.35-1.74,6.59-8.33,7.21-9.7s3.48-3,3.48-3a47.25,47.25,0,0,0-5.84-4.48,76.29,76.29,0,0,0-9.45-4.6c-1-.37-2.24-2.49-2.48-3.23s-1-3-2.86-4-7.21-3.24-7.21-3.24.74-1.12-.5-3.11-5.72-2.86-13.05-5.35a39,39,0,0,1-12.31-7,5.88,5.88,0,0,0,1.37,4c-2.36-1.12-8.83-1.37-8.83-1.37a14.08,14.08,0,0,1,5.1,3.61c-2.49,0-6.47,2.36-6.47,2.36a5.87,5.87,0,0,1,4.6,1.74c-3,1.37-9.49-.62-16.78.5s-12.06,6.84-12.06,6.84a6.84,6.84,0,0,1,5.1-.12c-2.49.13-9,4.23-11.44,5.59a13.87,13.87,0,0,1-6.09,1.25,5,5,0,0,0,3.23,2.36c-3.23,2.24-5,7.46-5,7.46,1.86-2.11,4.6-2,5.22-.75S126.52,48,124,49.75a48.46,48.46,0,0,0-9.58,9.32,17,17,0,0,0-3,6.67c3.12-1.28,4.19-.17,4,1.37-.41,2.61-5,4.64-5,4.64,1.12,1.86,5.34,2,5.34,2a104.19,104.19,0,0,0-7,8.46c-2,3-5.35,9-6,9.82s-8,6.72-8.83,7.59-8.33,2.74-10.2,3.61-8.2,6.84-10.32,9.57l-.37.49c-3-.21-10-1.13-14.8-5.06C52,103.08,50.6,97,49.53,92.82A27.07,27.07,0,0,0,44.3,82.39c-2.42-3.1-9.88-6.81-11.14-7.59,0,0-.92-5.24-3.48-7-2.76-1.87-6.38-1.49-7.92-1.1a17.25,17.25,0,0,0-1.78.59,24.31,24.31,0,0,1,3.81.73c3.51.91,3.74,3.38,3.74,3.38S23,66.53,13.89,70.09c.72.11,3.38.65,4.73,2.43,1.53,2,2,3.49,6.34,5.91a6.26,6.26,0,0,0,6.85-.23s6.65,3.43,8.81,7.26a52.26,52.26,0,0,1,5.13,14.62,21.29,21.29,0,0,0,7.56,13.07c4,3.53,12.7,5.91,16.73,6.67L69.69,121c-1,3.23-1,9.08-1.37,15.42s-1.74,9.95-3.24,12.68-6.09,5.35-6.46,7,1.74,3.36,2,5.85-.37,12.93-.37,14.42-.37,3.36.5,4.73a4,4,0,0,0,4.1,1.87,3.76,3.76,0,0,0,2.61-1.37s2.74,1.12,4,.37,1.12-3.23,1.12-3.23,1.87,0,2.36-.62a4.18,4.18,0,0,0-.25-4c-.87-1.12-5.22-1.49-5.22-1.49-.25-.5-1-9-.37-10.82s5.6-4.73,9.45-7,9.08-4.1,10.94-6.09c1.52-1.62,5.52-9.65,7-12.6.09-.18,4.88-12,16.34-17.2l.09-.05c-8.39,7.45-9.1,10.25-9.1,10.25A55.24,55.24,0,0,1,119,119.71c6.46-2.73,11.4-3.94,14.63-4.25-8,2.55-14.84,6.42-21.72,10.56a48.42,48.42,0,0,0-11.77,10.09c6.2,2.46,5.73,5.12,5.19,6.63-.62,1.74-4.48,5.6-5.1,7.34s-.38,3.61,2.74,3.86,11.68-.87,14.42-.74,4.48,2.86,7.09,2.86a4.84,4.84,0,0,0,3.85-1.74c1.87.62,5.22,1,6.59.37s1.12-3.23,1.12-3.23c2.24-.37,3.6-1.49,3.23-2.73a6.93,6.93,0,0,0-3.11-4,5.07,5.07,0,0,0-5-.12c-1.37.62-3.23,1.74-5.22,1.49s-9.45-1.86-9.45-1.86c2-5.47,8.33-9.45,11.19-10.44s8.33-2.74,10.44-4.48,3.36-8,3.48-9.2-1-5.22-1-5.22c2.24-.37,8.08-.25,12.56-2a122.85,122.85,0,0,0,11.24-5.71c-8-4.61-23.92-3.44-23.92-3.44,16.76-3.49,28.35.95,28.35.95,5.47,1.62,8.2,6.84,8.2,6.84a34.61,34.61,0,0,0,8-2.62C194.69,103.75,205.34,93,205.34,93"/><path class="cls-2" d="M242.39,114.66a9.6,9.6,0,0,0-4.23-5.1c-2-1.12-4.23-.12-6,0a4,4,0,0,1-3.6-2.11c-.37-.87-1.49-2.49-3-2.74a40.72,40.72,0,0,1-9.45-3.23c-2.74-1.26-6.06-4-8.29-6a106.6,106.6,0,0,1-8.47,7.88,92.84,92.84,0,0,1-11.13,7.57c7.4,3.52,16.14,4,20.18,4.4A35.46,35.46,0,0,1,218,118a6.54,6.54,0,0,0,3.6,4.1c3,1.37,7.34.62,7.34.62s2.24,2.24,4.1,1.62,2-3.11,2-3.11,2.36,1.24,3.6.38.87-4.35.87-4.35c1.49,0,3.23-1,2.86-2.61"/></g></svg>