<svg id="Layer_1" data-name="Layer 1" xmlns="http://www.w3.org/2000/svg" viewBox="0 0 250 164.13"><defs><style>.cls-1{fill:#ffc20e;}.cls-2{fill:#2a433a;}.cls-3{fill:#fff;}</style></defs><title>GB</title><g id="GB"><path class="cls-1" d="M124.34,0C56.94,0,0,37.78,0,82.49,0,129,53.46,164.13,124.34,164.13c41.37,0,80.59-14.54,104.92-38.89C242.65,111.83,250,96.65,250,82.49c0-22-13-42.75-36.52-58.31S158.24,0,124.34,0Z"/><path class="cls-2" d="M37.39,137.16C15.76,122.73,3.85,103.31,3.85,82.49c0-41.89,56.3-78.63,120.48-78.64,67.13,0,121.77,35.27,121.81,78.64,0,13.14-7,27.35-19.62,40-23.62,23.64-61.82,37.76-102.19,37.76C90.61,160.27,59.73,152.06,37.39,137.16Z"/><path class="cls-3" d="M178.27,60.89c-9.68-14.42-30.87-24.41-55.83-24.41-34.25,0-62,18.84-62,42.08s19.6,43.64,62,43.62c25.48,0,46-11,55.53-25.47l-72.36.13L105.39,78,231,78a40.08,40.08,0,0,1,.34,4.5c0,36.18-47.9,65.51-107,65.51s-107-29.33-107-65.51,50.75-66.62,107-66.83c46.82-.18,86.61,19.17,101.13,45.2Z"/></g></svg>