<svg id="Layer_1" data-name="Layer 1" xmlns="http://www.w3.org/2000/svg" viewBox="0 0 248.05 226.35"><defs><style>.cls-1{fill:#fff;}.cls-2{fill:#00143f;}.cls-3{fill:#c41230;}</style></defs><title>HOU</title><g id="HOU"><path class="cls-1" d="M183,38.56C236.1,79,195.7,85,154.25,90.9c0,0-17.49-4.82-47.8-19.88-68.74-34.14-47.1-50.23,6.92-60C26.9-26.61-45.17,39,34.34,102.75l-21.82,15.6c17.92,11,55.05,34,49.66,69.32L43.75,200.84,100,226.35l44.41-20.12c.32-19.54,35.25-29.7,50.28-69.46C277.47,117.78,256.39,45,183,38.56Z"/><path class="cls-2" d="M145.2,94.63c-103.86-40.11-110.74-73-45.91-84.4C18.21-11.8-29.08,47,51.14,103L29.62,118.38c22.86,15.27,47.08,37.89,38.86,73.48l-10.84,7.74,41.65,18.88C138.06,176,158.34,134.77,145.2,94.63ZM119,159.22l-16-18.15-18.32,2.73,8.47-13.95-16-18.16,21.19,9.54,8.45-14,4.62,19.84,21.19,9.52-18.33,2.74Z"/><path class="cls-3" d="M197.92,44.88c35.65,27.91,10.9,45.73-32.56,50.58,11,46.34-22.72,88.79-58.4,121.66l32.72-14.83c2.42-18.83,35.62-28.63,51.35-70.43C264.93,115.38,252.87,62.35,197.92,44.88Z"/></g></svg>