<svg id="Layer_1" data-name="Layer 1" xmlns="http://www.w3.org/2000/svg" viewBox="0 0 248.11 160.76"><defs><style>.cls-1{fill:#fff;}.cls-2{fill:#e31837;}</style></defs><title>KC</title><g id="KC"><path class="cls-1" d="M9.53,130.06c-1.5-.68-3.47-1.19-5.21-3.92-2-3.08-1.27-5.33-.64-9.6.67-4.51.59-6.34-.68-11.36A70.42,70.42,0,0,1,.72,94.86,69.19,69.19,0,0,1,0,87.76C0,85.28.15,83,.43,79.5A40.33,40.33,0,0,1,2.7,69.88c.55-1.63,2-5.5,2.92-7.33C7.13,59.48,8.75,58,8,52.56c-.29-2.08-1.08-3.19-1.4-6A14,14,0,0,1,7,40a12.45,12.45,0,0,1,2.51-4.65,7.75,7.75,0,0,1,5.08-3.09,7.91,7.91,0,0,1,3.65-.12c4.13.36,3.52,4,9.67.19A12,12,0,0,1,41,32.91c2.18,1.28,4,5.63,1.66-1.54C41.61,27.11,40.5,25,39,18.28,37.26,11.94,38.67,5.46,43.85,2c3.73-3.28,11.31-1.82,20.1-.17,7.71,1.45,9.53-1,14.79-.76a42.62,42.62,0,0,1,7.89.71,25.5,25.5,0,0,1,7.09,2.78c5.26,2.87,5,0,12.3,1,2.35.31,3.27,0,5.65.65a27.32,27.32,0,0,1,6.89,3.12c6.81,4,6.82,4.86,18.17,4.36,2.1-.09,5.84,1.53,7.87,2.85,2.25,1.47,7.73,4.65,12.56,5,6.16.39,11.43-.39,19,5,5.54,4.93,12.43,4.7,18.58,8a29.58,29.58,0,0,1,9,8.41c.5.8,2.52,2.11,7.58,2.95,4.55.75,9.31,6.14,11.85,9.91,3.27,3,1.35,1,5.83,4.09,2.16,1.51,3.25,2.26,5.37,3.85,2.76,2.06,1,.56,4.29,3.15.6.47,1.4,1.38,3.6,3.35a16.34,16.34,0,0,1,5.07,6.07c1.62,3.22.32,5.5-1.18,8.17a31.58,31.58,0,0,1-5.7,7.79c-3.13,3-2.88,3-5.74,4.75-6.5,3.88-11.35,2.57-14.1,7.2-4.06,6.84-7.33,9-10.4,10.48-6.18,2.89-10.32,2.79-14.24,5.87a66.18,66.18,0,0,1-11.66,7.25c-6.57,2.93-7.38,1.21-11.88,4-1.53,1-.56.4-4.4,3.57a18.9,18.9,0,0,1-7.49,3.61,61,61,0,0,0-7,1.15c-5.4,1.44-6,3.34-11.93,4.48-6.94,1.33-9.81.67-16.43,3.83-1.73.82-3.62,1.65-6.15,3-2.08,1.13-8.48,2.68-13.43,2.93-2.15.11-4.18-1.31-9.39,1.18-6.73,3.21-6.82,2.88-12.16,4a31.31,31.31,0,0,1-6.15.17c-3.88,0-7.92-1.35-12.06-1.22s-3.26-.13-6.8.27l-2.51.41-3.69.82c0,.15-1.34.21-1.34.36a16.15,16.15,0,0,1-7.39,0c-3.33-.66-7-2.65-8.36-4.47-2.2-2.63-2.5-5.15-2.24-8.6a148,148,0,0,1,5-17.61s2-4.43-2.77-1.95c-4.79,1.76-8.53-1.32-11.43-.34-2.86,1.44-4.64,2.76-8.22,3.28A14.08,14.08,0,0,1,9.53,130.06Z"/><path d="M62.85,153.56h0c4.29-.48,5.32-.19,9.17.31,3.57.47,7,1.16,10.54.75a27.21,27.21,0,0,0,5.27-1.1c5-1.59,7.28-3.74,13.26-4.56,5-.67,5,.15,9.31-.05,4.56-.22,7.09-2.16,9-3.2,2.32-1.26,2.93-1.37,4.49-2.2,5.63-3,12.24-2.64,18.56-4.18,4.45-1.09,6.18-3.18,11.15-4.51a53.28,53.28,0,0,1,6.25-.79,14.07,14.07,0,0,0,6.07-3.14c2.74-2.54,2.44-2.64,4.57-3.84,3.55-2,7.58-1.95,11.15-3.6,3.33-1.54,6.74-2.85,9.38-5.51,3.84-3.87,9.89-5,14.87-6.76a17.86,17.86,0,0,0,10-8.53c3.17-5.47,6-6.25,11.61-7.95a16.87,16.87,0,0,0,8.25-4.65,28,28,0,0,0,4.7-5.74c1.34-2,4-5.21,1.18-7.68-1.23-1.09-2.47-3.11-5.1-5.13a44.31,44.31,0,0,0-4.25-3.28c-3-2.39-.48-.5-3.39-2.35-2.06-1.3-2.64-2.35-4.76-3.54-3.8-2.14-4.19-2.78-7.23-6.42-2.63-4.85-6.76-5.53-10.9-6.46a13.29,13.29,0,0,1-7.51-5.18c-2.12-3.44-5.56-5.15-7.39-6.13-5.66-3.07-12.19-2.58-17.3-7.12-7.69-5.46-9.71-4.45-17.8-4.7-4.46-.14-10.31-3-12.21-4.57a15,15,0,0,0-5.1-2.72c-5.7-1.76-9.6,1.26-17.57-2.62-2.33-1.13-4.43-2.69-6.72-4a14.32,14.32,0,0,0-4.74-1.7c-4.22-.91-7.89-.33-13,.11-2.4.2-3.82-1.07-6-2.26a22.76,22.76,0,0,0-6.86-2.39C80.35,5.54,76.42,6,72.4,6.8c-8,1.6-15.28-2.43-23-1.72a7.51,7.51,0,0,0-4.74,3.58,10.58,10.58,0,0,0-1,6.3A17.07,17.07,0,0,0,45,20.64c1.4,4.65,2.1,7.18,3.22,10.31,1.29,3.64,1.25,8.08-1.82,9.5A5.79,5.79,0,0,1,41,40.08c-2.16-1.65-3.34-4-5.78-4.44C32,35,28.1,38.33,24.64,39.24s-3.91-1-6.31-2.09c-1.6-.74-3.14.34-4,.84-1.62.9-2,2.77-2.39,4.76a11.17,11.17,0,0,0,0,4.81c.57,2.52,1.41,4,1.47,5.79.16,4.41-.55,7.65-2.37,10C9.79,64.8,8.28,68.89,7.8,70.4a39,39,0,0,0-2.18,8.87c-.4,2.4-.33,5.08-.54,7.33,0,.41.27,5.51.51,7,.61,3.77,1.32,6.2,2.11,9.38,1.14,4.59,1.63,7.44,1.52,11s-2.41,7.06-.23,9.62a7.29,7.29,0,0,0,7.75,1.77c2.91-1.29,5-2.8,7.32-3.12,4.21-.58,6.92,1.22,8.75,1,1.61-.19,4.45-1.81,5.78-1.92,1.06-.09,3.37-.19,4.18.41,1.28,1,2.08,2,1.86,5.35,0,0-.78,3.54-.79,3.57-1.33,4.37-2.76,8.43-3.44,11.42s-4.15,9.91,2.82,12.69c2.94,1.17,6,.94,9.89,0a42.43,42.43,0,0,1,4.58-.89c0-.14,2.73-.09,2.73-.22Z"/><path class="cls-1" d="M194.86,48.39c1.89,1.23,4.06,4.42,5.88,7,2.23,2,2.43,3.2,7.94,4.18-1.07-.19,5,1.89,5.87,2.4,2.37,1.32,3,2.13,5.08,4.52s3,3.14,7.42,6.07c1.7,1.14,2,1.55,5.25,3.86a12.32,12.32,0,0,1,3.63,3.75c1.53,3.21-.61,4.36-3.94,6.12-5.48,2.91-10,2.08-15,7.12-4.12,4.2-8.62,9.33-11.67,10.25a34,34,0,0,0-7.24,3c-2.38,1.48-3.05,1.43-5.18,3.33-2.53,2.26-3.95,3.88-8.6,5.48-2.87,1-6.26,1.45-9.27,2.35a28.13,28.13,0,0,0-6,2.72c-3,1.71-6.66,5.72-11.66,6.65-9.9,1.84-7.27,1.64-14.33,4.84a23.34,23.34,0,0,1-7.91,1.66,22.28,22.28,0,0,0-11.3,2.69c-2.72,1.45-5.49,4.11-10.84,4.82-6.6.88-7,0-15.16,1.8-2.49.54-5.62,2.35-8,3.2-2.66,1-8.93,1.08-13.36.68a44.15,44.15,0,0,0-13.76.73,50.52,50.52,0,0,1-12.15.85,3.25,3.25,0,0,1-2.54-1.89,5.54,5.54,0,0,1-.73-3.95,33.26,33.26,0,0,1,1-6.07c.22-.86,1.31-6.5,1.5-7.36,1.21-5.42,1.59-10.89-2.69-13.35a12.92,12.92,0,0,0-7.05-.84c-7.23,1.28-5.72,2.5-10.34.87a13.84,13.84,0,0,0-3.88-.58c-2.32.09-5.61,1.71-8.53,2.17-2,.32-2.58-2-2.53-3.59.09-2.53.35-5,.24-7.78-.3-7.4-1.59-7.8-2.48-12.26-.81-4-.58-10.92-.77-10.72a31,31,0,0,1,4.23-13.88,26,26,0,0,0,3-5.82c1.23-2.86,1.07-5.39.44-8.6,0-.07-.76-2.45-.49-2.45a8,8,0,0,1,.64-4.2c.78-1.67,1.39-2.47,2.63-3a7.65,7.65,0,0,1,2.4-.79c2.69-.19,3.23,1.53,8.25-.57,2.6-1.09,5.19.37,6.46.84,3.49,1.27,2.88,1.27,5.1,1.34a10.84,10.84,0,0,0,6.1-1.65,7.4,7.4,0,0,0,2.64-2A15.18,15.18,0,0,0,54.81,38a14.41,14.41,0,0,0,.25-5.8C54,27.92,53.55,27,52.79,24.32A57.19,57.19,0,0,1,51.11,18S51,15.58,51,15.58a2.89,2.89,0,0,1,2.83-3.47c6.23-.05,12.06,1.72,18.65,1.68,5.43,0,7.74-1.15,14.13,1.18,2.23.81,3.54,2.63,7,3.61,6.63,1.87,11.89-2.6,17.56.07,4.71,2.22,3.72.88,8.15,3.7a28.56,28.56,0,0,0,11.42,4.35c3.82.56,9.87-1,16.1,3.51a21.07,21.07,0,0,0,11.2,4c5.28.54,5.79-.2,10,2.82,3.06,2.22,2.22,1.73,5.31,4a21.6,21.6,0,0,0,4.52,3,39.32,39.32,0,0,0,5.46,1.13c3.95.2,5.06-.12,8.19,1C191.46,46.16,195.57,48.86,194.86,48.39Z"/><path d="M58.46,85.91v8.38H90l3.14-2.94V81.29H88.45l0-2.55,17.36-10,1.46,1.5c-3.89,2.73-6.9,5.28-9.23,9.33-3.41,5.68-4.65,13.55-2.63,19.83a22.05,22.05,0,0,0,5.77,9.73,29,29,0,0,0,9.51,6.55,68.13,68.13,0,0,0,18.92,5.14,107.63,107.63,0,0,0,19.93-.3,60,60,0,0,0,15.58-4.23c2.93-1.41,6.17-2.73,8.66-4.67,6.27-4.51,12.89-11.31,13-19.81H175.08c-3.68,13.05-39.09,19-53.25,8.92-10.32-8.11-7.39-15.29-3-18.63l1.32,1.42-2.21,2.32.16,8.4h29.82l3.84-3.64V81.53h-2.29L139.13,70.41c19.83-4.25,29.64,4.45,35.43,14h7.77l3.93-3.84V58.47l-8.27,0-5,3.07c-17.6-7.79-30.65-6.9-44.31-2.37l-2.23-2.26,12.6-7.53,7.61,0,3.72-3.54,0-7.5H120l-3.24,3.28v5.12L88.25,63V50.42l4.61-4.65V38.2H63L58.87,43v6h4.9V81.29h-1.5S58.26,85.83,58.46,85.91Z"/><polygon class="cls-2" points="63.77 40.06 91.08 40.06 91.08 44.95 86.42 45 86.42 66.2 123.65 44.95 120.37 44.95 120.37 40.06 148.53 40.02 148.53 44.92 142.26 45 123.2 56.24 148.86 83.96 149.75 83.98 149.75 89.63 121.43 89.63 121.43 83.92 125.37 83.96 107.79 65.23 86.63 77.37 86.63 83.96 91.08 83.96 91.08 89.59 63.77 89.59 63.77 83.96 68.42 83.96 68.42 44.95 63.77 44.95 63.77 40.06"/><path class="cls-2" d="M184.63,93.67h-7.49c-3,5-7.16,8.9-16.67,11.73-18.41,5.46-36.11,2.73-43.88-7-6.49-7.49-3.46-14.06.69-17.66l-8.17-8.82c-6.49,4.43-8.72,8.58-10.11,12.63-1.11,3.34-2.65,10.11.49,16.49A28.5,28.5,0,0,0,113.64,113a74.07,74.07,0,0,0,30.25,5c8.9-.2,16.69-1.82,24.18-5.56,4.35-2.32,5.24-2.83,9.59-6.88C180.91,101.77,183.54,99.44,184.63,93.67Z"/><path class="cls-2" d="M130.13,60.7c5.56-1.72,21.24-7.08,43.29,2.63l4.65-3h6.51l-.08,19.58-7.24.08c-7.39-11.11-24.18-15-39.86-11.27Z"/></g></svg>