<svg id="Layer_1" data-name="Layer 1" xmlns="http://www.w3.org/2000/svg" viewBox="0 0 249.27 177.73"><defs><style>.cls-1{fill:#fff;}.cls-2{fill:#002a5c;}.cls-3{fill:#c6a876;}</style></defs><title>LAR</title><g id="LA"><path class="cls-1" d="M171.46.61c-18.4,2.31-34.25,11-44.61,24.48-.81,1-1.57,2.17-2.32,3.31l-.35.07c-58.77,9.15-105.36,47.42-107.31,49L0,91.52l21.85,1.76c38.51,3.1,65.77,16.57,81.85,27.33,17.62,11.78,26.1,23,26.18,23.09l3.27,4.45,2.42,3.29,7.31-6.28a23.07,23.07,0,0,0,3.38-3.62l.25.22,1.65,1.38a23.28,23.28,0,0,1,3.11,2.9,5.12,5.12,0,0,1,.44,2.1,7.42,7.42,0,0,1-.76,3.76l-.26.59c-.62,1.5-1.81,3.67-1.82,3.69l-1.79,3.28,32.53,18.27,3.35-.93,6-1.54c7.39-1.84,12.09-3.06,14.85-4.38l2.42-1.16,1.38-2.3A134.6,134.6,0,0,0,221.8,129.5l6.12-5.56.14-1.46.19-2c.17-1.78.25-3.59.25-5.38a67.55,67.55,0,0,0-.79-10c10.67-5.93,15.28-14.51,18.11-21.49a49.92,49.92,0,0,0,3.46-18.7A61.6,61.6,0,0,0,245.9,45C242.27,34.41,234,19.44,215.33,8.41h0C203.7,1.54,187.3-1.37,171.46.61Z"/><path class="cls-2" d="M149.9,132.86l.38.33,0-.11Z"/><path class="cls-2" d="M205,79.23l-.54.55.33-.31Z"/><path class="cls-3" d="M213.41,11.67C192.57-.64,151.48-.74,129.84,27.4a49.15,49.15,0,0,0-3,4.42c-.93.19-1.64.32-2.05.39-57.7,9-103.57,46.63-105.5,48.22L9.57,88.49l12.59,1C98.42,95.65,132.57,141,132.91,141.43l3.29,4.47,4.21-3.61a20.51,20.51,0,0,0,5-6.58c1,.94,2.19,2,3.59,3.2A38.49,38.49,0,0,1,154.5,144a8.73,8.73,0,0,1,1,4.15,11.72,11.72,0,0,1-1.31,5.81c-.71,1.71-2,4-2,4l27.9,15.67,1.89-.52,6.06-1.56c7-1.74,11.73-3,14.15-4.13l1.39-.67.8-1.33a131.3,131.3,0,0,0,14-37.94l5.95-5.41.19-2q.23-2.54.23-5A64.87,64.87,0,0,0,223.52,103c11.06-5.23,15.76-13.34,18.79-20.82C250.35,62.35,243.94,29.69,213.41,11.67Z"/><path class="cls-2" d="M235.1,43.41C217.44.74,169,9.26,169,9.26l.38,0a72.93,72.93,0,0,1,31.25,4.92c12.64,5.22,26.75,18.21,30.17,35.38a57.61,57.61,0,0,1,1.13,11.28v.86a47.39,47.39,0,0,1-4.4,19.81,30.34,30.34,0,0,1-7.37,9.11,9.36,9.36,0,0,1-5.29,2.1,4.09,4.09,0,0,1-.76-.07h0a2.94,2.94,0,0,1-.68-.2c-1.34-.61-1.79-2.21-4.85-6.51a63.35,63.35,0,0,0-4.6-5.61c.25-.23.48-.46.71-.7h0l.34-.35a11.61,11.61,0,0,0,.8-1,14.56,14.56,0,0,0,1.88-3.52c0-.05,0-.1.05-.15.16-.43.3-.86.43-1.31,2.48-8.84-.25-22.52-11.38-31.43-11.84-9.48-24.62-10.26-35-6.11-17.44,7-28,28-15.53,45.14,6,8.32,15.85,8.86,21.94,4.19,5.71-4.38,9.54-17.78-4.51-25,11.29-1,25,12.51,18.24,29.89a24.9,24.9,0,0,1-1.73,3.56c-9.77,16.48-36.45,14.65-49.27-.67-12.5-14.93-14.62-34.94-8.62-51.6.44-1.22.92-2.41,1.44-3.59C72.22,48.82,38.88,80,38.88,80c72.06,15,98.18,58.4,98.18,58.4a17.31,17.31,0,0,0,4.93-7.91,21.36,21.36,0,0,1-2.81-15.85,32.71,32.71,0,0,0,5.12,12.45,70.71,70.71,0,0,0,5.61,5.78l.36.22,0,.11c3.61,3.2,7.9,6.8,8.66,8.17,3.88,7-.17,14.89-.17,14.89l21.81,11.94c4.86-1.38,16.24-3.86,19.38-5.37a126.41,126.41,0,0,0,13.68-38l5.72-5.2c.07-.76.12-1.52.15-2.28,0-.26,0-.52,0-.78,0-.49,0-1,0-1.48,0-.32,0-.64,0-1s0-.84,0-1.25,0-.71-.05-1.06,0-.63-.07-.94c-.13-1.64-.32-3.27-.57-4.84a.92.92,0,0,1,0-.18c-.1-.6-.2-1.2-.31-1.79-.23-1.2-.47-2.39-.75-3.53a14.56,14.56,0,0,0,1.41-.41,20.33,20.33,0,0,0,3.41-1.51C234.91,91.79,246.27,70.39,235.1,43.41Z"/><path class="cls-1" d="M231.89,60.8a57.54,57.54,0,0,0-1.13-11.28c-3.42-17.17-17.53-30.17-30.17-35.38a72.93,72.93,0,0,0-31.25-4.92l-1.76.23C148,12.23,136,26.24,136,26.24c17.75-13.89,44.4-15.52,62-8.29s30.43,21.9,33.8,43.71c0-.07,0-.13,0-.2C231.88,61.25,231.88,61,231.89,60.8Z"/><path class="cls-1" d="M174.62,146.44c.18-.88,2.72-1.06,2.72-1.06a14.52,14.52,0,0,1-1.16,11C176,153.55,176.56,148.2,174.62,146.44Z"/><path class="cls-1" d="M130.93,92.87c-12.5-14.93-14.62-34.94-8.62-51.6-3.58,5.52-11.81,21.89-1.63,44.43C133,113,166.82,114.12,178.19,97a32.76,32.76,0,0,0,2-3.48C170.43,110,143.75,108.19,130.93,92.87Z"/><path class="cls-1" d="M195.77,117.75a4.08,4.08,0,0,1,4.09-4.08l.21,0a17.29,17.29,0,0,0-3.39-7.16,16.84,16.84,0,0,1-.37,4.48,6.55,6.55,0,0,0,3.06,12.35,11.89,11.89,0,0,0,.5-1.53h0A4.09,4.09,0,0,1,195.77,117.75Z"/><path class="cls-2" d="M200.31,119.54c0,.1-.08.21-.13.31a2.21,2.21,0,0,1-2.77-1.27,2.45,2.45,0,0,0,3-.35l.09-.09A3.49,3.49,0,0,1,200.31,119.54Z"/><path class="cls-1" d="M200.51,118.14l-.09.09a2.45,2.45,0,0,1-3,.35,2.21,2.21,0,0,0,2.77,1.27c.05-.1.09-.21.13-.31A3.52,3.52,0,0,0,200.51,118.14Z"/><path class="cls-1" d="M213.13,117.06c.51-20.72-16.79-34.5-16.79-34.5S209,98.37,207.55,117l-3.45,3.21A58.25,58.25,0,0,1,199,145.53c-5.06-9.15-16.23-15.21-20.83-16.3-3.13,1.77-10.08,5.59-14.13,10.07a16.6,16.6,0,0,1,1.85,4.47,23.72,23.72,0,0,1-.56,11.46s7.74,4.32,7.63,4.11c2.11-7.31-.7-10.61-2.85-14.37a98.12,98.12,0,0,1,9.2-4.94c2.29,3.16,3.47,8.37,1,15.79-.74,2.22-1.81,4.49-2.45,6a26.08,26.08,0,0,0,3,1.59,11.92,11.92,0,0,0,8.86-7.21,5.08,5.08,0,0,0,.1-2.85,8,8,0,0,1-1.54,1.7c-1-2.33-1-4.17.25-5.56a3,3,0,0,1,2.27-1,2.88,2.88,0,0,1,2.75,1.79c1.94,4.76-2.56,9.77-2.56,9.77s4.31-.19,5.55-.8c2.53-5.12,10.38-21.81,12.61-38.67Z"/></g></svg>