<svg id="Layer_1" data-name="Layer 1" xmlns="http://www.w3.org/2000/svg" viewBox="0 0 201.85 248.73"><defs><style>.cls-1{fill:#ffc62f;}.cls-2{fill:#fff;}.cls-3{fill:#edb49f;}.cls-4{fill:#4f2683;}</style></defs><title>MIN</title><g id="MIN"><path class="cls-1" d="M102.18,171.62a28.46,28.46,0,0,1,7.07-12.4s-6.84,9.12-4.86,23.47a57.34,57.34,0,0,1,10.74-23.29c8.86-11.53,17.37-16.93,24.42-25.55A40.7,40.7,0,0,0,147,120.34,36.4,36.4,0,0,0,148.8,112c-1.91.17-3.73.4-5.55.58,0,.07,0,.14,0,.19-1.84,6.15-5.4,10.57-11,13.16-7.38,7.53-18.4,12.76-24.54,16.7C96.77,149.6,95,163.31,95,163.31c1.19-21,14.09-23.76,28.19-34.1.3-.21,1-.62,1.29-.84l-.44.18a41.53,41.53,0,0,1-7-.72,51.35,51.35,0,0,1-4.43,2.75,45.55,45.55,0,0,0-12.5,10.59c2-6.66,6.66-9.47,13.65-14.39a25,25,0,0,1-7.56-4.89C102.06,124,93,129.55,86.89,135.28,82,139.87,73,146.37,62.41,151.39c8.36-5.53,22.45-18,27.4-22.66,0,0-18.53,10.71-23.84,14.3a68.63,68.63,0,0,1,15.43-12.31s-18.86,7.73-29.71,15.14c-5.61,3.83-14.21,11.65-19.18,17,2-.44,9.79-2,11.85-2.22,13.95-1.43,29.19-.35,42.55-16.43l.63-.76a52.43,52.43,0,0,0-1.44,15.76c.49,13.43,10.92,18.73,15,21.55C101,179.07,100.7,177.42,102.18,171.62Z"/><path class="cls-1" d="M71,159.56l-.27,0s4,2.07,7.23,2.07a18.1,18.1,0,0,0,6-1.06s-.54-7.69.18-10.21C84.16,150.38,77.94,157.84,71,159.56Z"/><path class="cls-2" d="M103.55,101.94v0s6.71,2,10.76,5.09c0,0-4.4-.89-8.89-1.46a18,18,0,0,0,27.14,3.18,15.26,15.26,0,0,1-2.06,1.23,11.5,11.5,0,0,1-4.19,1.08,13.05,13.05,0,0,1-5.81.35l.16,0c7.73-1.33,14.94-7.24,14.13-16.26-.35-3.85-1.53-8-4-10.56a15.6,15.6,0,0,1,4.84,16.55,16.91,16.91,0,0,0,1.59-6.94A13,13,0,0,1,137,101a17.19,17.19,0,0,0,1.24-6.17c.05.25.08.5.12.74,0,0,0,0,0,0a17.82,17.82,0,0,0-.4-3.79v-.18a21.8,21.8,0,0,0-12.24-16A44.28,44.28,0,0,0,102.43,72c-1.64.17-3.24.38-4.81.58-8.4,1.08-16.34,2.1-24.84-2.67C62.24,64.64,54.44,52.78,53,39.77l-.16-1.42c-.21-1.79-.29-3.69-.39-5.53-.15-1.62-.45-2.51-.48-2.3a2.34,2.34,0,0,0,0,.39A25.86,25.86,0,0,1,51.4,35c-.25,1.62-.58,4.68-.61,4.58s-.07-.26-.08-.38a8.94,8.94,0,0,1-.09-1.35c0-.91,0-1.82-.07-2.73-.12-2.28-.5-8.92-.68-9.77,0-.22-.14-1-.36-1.11,0,.78,0,1.57,0,2.35-.09,2-.54,4.45-.75,6.48s-.55,4-.85,6.06a14.62,14.62,0,0,1-.22,1.49s0-.08,0-.12c-.11-1.24-.42-5.23-.4-9.77v-.93l-.09.53a110.26,110.26,0,0,0-1.71,17c0,.19,0,.73,0,1a54.78,54.78,0,0,0,3.68,19.85c5.54,14.22,16.28,23.65,31.91,28C88.77,98.46,97.49,100.1,103.55,101.94Z"/><path class="cls-1" d="M115.86,193.83a115.81,115.81,0,0,0-10.58-7.29c-4.06-2.25-8.48-4.73-10.21-6.25,0,0,0,7.12,3.45,12.56,2.6,4.05,9.69,7.75,14.32,10.52C113.23,201.87,114.31,198,115.86,193.83Z"/><path class="cls-1" d="M107.21,184.89c3.36,2.09,7.41,4.62,9.65,6.4.54-1.31,1.13-2.6,1.74-3.82,3.59-7.08,7.11-9.6,8.5-17a18,18,0,0,0-4.78-15.8s-8,8.78-11.18,15.94A44.2,44.2,0,0,0,107.21,184.89Z"/><path class="cls-1" d="M91.7,101.69l-1.89-.47c-1.27-.32-2.55-.62-3.84-.92s-2.84-.66-4.24-1q-.11.53-.21,1c-.2,1.25-.37,2.52-.52,3.79,3.19-.83,7-1.72,10.61-2.36l.25,0Z"/><path class="cls-2" d="M100.82,55.19C89,47.87,86,40.91,84.22,30.95a41.44,41.44,0,0,0-1.1-4.58,48.11,48.11,0,0,1,0,7.31,65,65,0,0,0-2.74-10,74.83,74.83,0,0,1,1.14,10.72,58.45,58.45,0,0,0-2.05-8.5c.28,1.84.5,3.57.68,5,.61,4.91-.56,13.69,2.92,22.9,2.25,6,7.15,10.32,10.08,12.52C95.6,62.83,98.71,58.43,100.82,55.19Z"/><path class="cls-3" d="M185.58,118.57c-3.63,1.43-12.1-1.13-17.38-1.51a15.4,15.4,0,0,0-9,2.11c-1.44-3.63.23-8.54.23-8.54-1.1,0-5.08.51-6.2.57a2.87,2.87,0,0,1-1,.2c0,.12,0,.24,0,.36s-1.67,12.83-7.75,21.2c1.59.88,5.61,2.08,7,3.38a9,9,0,0,1,2.64,7.23,47.42,47.42,0,0,1-1.59,8.67s-.31-7-.93-9-3-3.95-5.2-4.63c-1-.31-2.88-.81-5-1.27-4,4.59-8,7.76-11.84,11.13a3,3,0,0,0,1.77,1.36c2.28.6,5.16-.76,5.16-.76s-1.83,8.48,3,15.71c3.63,5.39,10.65,4,10.65,4s1.51-10.66,8.16-19.2a38.8,38.8,0,0,1,18.82-13.49,9.38,9.38,0,0,1-.14-3.94,4,4,0,0,1,3.67-2.49,10.48,10.48,0,0,1,3.73.93c-.93-.19-3.36-.31-4.61,1-1,1-.52,3-.26,3.93a29.21,29.21,0,0,1,10.07-.07c.91.23,1.74.07,2-1.06s.3-2.49-.3-2.95-1.59-.6-2.57-1.36-1.81-2.57-1.74-5.21A18.38,18.38,0,0,0,185.58,118.57Zm-12.35,2.06a10.32,10.32,0,0,1,1.8,2.93,3.18,3.18,0,0,1,0,.43h0v.17c-.08.86-.49,4.87-1.41,6a3.43,3.43,0,0,1-.48.63c-1.06,1-2.91,1.93-6.42,4.36-3.86,2.68-6.91,8.16-6.91,8.16s1.1-5.18,3.48-8.13a30.36,30.36,0,0,1,9.19-7.35l1.07-4.77a8,8,0,0,0-2.84-1.29c-2.07-.36-5.55-.32-7.68-1l0,0c2.55-.31,4-1.06,7.84-1.68a14.13,14.13,0,0,1,6.72.5A11,11,0,0,0,173.23,120.63Z"/><path class="cls-1" d="M163.1,110.78c-1.87,1.24-1.43,5-1.43,5a11.38,11.38,0,0,1,5.17-2.49,26.5,26.5,0,0,1,8.53-.25,14.76,14.76,0,0,0-4.36,1.49c5.23.69,6.16,2.37,13.14,1.87a8.4,8.4,0,0,0,7.84-7.1,29.1,29.1,0,0,1-5.23,1.56c-3.61.81-10.9-.31-13.08-.56S165,109.53,163.1,110.78Z"/><path class="cls-1" d="M93.87,70.29l3.4-.42c1.59-.2,3.21-.41,4.87-.59a45.36,45.36,0,0,1,10.07-.11,47.29,47.29,0,0,1,14.23,3.66,24.67,24.67,0,0,1,14.39,18.71h0c0,.22.08.44.12.66s0,.17,0,.25c0,.28.08.57.11.85h0a182.08,182.08,0,0,1,19.71-1.26,117.18,117.18,0,0,1,16.76,1.31A70.74,70.74,0,0,0,162,71c-16.78-15.9-37.52-23.49-54.83-24.29a22.89,22.89,0,0,1-2.14,7.07,26.24,26.24,0,0,1-2.66,4.45c-1.63,2.19-4.89,6.69-7.89,11.23C94.43,69.57,93.87,70.29,93.87,70.29Z"/><path class="cls-1" d="M115.8,217.88s1.76-3.1,3.71-6.56a41,41,0,0,0-4.92-3.56c-1.85-1.15-5-2.73-7.8-4.32a15.13,15.13,0,0,0,2.33,8.43A20.78,20.78,0,0,0,115.8,217.88Z"/><path class="cls-1" d="M104.46,119.51c-.28-.38-.55-.76-.81-1.17l-.57-.49c-1.92.39-27.67,3.77-58.81,24.7-10.31,6.93-23,19.24-29.21,26.1,2.68-1.17,8.44-3.59,13-5,4.66-4.79,12.31-12.54,19.32-17.45C63.63,134.83,91.42,123.07,104.46,119.51Z"/><path class="cls-1" d="M180.06,153.2a54.94,54.94,0,0,1,15-7.05s-.27-4.34-4.67-8.47c0,0-6.66-1.87-15,1.93S159.08,151,155.65,158.82,152,175,151.59,181.07s.65,15.22-1.75,23.43c0,0,3.94-5.82,5.36-22.25,1.29-14.9,5-25.15,11.83-29.95,0,0-5.48,7.6-7.35,20s-1.49,17.31-3.8,27.64l-.57,1.94s5.48-7.34,8.45-26.46c2.6-16.72,7.49-24.23,14.22-28.15a49.29,49.29,0,0,0-11.06,23.79S172,158.49,180.06,153.2Z"/><path class="cls-3" d="M135.43,165.28c-2.51-3.69-4.24-11.07-4.24-11.07a6.9,6.9,0,0,1-5-2.59l-.93,1a34,34,0,0,1,4.55,11.3c1.31,5.62-2.2,14.76-2.2,14.76a50.24,50.24,0,0,1,2.63,10.17l.33-.2s9.79-5.19,15.05-7.39c.83-.35,1.88-.73,3.05-1.12a78.34,78.34,0,0,1,.77-8c-1,0-1.94,0-2.73,0C141.32,172.11,137.95,169,135.43,165.28Z"/><path class="cls-3" d="M189.18,172c-2.67-.08-13.15-.41-19.66-.41h-.08a18.27,18.27,0,0,0-1.74,3.64c1.82-.36,3.57-.67,5.18-.91,8.87-1.34,16.17-1.57,17.35-1.73s3.3-.08,4.08-.71C194.31,171.87,191.85,172.07,189.18,172Z"/><path class="cls-1" d="M109.95,221.72a5.41,5.41,0,0,0,3,3.23c.8-2.56,1.85-5.38,1.85-5.38a21.28,21.28,0,0,1-3.75-2.6A4.33,4.33,0,0,0,109.95,221.72Z"/><path class="cls-3" d="M192.31,161.2a14.86,14.86,0,0,0-5-.56s2.43-5.91,2.18-9.15c0,0-14.09,6.07-18.13,17.25,0,0,8.45.22,13.19.78s7.81.58,8.87.65,3.24.19,2.55-3.68S194.17,162,192.31,161.2Z"/><path class="cls-1" d="M108.85,237.78c-1.11,1.38-1.62,4.15-.91,5a1.44,1.44,0,0,0,2.29,0,2.22,2.22,0,0,0-.06-2.93A22.5,22.5,0,0,1,108.85,237.78Z"/><path class="cls-1" d="M125.35,182.52c-.6,1-1.54,2.43-2.1,3.18-1.76,2.37-6.09,11.8-7.93,19.19.55.34,1.05.67,1.48,1a23.11,23.11,0,0,1,3.92,3.32c.88-1.57,2.62-3.17,3.31-4.43,2.54-4.61,4.49-10.07,3.86-15A20.62,20.62,0,0,0,125.35,182.52Z"/><path class="cls-1" d="M111.76,233.46a13.33,13.33,0,0,1-2.43-2.11c-2,3.38-1,4.17,1.7,6.18a3.34,3.34,0,0,1,1.5,3.17s2.55-1.29,2.38-2.93C114.8,236.69,113.23,234.46,111.76,233.46Z"/><path class="cls-1" d="M118.37,217.28a62.49,62.49,0,0,0-3.69,8.53l.42.26a18.72,18.72,0,0,1,3.36,3.65,31,31,0,0,0,5.69-9.61c1.65-5.1-.32-11.22-.32-11.22A90.17,90.17,0,0,0,118.37,217.28Z"/><path class="cls-1" d="M113.12,227.29A9.31,9.31,0,0,1,110,225a4.76,4.76,0,0,0-.76,3.56c.45,1.93,2.24,2.77,4.15,3.74a5.9,5.9,0,0,1,2.63,2.91,3.08,3.08,0,0,0,1.28-4A8.52,8.52,0,0,0,113.12,227.29Z"/><path class="cls-4" d="M179,96.15a112.59,112.59,0,0,0-18.17-1.55,193.44,193.44,0,0,0-19.6,1.16s0,0,0,0c0,11.93-10.28,20.45-19.85,20.59-14.45.21-19.76-11.43-19.87-12.11-1-.3-2.13-.6-3.27-.9-1.92.24-4,.53-6.12.91-4,.7-8.09,1.68-11.44,2.56-.16,1.77-.42,4.61-.43,4.85-.48,10,.16,9.35.16,9.35,2.91-1.14,13.66-3.9,13.66-3.9,3.15-.73,6.88-1.52,11.26-2.33a18.81,18.81,0,0,0,35.35-4.94c20.17-2.19,29.7-2.25,42.15-.59A76.86,76.86,0,0,0,179,96.15Z"/><path d="M177.58,119.51a14.12,14.12,0,0,0-6.72-.5c-3.8.62-5.29,1.37-7.85,1.68l0,0c2.13.7,5.62.65,7.69,1a8.07,8.07,0,0,1,2.85,1.29l-1.07,4.78a30.26,30.26,0,0,0-9.18,7.35,8.65,8.65,0,0,0-.64.9,3.56,3.56,0,0,0-.26.41c-.11.18-.21.36-.31.54s-.23.44-.35.68-.22.45-.31.67a24.62,24.62,0,0,0-1,2.7l-.09.27c-.19.63-.32,1.15-.41,1.5a1.33,1.33,0,0,0,0,.14l0,.1c0,.07,0,.13,0,.16a.1.1,0,0,0,0,0c.05-.09.32-.57.77-1.27l.32-.5a30,30,0,0,1,3.73-4.62c.22-.22.44-.43.67-.63a15.23,15.23,0,0,1,1.4-1.12c3.5-2.43,5.35-3.37,6.41-4.36a4.09,4.09,0,0,0,.49-.63c.92-1.12,1.34-5.13,1.41-6v0l0-.15c0-.15,0-.27,0-.35v-.09a10.28,10.28,0,0,0-1.8-2.92A10.87,10.87,0,0,1,177.58,119.51Zm0,0a14.12,14.12,0,0,0-6.72-.5c-3.8.62-5.29,1.37-7.85,1.68l0,0c2.13.7,5.62.65,7.69,1a8.07,8.07,0,0,1,2.85,1.29l-1.07,4.78a30.26,30.26,0,0,0-9.18,7.35,8.65,8.65,0,0,0-.64.9,3.56,3.56,0,0,0-.26.41c-.11.18-.21.36-.31.54s-.23.44-.35.68-.22.45-.31.67a24.62,24.62,0,0,0-1,2.7l-.09.27c-.19.63-.32,1.15-.41,1.5a1.33,1.33,0,0,0,0,.14l0,.1c0,.07,0,.13,0,.16a.1.1,0,0,0,0,0c.05-.09.32-.57.77-1.27l.32-.5a30,30,0,0,1,3.73-4.62c.22-.22.44-.43.67-.63a15.23,15.23,0,0,1,1.4-1.12c3.5-2.43,5.35-3.37,6.41-4.36a4.09,4.09,0,0,0,.49-.63c.92-1.12,1.34-5.13,1.41-6v0l0-.15c0-.15,0-.27,0-.35v-.09a10.28,10.28,0,0,0-1.8-2.92A10.87,10.87,0,0,1,177.58,119.51Zm0,0a14.12,14.12,0,0,0-6.72-.5c-3.8.62-5.29,1.37-7.85,1.68l0,0c2.13.7,5.62.65,7.69,1a8.07,8.07,0,0,1,2.85,1.29l-1.07,4.78a30.26,30.26,0,0,0-9.18,7.35,8.65,8.65,0,0,0-.64.9,3.56,3.56,0,0,0-.26.41c-.11.18-.21.36-.31.54s-.23.44-.35.68-.22.45-.31.67a24.62,24.62,0,0,0-1,2.7l-.09.27c-.19.63-.32,1.15-.41,1.5a1.33,1.33,0,0,0,0,.14l0,.1c0,.07,0,.13,0,.16a.1.1,0,0,0,0,0c.05-.09.32-.57.77-1.27l.32-.5a30,30,0,0,1,3.73-4.62c.22-.22.44-.43.67-.63a15.23,15.23,0,0,1,1.4-1.12c3.5-2.43,5.35-3.37,6.41-4.36a4.09,4.09,0,0,0,.49-.63c.92-1.12,1.34-5.13,1.41-6v0l0-.15c0-.15,0-.27,0-.35v-.09a10.28,10.28,0,0,0-1.8-2.92A10.87,10.87,0,0,1,177.58,119.51Zm0,0a14.12,14.12,0,0,0-6.72-.5c-3.8.62-5.29,1.37-7.85,1.68l0,0c2.13.7,5.62.65,7.69,1a8.07,8.07,0,0,1,2.85,1.29l-1.07,4.78a30.26,30.26,0,0,0-9.18,7.35,8.65,8.65,0,0,0-.64.9,3.56,3.56,0,0,0-.26.41c-.11.18-.21.36-.31.54s-.23.44-.35.68-.22.45-.31.67a24.62,24.62,0,0,0-1,2.7l-.09.27c-.19.63-.32,1.15-.41,1.5a1.33,1.33,0,0,0,0,.14l0,.1c0,.07,0,.13,0,.16a.1.1,0,0,0,0,0c.05-.09.32-.57.77-1.27l.32-.5a30,30,0,0,1,3.73-4.62c.22-.22.44-.43.67-.63a15.23,15.23,0,0,1,1.4-1.12c3.5-2.43,5.35-3.37,6.41-4.36a4.09,4.09,0,0,0,.49-.63c.92-1.12,1.34-5.13,1.41-6v0l0-.15c0-.15,0-.27,0-.35v-.09a10.28,10.28,0,0,0-1.8-2.92A10.87,10.87,0,0,1,177.58,119.51Zm0,0a14.12,14.12,0,0,0-6.72-.5c-3.8.62-5.29,1.37-7.85,1.68l0,0c2.13.7,5.62.65,7.69,1a8.07,8.07,0,0,1,2.85,1.29l-1.07,4.78a30.26,30.26,0,0,0-9.18,7.35,8.65,8.65,0,0,0-.64.9,3.56,3.56,0,0,0-.26.41c-.11.18-.21.36-.31.54s-.23.44-.35.68-.22.45-.31.67a24.62,24.62,0,0,0-1,2.7l-.09.27c-.19.63-.32,1.15-.41,1.5a1.33,1.33,0,0,0,0,.14l0,.1c0,.07,0,.13,0,.16a.1.1,0,0,0,0,0c.05-.09.32-.57.77-1.27l.32-.5a30,30,0,0,1,3.73-4.62c.22-.22.44-.43.67-.63a15.23,15.23,0,0,1,1.4-1.12c3.5-2.43,5.35-3.37,6.41-4.36a4.09,4.09,0,0,0,.49-.63c.92-1.12,1.34-5.13,1.41-6v0l0-.15c0-.15,0-.27,0-.35v-.09a10.28,10.28,0,0,0-1.8-2.92A10.87,10.87,0,0,1,177.58,119.51Zm0,0a14.12,14.12,0,0,0-6.72-.5c-3.8.62-5.29,1.37-7.85,1.68l0,0c2.13.7,5.62.65,7.69,1a8.07,8.07,0,0,1,2.85,1.29l-1.07,4.78a30.26,30.26,0,0,0-9.18,7.35,8.65,8.65,0,0,0-.64.9,3.56,3.56,0,0,0-.26.41c-.11.18-.21.36-.31.54s-.23.44-.35.68-.22.45-.31.67a24.62,24.62,0,0,0-1,2.7l-.09.27c-.19.63-.32,1.15-.41,1.5a1.33,1.33,0,0,0,0,.14l0,.1c0,.07,0,.13,0,.16a.1.1,0,0,0,0,0c.05-.09.32-.57.77-1.27l.32-.5a30,30,0,0,1,3.73-4.62c.22-.22.44-.43.67-.63a15.23,15.23,0,0,1,1.4-1.12c3.5-2.43,5.35-3.37,6.41-4.36a4.09,4.09,0,0,0,.49-.63c.92-1.12,1.34-5.13,1.41-6v0l0-.15c0-.15,0-.27,0-.35v-.09a10.28,10.28,0,0,0-1.8-2.92A10.87,10.87,0,0,1,177.58,119.51Zm20.53,44.58a6,6,0,0,0-3.53-4.24c-1.06-.23-3.77-.94-3.77-.94a30.56,30.56,0,0,0,2-9.19c1.77-.94,5.29-2.35,5.29-2.35a26.23,26.23,0,0,0-5.41-11.07,30.83,30.83,0,0,0,1.18-4.35c0-.83-1.53-2.23-3.18-3.29s-1.88-2.94-1.88-5.18-.94-5.06-1.29-5.18,4.2-1.55,5.61-5.56a24.84,24.84,0,0,0,1.45-7.25c-1.88,2.74-9.24,3.87-9.24,3.87-.58-6.24-5.6-26.38-25.85-44.63s-54.75-21.55-54.75-21.55a13.33,13.33,0,0,1-.38,3.55,18.2,18.2,0,0,1-1.66,5.38l-.19.33c-4.76-2.58-9.76-6-12.06-10.1-4.44-7.85-3.89-14.6-6.24-20.14A41.86,41.86,0,0,0,73.15,6.76c-.95-.83-1.27-1.1-1.76-.71s-.17.95.23,1.53A50.6,50.6,0,0,1,76.76,23.9C78,33,76.33,47.27,80.58,56.45A41.17,41.17,0,0,0,90.5,69.3l.3.27.95.94c-6.05.57-11.68.35-17.67-3-9.62-4.85-17-16.12-18.36-28L55.56,38c-.38-3.27-.22-6.54-.37-9.81a68.11,68.11,0,0,0-1-8.87c-.22-1.29-.49-2.57-.8-3.85a.07.07,0,0,1,0,0,19.39,19.39,0,0,0-.58-2.3c-.15-.5-.31-1-.47-1.51a15.64,15.64,0,0,0-1.5-3.2A22.83,22.83,0,0,0,48.28,5a12,12,0,0,0-1.9-1.72s-.65-.4-1.09-.17c0,0-.58.4,0,1.66a5.41,5.41,0,0,1,.34.68A8.58,8.58,0,0,1,46,6.3a7.68,7.68,0,0,1,.23,1C46.7,9.9,47,15.47,45,26.11l0,0c-.18,1.54-.38,3.09-.65,4.62a114.59,114.59,0,0,0-1.8,16.49c0,.26,0,1,0,1.17-.06,5.22.94,39.42,36.31,50.19-.16.73-.32,1.44-.43,2.12-2.39,15.08-1.51,21.44-1.51,21.44s0,.06,0,.15a167.07,167.07,0,0,0-24,11.33A143.44,143.44,0,0,0,22.54,156c-1.92,1.85-3.72,3.68-5.43,5.48l-1.24,1.31a.4.4,0,0,1-.08.09A131,131,0,0,0,3.34,178.38c16-11.54,40.95-15,48.58-15.44,8-.46,16.11-1.84,16.11-1.84A30.51,30.51,0,0,0,75,163.62a19.71,19.71,0,0,0,8.77-.41,26.62,26.62,0,0,0,9,14.82c-.4,2.49,0,10.72,2.81,15.29a30.44,30.44,0,0,0,8,8.24,21.67,21.67,0,0,0,.83,7.65,21.27,21.27,0,0,0,3.9,6.1,11.65,11.65,0,0,0-1.41,4.71,5.32,5.32,0,0,0,1.41,4.08,9.55,9.55,0,0,0-1.67,3.25,8.49,8.49,0,0,0,.65,3.58,12.52,12.52,0,0,0-1.11,2.78,5,5,0,0,0,.46,2.71c-.58,1.13-2.29,6.43.23,8.56s5.66-1.85,5.66-1.85a8,8,0,0,0,3.65-2.83,6.46,6.46,0,0,0,1.06-3.18,8.61,8.61,0,0,0,2.52-3.12,5.69,5.69,0,0,0,.83-3s5.48-5.75,6.62-12.93a32.67,32.67,0,0,0-.47-11.77s4.12-6.26,3.93-13.42a89.75,89.75,0,0,1,18-9.62c.24,4.83,1,9-.51,16.77-1.89,9.66-10.49,16.72-10.49,16.72,12-1.29,20-11.89,23.2-19.55a175.84,175.84,0,0,0,6.05-19.08c11.72-2.28,22.42-2.88,26-3.41,4.71-.71,5.89-1.76,6-3.53A38.25,38.25,0,0,0,198.12,164.08Zm-9.29-34c1,.76,2,.91,2.57,1.36s.6,1.82.3,2.95-1.14,1.28-2,1.06a29.07,29.07,0,0,0-10.06.07c-.26-.89-.7-2.91.26-3.92,1.24-1.29,3.63-1.18,4.58-1a10.26,10.26,0,0,0-3.71-.93,4,4,0,0,0-3.67,2.49,9.34,9.34,0,0,0,.14,3.94,38.8,38.8,0,0,0-18.83,13.49c-6.65,8.54-8.15,19.2-8.15,19.2s-7,1.38-10.65-4c-4.87-7.23-3-15.72-3-15.72s-2.89,1.36-5.17.76a3,3,0,0,1-1.77-1.36c3.8-3.37,7.84-6.54,11.85-11.12,2.07.46,3.93,1,5,1.27,2.24.68,4.58,2.58,5.21,4.63s.93,9,.93,9a47.28,47.28,0,0,0,1.58-8.68,9,9,0,0,0-2.64-7.23c-1.43-1.29-5.43-2.49-7-3.37,6.08-8.37,7.75-21.21,7.75-21.21s0-.24,0-.36a2.79,2.79,0,0,0,1-.2c1.12-.06,5.1-.55,6.2-.57,0,0-1.66,4.91-.22,8.54a15.35,15.35,0,0,1,9-2.11c5.29.38,13.75,2.95,17.39,1.51a18.39,18.39,0,0,1,1.51,6.28C187,127.49,187.85,129.3,188.83,130.05Zm-2.06-19.22a29.65,29.65,0,0,0,5.23-1.55,8.39,8.39,0,0,1-7.85,7.09c-7,.5-7.9-1.18-13.13-1.86a14.64,14.64,0,0,1,4.37-1.49,26.48,26.48,0,0,0-8.54.24,11.47,11.47,0,0,0-5.17,2.49s-.43-3.73,1.43-5,8.41-.75,10.58-.5S183.15,111.65,186.77,110.84Zm-4-1.58c-12.45-1.66-22-1.6-42.15.6a18.8,18.8,0,0,1-35.35,4.94c-4.37.81-8.11,1.6-11.26,2.33,0,0-10.75,2.76-13.65,3.9,0,0-.64.7-.16-9.35,0-.24.27-3.09.43-4.85C84,106,88.1,105,92.08,104.27c2.16-.38,4.21-.67,6.12-.9,1.14.3,2.24.6,3.27.9.11.69,5.43,12.33,19.88,12.12,9.56-.15,19.83-8.66,19.84-20.59v0a193.7,193.7,0,0,1,19.6-1.15A113.08,113.08,0,0,1,179,96.14,76.81,76.81,0,0,1,182.79,109.26ZM81,104.13c.14-1.27.31-2.54.51-3.79.07-.35.14-.7.22-1l4.24,1c1.28.3,2.56.6,3.83.92l1.89.47.18,0-.26,0C88,102.41,84.21,103.3,81,104.13Zm24.07-50.39a23,23,0,0,0,2.14-7.08c17.31.8,38,8.39,54.82,24.29a70.61,70.61,0,0,1,15.51,22.41,118.44,118.44,0,0,0-16.76-1.31,181.25,181.25,0,0,0-19.71,1.27h0c0-.28-.07-.57-.11-.85,0-.09,0-.16,0-.25s-.08-.44-.12-.66h0a24.67,24.67,0,0,0-14.38-18.71,47.13,47.13,0,0,0-14.23-3.66,45,45,0,0,0-10.06.1c-1.67.17-3.29.39-4.87.59l-3.41.42s.57-.71.66-.87c3-4.54,6.26-9,7.89-11.23A26.52,26.52,0,0,0,105.08,53.74Zm-22,0c-3.49-9.2-2.31-18-2.92-22.9-.18-1.41-.4-3.14-.68-5a57.66,57.66,0,0,1,2.05,8.51,75.38,75.38,0,0,0-1.13-10.7,64.6,64.6,0,0,1,2.72,10,47.56,47.56,0,0,0,0-7.3A41.45,41.45,0,0,1,84.22,31C86,40.91,89,47.87,100.83,55.19c-2.11,3.23-5.23,7.64-7.65,11.06C90.24,64.06,85.35,59.69,83.09,53.73Zm-34,14.51a55.06,55.06,0,0,1-3.68-19.85c0-.29,0-.85,0-1a110.82,110.82,0,0,1,1.71-17c0-.17.06-.35.09-.53l0,.93c0,4.54.28,8.53.4,9.77,0,0,0,.08,0,.12s.14-.93.22-1.49c.3-2,.65-4,.84-6.06s.67-4.44.75-6.48c0-.78.07-1.57,0-2.35.23.13.32.89.37,1.1.17.84.56,7.49.67,9.77.05.91.07,1.81.08,2.73a8.82,8.82,0,0,0,.1,1.35,3.49,3.49,0,0,0,.08.38s.35-3,.6-4.58a25.6,25.6,0,0,0,.54-4.12,2.86,2.86,0,0,1,0-.39c0-.21.33.67.48,2.29.1,1.84.18,3.73.4,5.53L53,39.77c1.48,13,9.28,24.87,19.82,30.18,8.5,4.77,16.44,3.75,24.85,2.67,1.56-.2,3.17-.41,4.8-.58a44.12,44.12,0,0,1,23.29,3.54,21.83,21.83,0,0,1,12.24,16v.18a17.66,17.66,0,0,1,.41,3.79v0c0-.25-.07-.48-.12-.74A17.27,17.27,0,0,1,137,101a13.08,13.08,0,0,0,.26-6.86,16.78,16.78,0,0,1-1.59,6.93,15.61,15.61,0,0,0-4.84-16.55c2.43,2.6,3.6,6.71,3.95,10.57.81,9-6.4,14.92-14.12,16.25l-.16,0a13.17,13.17,0,0,0,5.81-.35A11.49,11.49,0,0,0,130.5,110a14.78,14.78,0,0,0,2.06-1.22,18,18,0,0,1-27.14-3.17c4.49.56,8.89,1.45,8.89,1.45-4.05-3.12-10.76-5.09-10.76-5.09v0c-6.07-1.84-14.79-3.47-22.53-5.67C65.39,91.88,54.65,82.45,49.11,68.24Zm-21,95.42c-4.56,1.4-10.33,3.83-13,5,6.24-6.87,18.89-19.17,29.21-26.1,31.14-20.93,56.89-24.31,58.81-24.7l.56.49c.26.4.53.79.81,1.17-13,3.56-40.82,15.32-57.07,26.7C40.37,151.12,32.72,158.87,28.07,163.66ZM84,160.6a18.1,18.1,0,0,1-6,1.06c-3.29,0-7.24-2.07-7.24-2.07l.27,0c6.89-1.73,13.12-9.18,13.12-9.18C83.44,152.91,84,160.6,84,160.6Zm2.12-1.43a52.2,52.2,0,0,1,1.43-15.76l-.63.76c-13.37,16.08-28.6,15-42.56,16.44-2.06.21-9.81,1.78-11.86,2.21,5-5.32,13.57-13.13,19.19-17,10.51-7.17,28.54-14.66,29.66-15.12A68.9,68.9,0,0,0,66,143c5.14-3.48,22.7-13.63,23.78-14.26-5,4.75-19,17.11-27.35,22.63,10.63-5,19.64-11.52,24.48-16.11C93,129.55,102.06,124,106.18,121.9a25,25,0,0,0,7.56,4.89c-7,4.93-11.66,7.74-13.66,14.39a45.69,45.69,0,0,1,12.5-10.6,49.51,49.51,0,0,0,4.43-2.74,41.8,41.8,0,0,0,7,.73l.43-.19c-.28.21-1,.62-1.29.84-14.07,10.33-27,13-28.18,34,.18-1.18,2.29-14,12.63-20.58,6.14-3.93,17.15-9.17,24.53-16.7,5.65-2.59,9.21-7,11-13.16a1.29,1.29,0,0,0,0-.19c1.83-.18,3.65-.41,5.55-.59a36.36,36.36,0,0,1-1.79,8.32,40.79,40.79,0,0,1-7.46,13.52c-7.05,8.61-15.57,14-24.42,25.54a57.22,57.22,0,0,0-10.74,23.28c-1.92-14,4.49-23,4.85-23.45a28.47,28.47,0,0,0-7.05,12.38c-1.47,5.8-1.22,7.45-1.13,9.1C97,177.9,86.59,172.6,86.1,159.17Zm41,11.33c-1.39,7.37-4.91,9.89-8.5,17-.61,1.23-1.2,2.52-1.74,3.82-2.23-1.78-6.29-4.3-9.65-6.39a44,44,0,0,1,3.94-14.26c3.15-7.15,11.18-15.94,11.18-15.94A18,18,0,0,1,127.1,170.5ZM98.51,192.85c-3.48-5.43-3.45-12.55-3.45-12.55,1.72,1.52,6.16,4,10.21,6.25a114.37,114.37,0,0,1,10.58,7.29c-1.55,4.17-2.62,8-3,9.54C108.21,200.6,101.12,196.91,98.51,192.85Zm8.28,10.58c2.77,1.6,5.95,3.17,7.8,4.33a40.73,40.73,0,0,1,4.92,3.55c-2,3.47-3.72,6.56-3.72,6.56a20.83,20.83,0,0,1-6.67-6A15.09,15.09,0,0,1,106.79,203.43Zm8,16.13s-1,2.83-1.85,5.38a5.38,5.38,0,0,1-3-3.23,4.32,4.32,0,0,1,1.12-4.75A20.93,20.93,0,0,0,114.81,219.57Zm-4.58,23.22a1.44,1.44,0,0,1-2.29,0c-.7-.83-.2-3.6.91-5a22.29,22.29,0,0,0,1.32,2.08A2.21,2.21,0,0,1,110.23,242.79Zm2.3-2.09a3.34,3.34,0,0,0-1.51-3.16c-2.71-2-3.66-2.8-1.69-6.18a13.1,13.1,0,0,0,2.42,2.1c1.48,1,3,3.23,3.15,4.31C115.08,239.41,112.54,240.7,112.54,240.7Zm3.52-5.53a5.88,5.88,0,0,0-2.63-2.9c-1.91-1-3.7-1.8-4.15-3.73A4.75,4.75,0,0,1,110,225a9.29,9.29,0,0,0,3.09,2.31,8.53,8.53,0,0,1,4.21,3.9A3.08,3.08,0,0,1,116.05,235.18Zm8.11-15.07a31,31,0,0,1-5.68,9.62,18.89,18.89,0,0,0-3.36-3.65l-.42-.26a61.21,61.21,0,0,1,3.68-8.54,89.09,89.09,0,0,1,5.47-8.38S125.81,215,124.16,220.11ZM124,204.74c-.69,1.26-2.43,2.85-3.31,4.42a23.23,23.23,0,0,0-3.91-3.32c-.42-.29-.93-.61-1.48-1,1.85-7.39,6.18-16.82,7.93-19.2.56-.75,1.51-2.23,2.1-3.18a20.58,20.58,0,0,1,2.53,7.19C128.52,194.68,126.58,200.13,124,204.74Zm24.66-24.65c-1.18.39-2.22.77-3.05,1.12-5.26,2.2-15.06,7.39-15.06,7.39l-.34.2a50,50,0,0,0-2.62-10.17s3.51-9.14,2.2-14.76a34,34,0,0,0-4.55-11.3c.31-.34.62-.65.93-1a6.91,6.91,0,0,0,5,2.6s1.73,7.37,4.24,11.06,5.89,6.83,11.31,6.83c.78,0,1.72,0,2.73,0A79.13,79.13,0,0,0,148.69,180.1Zm15.07-4.63c-3,19.13-8.45,26.47-8.45,26.47l.57-1.94c2.3-10.33,1.93-15.19,3.79-27.64S167,152.3,167,152.3c-6.85,4.79-10.54,15-11.83,29.95-1.38,15.91-5.11,21.88-5.35,22.23,2.38-8.2,1.36-17.32,1.74-23.41s.64-14.4,4.06-22.25S167,143.4,175.38,139.6s15-1.92,15-1.92c4.39,4.12,4.67,8.46,4.67,8.46a55.05,55.05,0,0,0-15,7.06c-8,5.28-13.13,17.91-13.13,17.91A49.33,49.33,0,0,1,178,147.32C171.26,151.24,166.37,158.75,163.77,175.47Zm26.46-2.89c-1.18.17-8.48.4-17.35,1.73-1.6.24-3.35.55-5.17.91a17.85,17.85,0,0,1,1.74-3.63h.08c6.51,0,17,.34,19.66.41s5.12-.12,5.12-.12C193.52,172.5,191.41,172.42,190.23,172.58Zm3.14-2.4c-1.06-.06-4.13-.08-8.86-.65s-13.19-.78-13.19-.78c4-11.18,18.13-17.26,18.13-17.26.25,3.23-2.18,9.15-2.18,9.15a14.93,14.93,0,0,1,5,.56c1.87.75,2.93,1.43,3.61,5.29S194.43,170.23,193.36,170.17ZM170.87,119c-3.8.62-5.29,1.37-7.85,1.68l0,0c2.13.7,5.62.65,7.69,1a8.07,8.07,0,0,1,2.85,1.29l-1.07,4.78a30.26,30.26,0,0,0-9.18,7.35,8.65,8.65,0,0,0-.64.9,3.56,3.56,0,0,0-.26.41c-.11.18-.21.36-.31.54s-.23.44-.35.68-.22.45-.31.67a24.62,24.62,0,0,0-1,2.7l-.09.27c-.19.63-.32,1.15-.41,1.5a1.33,1.33,0,0,0,0,.14l0,.1c0,.07,0,.13,0,.16a.1.1,0,0,0,0,0c.05-.09.32-.57.77-1.27l.32-.5a30,30,0,0,1,3.73-4.62c.22-.22.44-.43.67-.63a15.23,15.23,0,0,1,1.4-1.12c3.5-2.43,5.35-3.37,6.41-4.36a4.09,4.09,0,0,0,.49-.63c.92-1.12,1.34-5.13,1.41-6v0l0-.15c0-.15,0-.27,0-.35v-.09a10.28,10.28,0,0,0-1.8-2.92,10.87,10.87,0,0,1,4.36-1.12A14.05,14.05,0,0,0,170.87,119Zm6.72.5a14.12,14.12,0,0,0-6.72-.5c-3.8.62-5.29,1.37-7.85,1.68l0,0c2.13.7,5.62.65,7.69,1a8.07,8.07,0,0,1,2.85,1.29l-1.07,4.78a30.26,30.26,0,0,0-9.18,7.35,8.65,8.65,0,0,0-.64.9,3.56,3.56,0,0,0-.26.41c-.11.18-.21.36-.31.54s-.23.44-.35.68-.22.45-.31.67a24.62,24.62,0,0,0-1,2.7l-.09.27c-.19.63-.32,1.15-.41,1.5a1.33,1.33,0,0,0,0,.14l0,.1c0,.07,0,.13,0,.16a.1.1,0,0,0,0,0c.05-.09.32-.57.77-1.27l.32-.5a30,30,0,0,1,3.73-4.62c.22-.22.44-.43.67-.63a15.23,15.23,0,0,1,1.4-1.12c3.5-2.43,5.35-3.37,6.41-4.36a4.09,4.09,0,0,0,.49-.63c.92-1.12,1.34-5.13,1.41-6v0l0-.15c0-.15,0-.27,0-.35v-.09a10.28,10.28,0,0,0-1.8-2.92A10.87,10.87,0,0,1,177.58,119.51Zm0,0a14.12,14.12,0,0,0-6.72-.5c-3.8.62-5.29,1.37-7.85,1.68l0,0c2.13.7,5.62.65,7.69,1a8.07,8.07,0,0,1,2.85,1.29l-1.07,4.78a30.26,30.26,0,0,0-9.18,7.35,8.65,8.65,0,0,0-.64.9,3.56,3.56,0,0,0-.26.41c-.11.18-.21.36-.31.54s-.23.44-.35.68-.22.45-.31.67a24.62,24.62,0,0,0-1,2.7l-.09.27c-.19.63-.32,1.15-.41,1.5a1.33,1.33,0,0,0,0,.14l0,.1c0,.07,0,.13,0,.16a.1.1,0,0,0,0,0c.05-.09.32-.57.77-1.27l.32-.5a30,30,0,0,1,3.73-4.62c.22-.22.44-.43.67-.63a15.23,15.23,0,0,1,1.4-1.12c3.5-2.43,5.35-3.37,6.41-4.36a4.09,4.09,0,0,0,.49-.63c.92-1.12,1.34-5.13,1.41-6v0l0-.15c0-.15,0-.27,0-.35v-.09a10.28,10.28,0,0,0-1.8-2.92A10.87,10.87,0,0,1,177.58,119.51Zm0,0a14.12,14.12,0,0,0-6.72-.5c-3.8.62-5.29,1.37-7.85,1.68l0,0c2.13.7,5.62.65,7.69,1a8.07,8.07,0,0,1,2.85,1.29l-1.07,4.78a30.26,30.26,0,0,0-9.18,7.35,8.65,8.65,0,0,0-.64.9,3.56,3.56,0,0,0-.26.41c-.11.18-.21.36-.31.54s-.23.44-.35.68-.22.45-.31.67a24.62,24.62,0,0,0-1,2.7l-.09.27c-.19.63-.32,1.15-.41,1.5a1.33,1.33,0,0,0,0,.14l0,.1c0,.07,0,.13,0,.16a.1.1,0,0,0,0,0c.05-.09.32-.57.77-1.27l.32-.5a30,30,0,0,1,3.73-4.62c.22-.22.44-.43.67-.63a15.23,15.23,0,0,1,1.4-1.12c3.5-2.43,5.35-3.37,6.41-4.36a4.09,4.09,0,0,0,.49-.63c.92-1.12,1.34-5.13,1.41-6v0l0-.15c0-.15,0-.27,0-.35v-.09a10.28,10.28,0,0,0-1.8-2.92A10.87,10.87,0,0,1,177.58,119.51Zm0,0a14.12,14.12,0,0,0-6.72-.5c-3.8.62-5.29,1.37-7.85,1.68l0,0c2.13.7,5.62.65,7.69,1a8.07,8.07,0,0,1,2.85,1.29l-1.07,4.78a30.26,30.26,0,0,0-9.18,7.35,8.65,8.65,0,0,0-.64.9,3.56,3.56,0,0,0-.26.41c-.11.18-.21.36-.31.54s-.23.44-.35.68-.22.45-.31.67a24.62,24.62,0,0,0-1,2.7l-.09.27c-.19.63-.32,1.15-.41,1.5a1.33,1.33,0,0,0,0,.14l0,.1c0,.07,0,.13,0,.16a.1.1,0,0,0,0,0c.05-.09.32-.57.77-1.27l.32-.5a30,30,0,0,1,3.73-4.62c.22-.22.44-.43.67-.63a15.23,15.23,0,0,1,1.4-1.12c3.5-2.43,5.35-3.37,6.41-4.36a4.09,4.09,0,0,0,.49-.63c.92-1.12,1.34-5.13,1.41-6v0l0-.15c0-.15,0-.27,0-.35v-.09a10.28,10.28,0,0,0-1.8-2.92A10.87,10.87,0,0,1,177.58,119.51Z"/><path class="cls-2" d="M201.08,163.67c-.54-3.29-3.52-6.16-5.84-6.68l-.61-.14a34.63,34.63,0,0,0,1-5.12c1.34-.61,2.9-1.25,3.57-1.52l2.29-.92-.46-2.41a28.67,28.67,0,0,0-5-11.14,13.61,13.61,0,0,0,.85-3.74c0-1.91-1.53-3.87-4.55-5.81-.24-.15-.52-.6-.52-2.67a19.28,19.28,0,0,0-.54-4,11.9,11.9,0,0,0,4.7-5.79,29.83,29.83,0,0,0,1.54-6.87,27,27,0,0,0,0-2.73l-.31-3.71s-1.86,1.48-2.9,2.28c-.28.21-.49.36-.6.43a5.3,5.3,0,0,1-.47.31c-.76.46-1.6.82-2,1a17.52,17.52,0,0,1-3.4,1.29c-1.95-10.08-9.09-27.72-26.35-43.27C140.72,43.77,106.42,40.31,105,40.16l-3.22-.3a56.82,56.82,0,0,1-.37,6.19l0,.16c-.11.66-.24,1.29-.4,1.88-3.91-2.44-6.63-4.92-8-7.25-2.44-4.31-3.23-8.27-4-12.09A38.77,38.77,0,0,0,86.9,21,45.12,45.12,0,0,0,75,4.46a5,5,0,0,0-3.31-1.62,3.65,3.65,0,0,0-2.31.85c-.62.51-2.48,2.39-.4,5.47A48.56,48.56,0,0,1,73.7,24.28a94,94,0,0,1,.6,10.34c.19,7.72.41,16.45,3.47,23.08a38.47,38.47,0,0,0,4.89,7.79c.18.22.87.95,1,1.1l.94,1.07a21.59,21.59,0,0,1-9-2.76l-.12-.07C66.66,60.41,59.94,50.08,58.7,39.11l-.16-1.43a56.16,56.16,0,0,1-.28-6c0-1.18,0-2.4-.08-3.62a71.67,71.67,0,0,0-1-9.25c-.22-1.29-.5-2.6-.8-3.87l0-.09a21.7,21.7,0,0,0-.64-2.54c-.16-.54-.33-1.08-.51-1.61A18.22,18.22,0,0,0,53.4,6.86a25.09,25.09,0,0,0-2.92-3.94A14.87,14.87,0,0,0,48.11.8L48,.72A4.53,4.53,0,0,0,45.6,0,3.65,3.65,0,0,0,43.9.41l-.33.21c-1.32.93-2.11,3-.92,5.42l.11.21s.09.16.17.34.14.36.21.58a5.56,5.56,0,0,1,.16.7c.4,2.13.77,7.21-1.17,17.4l-.1.53c-.22,1.81-.4,3.18-.62,4.46a117.15,117.15,0,0,0-1.85,16.93c0,.19,0,.59,0,.91v.29c0,4.12.59,39.85,35.85,52.24h0l-.11,0a108,108,0,0,0-1.61,19.69,170.62,170.62,0,0,0-22.36,10.72,146.8,146.8,0,0,0-31,22.77c-1.89,1.82-3.7,3.64-5.53,5.57-.43.45-.85.9-1.22,1.3l-.12.13A135.75,135.75,0,0,0,1.06,176.29a7.52,7.52,0,0,0-.57,1c-.41.95-.85,2.77,0,3.73.52.58,1.53,1.07,3.46.25a4.24,4.24,0,0,0,.6-.25c.37-.21.92-.55,1.1-.69C17.34,171.4,44.16,166.46,52,166c6.56-.39,13.07-1.35,15.49-1.73a33.32,33.32,0,0,0,6.76,2.34,18.36,18.36,0,0,0,3.93.41,23.66,23.66,0,0,0,3.3-.24,30.29,30.29,0,0,0,8.05,12.6c-.13,3.81.52,11,3.37,15.6a32.54,32.54,0,0,0,7.51,8.16,22,22,0,0,0,1.07,7.22,21.75,21.75,0,0,0,3.2,5.54,14.12,14.12,0,0,0-.89,4,8.48,8.48,0,0,0,.82,4.28,7.62,7.62,0,0,0-.67,6.62,12.56,12.56,0,0,0-.82,2.38,7.11,7.11,0,0,0,.21,3.27c-.92,2.68-1.93,8,1.49,10.91a5.51,5.51,0,0,0,3.59,1.33c2.63,0,4.77-1.87,5.8-3a11.27,11.27,0,0,0,4.39-3.72,9.84,9.84,0,0,0,1.35-3.28,13.35,13.35,0,0,0,2.36-3.25,10.19,10.19,0,0,0,1.1-3.2,31.71,31.71,0,0,0,6.23-11.62l.34-1.51c0-.18.07-.37.09-.57a35.76,35.76,0,0,0-.26-11.73,29.62,29.62,0,0,0,3.73-12.35,89.59,89.59,0,0,1,12.31-6.84,42.42,42.42,0,0,1-.73,11.82c-1.23,6.28-5.81,11.47-8.11,13.75-.8.79-2.78,3-2.78,3a2.23,2.23,0,0,0-.61,1.94,3,3,0,0,0,.13.47,1.43,1.43,0,0,0,.23.31c1.1,1.06,4.1.67,4.1.67,13-1.39,21.74-12.28,25.48-21.27a161.47,161.47,0,0,0,5.68-17.65c7.51-1.36,14.46-2,19.18-2.51,2.1-.21,3.77-.37,4.87-.54,2.87-.42,8.22-1.23,8.55-6.3A37.39,37.39,0,0,0,201.08,163.67Zm-2.26,7.49c-.11,1.77-1.29,2.82-6,3.53-3.55.53-14.26,1.14-26,3.41a175.84,175.84,0,0,1-6.05,19.08c-3.17,7.66-11.19,18.26-23.2,19.55,0,0,8.6-7.06,10.49-16.72,1.51-7.76.75-11.94.51-16.77a89.72,89.72,0,0,0-18,9.62c.19,7.16-3.93,13.42-3.93,13.42a32.7,32.7,0,0,1,.47,11.77C126,225.23,120.54,231,120.54,231a5.69,5.69,0,0,1-.83,3,8.62,8.62,0,0,1-2.52,3.12,6.47,6.47,0,0,1-1.06,3.18,8,8,0,0,1-3.65,2.83s-3.14,4-5.66,1.85-.81-7.43-.23-8.56a5,5,0,0,1-.46-2.71,12.52,12.52,0,0,1,1.11-2.78,8.47,8.47,0,0,1-.65-3.58,9.55,9.55,0,0,1,1.67-3.25,5.32,5.32,0,0,1-1.41-4.08,11.65,11.65,0,0,1,1.41-4.71,21.23,21.23,0,0,1-3.9-6.1,21.7,21.7,0,0,1-.83-7.65,30.44,30.44,0,0,1-8-8.24c-2.8-4.57-3.21-12.8-2.81-15.29a26.62,26.62,0,0,1-9-14.82,19.71,19.71,0,0,1-8.77.41A30.45,30.45,0,0,1,68,161.1s-8.11,1.37-16.11,1.84c-7.63.45-32.6,3.91-48.58,15.44a131,131,0,0,1,12.44-15.55.4.4,0,0,0,.08-.09l1.24-1.31c1.71-1.81,3.51-3.63,5.43-5.48a143.47,143.47,0,0,1,30.36-22.29,167.17,167.17,0,0,1,24-11.33c0-.09,0-.15,0-.15s-.88-6.36,1.51-21.44c.11-.68.27-1.39.43-2.12C43.5,87.84,42.5,53.64,42.56,48.42c0-.15,0-.91,0-1.17a114.73,114.73,0,0,1,1.8-16.49c.27-1.53.47-3.08.65-4.62l0,0c2-10.63,1.7-16.2,1.21-18.79a7.64,7.64,0,0,0-.23-1,8.58,8.58,0,0,0-.32-.89,5.41,5.41,0,0,0-.34-.68c-.61-1.26,0-1.66,0-1.66.44-.23,1.09.17,1.09.17A12,12,0,0,1,48.28,5a22.88,22.88,0,0,1,2.57,3.47,15.61,15.61,0,0,1,1.5,3.2c.16.51.33,1,.47,1.51a19.34,19.34,0,0,1,.58,2.3.07.07,0,0,0,0,0c.31,1.28.58,2.55.8,3.85a68.11,68.11,0,0,1,1,8.87c.15,3.28,0,6.55.37,9.81l.17,1.43c1.35,11.93,8.74,23.2,18.36,28,6,3.36,11.62,3.58,17.67,3l-.95-.94-.3-.27a41.19,41.19,0,0,1-9.93-12.85C76.33,47.27,78,33,76.75,23.9A50.6,50.6,0,0,0,71.62,7.59c-.4-.59-.72-1.15-.23-1.53s.81-.12,1.76.71A41.85,41.85,0,0,1,84.22,22.19c2.35,5.54,1.8,12.29,6.24,20.14,2.29,4.05,7.3,7.52,12.06,10.1l.19-.33a18.21,18.21,0,0,0,1.66-5.38,13.33,13.33,0,0,0,.38-3.55s34.5,3.3,54.75,21.55,25.26,38.38,25.85,44.63c0,0,7.37-1.13,9.24-3.87a24.84,24.84,0,0,1-1.45,7.25c-1.41,4-6,5.45-5.61,5.56s1.29,2.95,1.29,5.18.23,4.12,1.88,5.18,3.18,2.47,3.18,3.29a30.79,30.79,0,0,1-1.18,4.35,26.23,26.23,0,0,1,5.41,11.07s-3.53,1.41-5.29,2.35a30.56,30.56,0,0,1-2,9.19s2.71.71,3.77.94a6,6,0,0,1,3.53,4.24A38.29,38.29,0,0,1,198.82,171.16Z"/></g></svg>