<svg id="Layer_1" data-name="Layer 1" xmlns="http://www.w3.org/2000/svg" viewBox="0 0 247.9 119.58"><defs><style>.cls-1{fill:#fff;}.cls-2{fill:#da2128;}.cls-3{fill:#002a5c;}.cls-4{fill:#b0b7bc;}</style></defs><title>NE</title><g id="NWE"><path class="cls-1" d="M244.73,14.5c-31.2,7.37-32.56-10.7-79.47-14C102.11-4,49,23.54,6.64,27.07c-9.21.76-8,8.43-1.4,9.74,16,3.73,32.48,3.25,47.57,1.23-.51,1.21-1,3.09.67,4.53,6,5.08,30,5.52,40.56,4.91,3.58-.2,11.23-.93,11.23-.93-2.18.21-5.59,6.85,1.62,8.73,44.53,12.47,65.49,32.6,89.54,64.31,9.77-1.25,19-13,15.05-22l1.95-4.82,7.2-3.33-2.06-16.09,11-5.17s17.1-45.94,18.1-49.28S246.57,14.06,244.73,14.5Z"/><path class="cls-2" d="M121.16,20.82C90.28,22.65,53.24,40.1,6.06,32.32c41.81-5.64,73.68-19.47,112.56-25Z"/><path class="cls-3" d="M126.31,38.67c12.52-1.35,23.56-.92,35.59,6.42-25.1-2.72-37.38,4.29-53,5.85,55.26,14.5,75.49,45.49,89.19,62.66,9.58-4.07,10.1-12.4,7.66-15.36l2.47-5.29.11-3.4,6.6-3.09L212.82,70l12.36-5.06,16.38-44.84c-27.76,5.76-36.75-12.19-76.24-14.64A227.36,227.36,0,0,0,121.15,7l2.22,13.73c9.09-.31,17.64.84,25.76,4.54a99.55,99.55,0,0,0-24.79,1.64Z"/><path class="cls-2" d="M124.49,38.87c-17.08,2-36.89,6.79-65.48,1.4,24.64-.67,43.08-8.92,63.38-13Z"/><path class="cls-4" d="M168.94,76.51c14.94,10.46,22.61,22,30.39,32.19,4-1.65,5.2-6.24,3.9-7.86l-3.77-4.64,4.29.26,2-3.42-5.33-.31-6,1.08,6.09-4.17,4.64.27.17-2.64L200.54,85l1.63-1.78,8.76.54-2.52-19.51c-3.46-.43-6.37,1.39-7.63,6.4l-15.53-.91c2.18-5,5.59-7.18,12-6.36-3.62-5.08-21.28-5.54-23.78,2.42L187.24,77,189,87.3l-5.63-8.18C178.31,74.74,173,71.67,168.94,76.51Z"/><polygon class="cls-1" points="214.89 26.2 215.99 36 227.02 40.14 216.68 42.73 217.7 55.94 208.75 44.78 195.37 47.93 203.64 38.3 196.82 29.27 208.24 33.19 214.89 26.2"/></g></svg>