<svg id="Capa_1" data-name="Capa 1" xmlns="http://www.w3.org/2000/svg" viewBox="0 0 663.33 486.67"><defs><style>.cls-1{fill:#0d3c67;}</style></defs><title>Artboard 1</title><path class="cls-1" d="M404.33,0V96.25l35,11.08V196L250.67,0H0V96.67l51.33,10v278L0,397.33v89.33H280.67v-90l-42-12.67V288L436,486.67H619.33V107.33l44-12V0Zm-214,115.5-34.67,25.33L167,101.5l-31.33-26h40.67l14-36.67,14,36.67H245l-31.33,26L225,140.83ZM291.71,216.88,257,242.21l11.33-39.33-31.33-26h40.67l14-36.67,14,36.67h40.67l-31.33,26,11.33,39.33Zm136,126.71-34.67-25.33-34.67,25.33,11.33-39.33-31.33-26h40.67l14-36.67,14,36.67h40.67l-31.33,26ZM529.13,445l-34.67-25.33L459.79,445l11.33-39.33-31.33-26h40.67l14-36.67,14,36.67h40.67l-31.33,26Z"/></svg>