<svg id="Layer_1" data-name="Layer 1" xmlns="http://www.w3.org/2000/svg" viewBox="0 0 203.31 248.12"><defs><style>.cls-1{fill:#fff;}.cls-2{fill:#9f8958;}</style></defs><title>NO</title><g id="NO"><path d="M182.08,98.27c-18.25-10.61-36.22-8.15-49.85-2.08A80.4,80.4,0,0,0,128.51,81c-2.89-8.56-6.06-16.74-8.85-24-3.67-9.48-6.46-17.61-8-23L101.73,0,91.42,34.06c-1.58,5.41-4.29,13.58-7.94,23.07-2.78,7.22-5.92,15.41-8.79,24A80.94,80.94,0,0,0,71,96.27c-13.64-6-31.62-8.46-49.85,2.19C6.25,107.18-1.73,122.32.32,138a34.53,34.53,0,0,0,25.43,29.25L36,170.06l2.52-10.36c.36-1.41,4.07-14.38,15.76-14.15,8.1.17,14.83,7.33,18.2,12A25.77,25.77,0,0,0,71.4,169l-4.57-6.1L58.55,169c-7.45,5.55-18.28,19.27-11.59,35.46,2.92,7.06,9.19,11.87,17.65,13.56a41.41,41.41,0,0,0,16.51-.41,57.35,57.35,0,0,0,13.17,22.65l7.5,7.84,7.48-7.86a57.49,57.49,0,0,0,13.12-22.69,41.45,41.45,0,0,0,16.51.36c8.46-1.7,14.72-6.53,17.62-13.6,6.65-16.21-4.21-29.9-11.67-35.43l-8.29-6.15L132,168.87a25.72,25.72,0,0,0-1.14-11.43c3.35-4.63,10.06-11.82,18.17-12,11.69-.26,15.42,12.7,15.81,14.18L167.38,170c0-.08,10.26-2.93,10.26-2.93A34.5,34.5,0,0,0,203,137.74C205,122.07,197,106.95,182.08,98.27Z"/><path class="cls-1" d="M98.31,35.52c-1.26,5.92-4.5,14.36-8.26,24.13-2.75,7.16-5.87,15.27-8.69,23.68-2.71,8.08-3.81,14.11-3.81,19.72a44.44,44.44,0,0,0,.42,5.32c-10.4-7.14-30.9-16.91-53.26-3.84C12.29,111.8,5.62,124.26,7.3,137.07a27.6,27.6,0,0,0,20.32,23.39l3.28.9.81-3.31c.2-.81,5.12-19.88,22.74-19.52,14.18.29,23.45,14.07,26,18.31a18.54,18.54,0,0,0-2.18,8.73,20.21,20.21,0,0,0,4.52,12.25c-1.29,1.75-3.42,3.9-5.89,4.11-3.53.29-7.1-3.43-9.47-6.6l-2-2.64-2.65,2c-5.42,4-14.34,14.91-9.29,27.13,2,4.89,6.35,8.12,12.52,9.34a35.76,35.76,0,0,0,20.15-2.49,51.52,51.52,0,0,0,13.24,26.78l2.4,2.51,2.39-2.52a51.56,51.56,0,0,0,13.18-26.82A35.74,35.74,0,0,0,137.53,211c6.16-1.24,10.48-4.48,12.49-9.37,5-12.23-3.92-23.09-9.35-27.11l-2.65-2-2,2.65c-2.37,3.17-5.93,6.9-9.46,6.62-2.47-.2-4.6-2.34-5.9-4.09a20.24,20.24,0,0,0,4.49-12.22,18.54,18.54,0,0,0-2.2-8.76c2.49-4.24,11.74-18.06,25.91-18.38,17.62-.4,22.59,18.67,22.79,19.48l.82,3.29,3.28-.9A27.59,27.59,0,0,0,196,136.84c1.65-12.81-5-25.26-17.48-32.49-22.4-13-42.89-3.19-53.27,4a46.06,46.06,0,0,0,.39-5.18c0-5.68-1.1-11.8-3.82-19.88-2.84-8.4-6-16.49-8.74-23.64-3.78-9.77-7-18.2-8.32-24.13l-3.26-15.2Z"/><path d="M101.79,233.13A48.47,48.47,0,0,0,114.63,203c5.61,5.6,27.43,9.34,32.32-2.58,5.36-13.08-8.26-23.19-8.26-23.19-13.21,17.7-22.07.38-22.07.38,10.06-10.87,2.51-20.67,2.51-20.67.66-2,11.81-21.44,29.67-21.83,20.58-.46,26.08,22,26.08,22,21.58-6,25.75-36.07,2-49.87-30.14-17.52-56.39,9.17-56.39,9.17,2.44-10,3.14-17.46-1.79-32C112,64.56,103.84,46.89,101.55,36.21c-2.27,10.68-10.42,28.38-17,48.18-4.89,14.6-4.17,22.07-1.71,32,0,0-26.32-26.63-56.41-9C2.66,121.26,6.9,151.33,28.49,157.26c0,0,5.44-22.47,26-22.05,17.86.35,29.05,19.8,29.72,21.76,0,0-7.52,9.82,2.56,20.66,0,0-8.82,17.35-22.06-.32,0,0-13.61,10.14-8.21,23.21,4.92,11.9,26.72,8.11,32.32,2.5a48.49,48.49,0,0,0,12.9,30.1"/><path class="cls-2" d="M155.77,106.28c-24.52,0-44.63,27.88-44.63,27.88.87-4.56,11.35-25.06,1.87-49.57s-11.43-34.37-11.43-34.37l0,.28v-.27s-1.92,9.87-11.35,34.4,1.1,45,2,49.56c0,0-20.17-27.8-44.7-27.77S2.55,134.35,25.2,150.83c0,0,6.63-20.59,29.49-20.63,16.81,0,33.65,18,34.36,26.93,0,0-7.69,10.87,3,20,0,0-11.56,24.32-27.58,6.8,0,0-12.32,15.42,3.79,19.15,12.79,3,25.38-10,25.38-10s-1.37,20.49,8.1,31.68v-.1l0,.1c9.44-11.22,8-31.71,8-31.71s12.62,12.94,25.41,9.95c16.1-3.77,3.74-19.16,3.74-19.16-16,17.55-27.59-6.74-27.59-6.74,10.67-9.12,2.95-20,2.95-20,.69-8.93,17.48-27,34.3-27,22.86,0,29.54,20.57,29.54,20.57C200.78,134.12,180.29,106.25,155.77,106.28Z"/></g></svg>