<svg id="Layer_1" data-name="Layer 1" xmlns="http://www.w3.org/2000/svg" viewBox="0 0 249.5 193.39"><defs><style>.cls-1{fill:#003c7f;}</style></defs><title>NYG</title><g id="NYG"><path class="cls-1" d="M144.55,59.92V84.8C144.57,78,144.55,68.59,144.55,59.92Z"/><path class="cls-1" d="M249.49,152.18l-.1-150.53H207.63V89.27c0,1.06,0,2.12-.07,3.14,0,.41-.05.82-.08,1.22a10.12,10.12,0,0,1-5.08,7.48,10.88,10.88,0,0,1-5.45,1.46c-5.75,0-10.62-4.39-10.6-9.84l.05-91.08H128.72V35.77h10.63A5.19,5.19,0,0,1,144.55,41v19c0,8.68,0,18.11,0,24.88v22.89c.67,11,7.2,21,15.5,25.75,8.35,6.59,28.62,9.63,39.55,5.77a38.31,38.31,0,0,0,7.9-3.5v8.48a13.13,13.13,0,0,1-.71,4.85c-1.39,3-4.44,4.57-9.27,4.69H19.1v39.67H212.48a75.19,75.19,0,0,0,16.08-2.27c6.37-2,20.94-8.77,20.94-30.36C249.5,160.43,249.5,152.5,249.49,152.18Z"/><path class="cls-1" d="M135.54,105.05h-8.86a5.18,5.18,0,0,1-5.18-5.18v-.72c0-.07,0-.14,0-.22,0-1.21,0-2.44,0-3.69V70.36c0-3,0-4.87,0-4.87V28.07a26.72,26.72,0,0,0-.55-3.74,27.33,27.33,0,0,0-4.13-9.62C111.9,7.54,105.65,3.63,97.24,1.44,83.94-1.92,69.61.73,59.88,8.17V1.65H0V35.88H13.93a5.18,5.18,0,0,1,5.18,5.18v97.07H59.9V46.47h0a10.29,10.29,0,0,1,20.56-.21v74a17.68,17.68,0,0,0,17.63,17.62h38.25V105.06Z"/></g></svg>