<svg id="Layer_1" data-name="Layer 1" xmlns="http://www.w3.org/2000/svg" viewBox="0 0 250 140.28"><defs><style>.cls-1{fill:#2a433a;}.cls-2{fill:#fff;}</style></defs><title>NYJ</title><g id="NYJ"><path class="cls-1" d="M250,70.14C250,36.28,194.5,0,125,0,58.47,0,0,36.5,0,70.14s58.47,70.14,125,70.14C194.5,140.29,250,104,250,70.14Z"/><path class="cls-2" d="M173.35,33.65V41h11.81c.63,0,1.66.13,1.89.5s.14,1.63-1.48,4.16l-15.5,25.81L153.55,45c-1.37-2.1-1.21-2.94-1-3.25.3-.56.76-.71,1.71-.78h8.55V33.65H99.11V41h8a4.73,4.73,0,0,1,3.44,1c1.13,1.13,1.36,3.5,1.36,6.73v27L79.72,33.67H47.92v7.71H58.36a3.26,3.26,0,0,1,2.3.62c.8.8.8,2.84.8,4.82V89.27c0,7-.76,9-3.51,9H47.83V105H81.93V98.17H72.3c-1.63,0-2.79-.06-3.2-.47-.9-.89-1-4.82-1-8.43V51.91l43.92,53.2h6.88s0-59.22,0-60.27c-.08-1.61.36-3.45,3.24-3.82H129c3.17,0,5.24,3.82,7.37,7.43,0,0,16.44,28,18.63,31.67V93.61c0,4.58-2,4.58-2.9,4.58H144.4v6.88h40.46V98.12h-7.38c-2.86-.15-3.86-1-3.75-5.23V79l19.74-33.12c2.83-4.38,3.13-4.84,7-4.79h6.7V33.65H173.35Z"/><path class="cls-1" d="M175.19,35.49v3.69H185s7.27-.61,2.12,7.48L170.1,75,152,46c-4.71-7.46,2.31-6.83,2.31-6.83h6.62V35.49h-60v3.66h6.2c6,0,6.64,3.84,6.64,9.57V81.18l-35-45.67h-29v4h8.6c5.48,0,4.89,4.31,5,8.52V89.27c0,5.73-.24,10.78-5.34,10.81h-8.3v3.12H80.09V100H72.31c-5.21,0-6-.76-6-10.74V46.35l46.63,56.93h3.81v-55c0-5.73.11-8.91,5.43-9.13h7.57c4,.29,6.19,5,9,9.87l18.07,30.57v14c0,4.35-1.7,6.42-4.74,6.42h-5.87v3.2H183V100h-5.6c-4.49-.23-5.65-2.54-5.52-7.12V78.46L190.5,47c4.16-6.24,4.39-7.89,10-7.81h4.84V35.49H175.19Z"/><path class="cls-1" d="M153.3,104.13c0-8.32-12.57-17.23-28.3-17.23-15.07,0-28.31,9-28.31,17.23s13.24,17.23,28.31,17.23C140.73,121.37,153.3,112.45,153.3,104.13Z"/><path class="cls-2" d="M151.41,103.21c-.93-7.12-12.3-14.4-26.41-14.4-13.5,0-25.43,7.32-26.41,14.4Z"/><path class="cls-2" d="M98.59,105c1,7.09,12.9,14.42,26.41,14.42,14.12,0,25.5-7.29,26.41-14.42Z"/><path class="cls-1" d="M115.45,110.29a6.16,6.16,0,1,1,0-12.3h19.1a6.16,6.16,0,1,1,0,12.3Z"/><path class="cls-2" d="M135.54,101.4c0-.19-.08-.37-.13-.54h-1.8c.06.19.11.39.16.58a10.71,10.71,0,0,1,.3,1.78h-3.23a10.69,10.69,0,0,0-.26-1.64l-1.74,0a9,9,0,0,1,.33,1.61H125.9v-1.53H124.1v1.53h-3.27a8.5,8.5,0,0,1,.33-1.61l-1.74,0a10.54,10.54,0,0,0-.27,1.64h-3.23a11.37,11.37,0,0,1,.3-1.78q.07-.29.17-.58h-1.8c0,.18-.09.36-.13.54a12.67,12.67,0,0,0-.31,2.79,12.8,12.8,0,0,0,.42,3.24l1.81,0a11,11,0,0,1-.45-2.4h3.23a10,10,0,0,0,.28,1.69l1.72,0a8.63,8.63,0,0,1-.32-1.68h3.28v1.6h1.81v-1.6h3.28a8.79,8.79,0,0,1-.32,1.68l1.72,0a10.14,10.14,0,0,0,.27-1.69h3.23a11,11,0,0,1-.46,2.4l1.8,0a12.78,12.78,0,0,0,.11-6Z"/><path class="cls-1" d="M207.37,57.91c-1.88-3.54-6.83-5.56-14.31-5.84a48.33,48.33,0,0,0-13.23,1l-90,0,4.6-8.6H72.23L57,73.18C55.74,75,55.57,75.1,54.3,75a4.53,4.53,0,0,1-.77-.14A17.34,17.34,0,0,1,55,72l5.31-8.73H39.6l-.62.85c-5.69,7.83-7.37,14.14-5,18.76,2.28,4.43,7.87,6.66,16.62,6.6S65,89,69.39,86.09H114.3l11.57-21.61h10L124.34,86.05h22.92l7.21-13.51h9.7l-.5,1.23c-1.77,4.35-.82,7.24.29,8.89,2.17,3.23,6.84,4.88,13.87,4.89,11.84,0,19.4-1.11,23-6.62,3-4.55,3.44-8.7,1.26-11.68a8.09,8.09,0,0,0-2.68-2.21h6.53l.61-1C208.85,62.38,208.27,59.59,207.37,57.91Z"/><path class="cls-1" d="M202.09,69.24v0l0,0Z"/><path class="cls-2" d="M56.61,65.3h-16C29.94,80.06,35.2,87.47,50.59,87.38c14-.09,18.93-1,24.78-11.66L91,46.56H73.47L58.75,74.25c-1.38,2-2.15,3-4.67,2.77-4-.42-2.89-2.74-.87-6.12Z"/><polygon class="cls-2" points="127.79 83.98 146.02 83.98 157.49 62.59 165.89 62.59 169.92 55.12 133.03 55.12 129.1 62.41 139.31 62.41 127.79 83.98"/><path class="cls-2" d="M165.58,74.55c-2.79,6.84,1.43,10.91,12.24,10.93,11.7,0,18.27-1.1,21.28-5.69,2.05-3.12,3.22-6.72,1.31-9.33-1.32-1.88-6-3.51-10.49-4.37-2.85-.55-3.84-1.24-3.64-2.91.18-1.52,2.08-1.87,3.5-1.46,1.15.34,1.65,1.77,1.46,3.26H204.8c3.67-5.9-.58-10.41-11.81-10.84-13.91-.46-19.2,2.11-22,9.18-1.39,3.28-1.16,5.81.88,7.15,2.54,1.67,9.57,2.72,11.66,3.5a1.89,1.89,0,0,1,.73,2.95,3.12,3.12,0,0,1-4.09.58c-.87-.68-.73-1.51-1-2.95H165.58Z"/><polygon class="cls-2" points="78.19 84.02 113.06 84.02 116.97 76.73 97.88 76.73 99.72 73.23 116.69 73.23 120.67 65.8 104.72 65.8 106.32 62.45 123.57 62.45 127.45 55.16 93.64 55.16 78.19 84.02"/></g></svg>