<svg id="Layer_1" data-name="Layer 1" xmlns="http://www.w3.org/2000/svg" viewBox="0 0 226.89 241.04"><defs><style>.cls-1{fill:#231f20;}.cls-2{fill:#fff;}.cls-3{fill:#bbc4ca;}</style></defs><title>OAK</title><g id="OAK"><path class="cls-1" d="M116.85,156.68c.11.06,0,.17,0,.21a.18.18,0,0,0,.21,0c-.1,0,0-.09,0-.13S116.91,156.71,116.85,156.68Z"/><path class="cls-2" d="M113.69,0c-30.8,27.92-71,27.08-112.33,21.89C-7.55,123.08,27.11,223,113,241,199.77,223.65,234,124,225.67,22.73,187.22,26.61,147.37,28.18,113.69,0Z"/><path d="M113.55,9.87C87.87,30.75,47.37,35.93,8.7,30.28,2.93,122.55,33,212.72,112.76,233.52c79.85-20.37,110.78-110.14,105.52-202.45C178.83,35.52,139.11,30.88,113.55,9.87Z"/><path class="cls-2" d="M144.24,168.92a32.24,32.24,0,0,1-3.25,6.92,17.17,17.17,0,0,1,1.61,4.29c6.2,4.77,13,9.25,30.45,5-3.1-1-22.54-10.64-27.54-15.36Z"/><path class="cls-2" d="M80.12,171.58s2.91,4.61,3.93,5.2c0,0,1.25,1.11.79,5-7,5.24-24.1,7.36-32.77,4,0,0,20.92-8.25,26.71-13.46Z"/><path class="cls-2" d="M134.32,169.93c-.4.44-.75.89-1.19,1.3a6.34,6.34,0,0,1-.49.56c-.49.37-.92.71-1.44,1s-.92,1.27-.46,1.68,1.15.73,1.64,0c.26-.4.83-.48,1.15-.76a5.56,5.56,0,0,0,1.79-3.12c.08-.44-.28-.64-.58-.95.07.35-.39.24-.42.5C134.31,170.11,134.32,170,134.32,169.93Z"/><path class="cls-2" d="M90,171.19c.5,1.38,1.67,2,2,2.54.55.89.81,1.82,1.35,2.67-.91.52-1.61,2-2.5,1.54-.45-.22-.59-1.19-.86-1.86-.69-1.72.27-3.14,0-4.89Z"/><path class="cls-3" d="M106.63,73C96.14,73,85.3,75.63,82,85.65c0,0-5.52,20.19-5.17,23.36-2.93.89-8.86,3.73-7.08,19.84,0,0,6.36,28.94,9.21,34.6l1.83.1s1.67-1.75,1.36,4a5,5,0,0,0,2.08,5.36s1.18-4.85,2,2.46c.15,7.09,2.38,14.56,12.76,21.93,0,0,4.89-3.15,5.43-3.39,0,0-7.21-2.74-10.92-6.87,0,0,1,5-3.11-.69,0,0-2-1.94-3.14-15.13.1-1.83-.15-2.11-1.62-4-5.72-11.66-10.27-38.57.48-48.53,11.32-.72,38.35-1.32,48.49.52,4.15,1,6.19,2.34,7.13,9.47,2,9,.68,27.07-4,41.53,0,0-.69,3.11-2.34,4.6a22.78,22.78,0,0,0-8.63,9.26c-.88,1.79-2.81,3.52-6,4.93-3.25,1.93-15.23,5-10.51,10.21a28.33,28.33,0,0,1-3.76,1.28s.64,2.92,2,2.46a7.36,7.36,0,0,0,3.28-2.45c7,.9,16.05-.73,21.56-5.69,2.18-1.46,6.22-3.37,6.69-7.16,0,0,2.33-4.34-1.49-11.63,1.45-2.55,3.8-7.42,3.47-11.11.14-.2,12.33-14.17,13.8-33.38,0,0-1.71-11.31-1.22-.52,0,0-.15,1.88-1.22,7.34,0,0-2.28,8.37-1,.35a169,169,0,0,0-1-24.12s-.38-4.23,1.92,1.92c.31,1.14-.35-1.4-.35-1.4s1.11,7.77,1.4,2.27c-1.4-6.47-1.75-8-3.67-8.74A92.06,92.06,0,0,0,145.77,90l-.87,1c3.23,9,5.33,38.8,4.54,47.36,0,0-2.07,16.87-3.85,15.73,0,0,2.86-28.47,1.58-39-.61-13.42-2.54-16.67-3.31-22,0,0-4.25-11.07.16-5.07l.52-.35C140.78,78,135.11,73.35,118,73l2.34,41.89-15.4.05Z"/><path class="cls-2" d="M87.13,127.68c-.08,0,3.43-.58,3.38-.58,3.79,0,12.72,0,14.65.72,1,.39,2.73-.52,3.59-.86a35.41,35.41,0,0,0,7-3.57c.55-.33,4.55-2.74,3.82-2.82-9.27-1-28.17-.9-31.9.21a4.91,4.91,0,0,0-2,.76c-1.76,2-1.39,2.13-2.62,4.85.8-1.77-.42,2.24-.53,2.6-.32,1,1.45,1,1.81.49C85,128.58,85.11,127.55,87.13,127.68Z"/><path class="cls-2" d="M138.84,156.36a45,45,0,0,1-1.36,6,8.89,8.89,0,0,1-3.14,4.82c-.45-3.83-1.54-5.72-1.33-7.16-1.48.58-1.28,2.77-1.43,4.78-.25,3.2.62,5.55.41,4.61.1.45-1.11,1.33-1.55,2a30.19,30.19,0,0,1-4.75,5.95c-.28.26-.35.79-.64.92-1,.44-1.29,1.11-1.9,1.81a10,10,0,0,1-2.47,1.39,12,12,0,0,1-2.06.66,10.14,10.14,0,0,1-2.67.07c-1.14-.06-2.69-1.46-3.91-1.75-3.56-.87-4.4,2.35-9.94,1.16-2.29-.49-2.75-2-4.17-3.63-.28-.32-1.64-2-1.85-2.2.58.62-3.8-3.5-4.64-6.67-.93-3.55-.45-3.83,0-6.83.16-1.12-.06-3.94-1.1-4.13-1,1-.27,1.68-.56,3.12s1,1.46,0,4.6c-.28.9-.77.68-1.05.07-1-2.23-.5-7.06-2.85-8.94a1.65,1.65,0,0,1-.12-2.08c.72-.54,1.43.32,2.36.1.16,0,.06-1.17-.06-1.31-.77-.9-2.47-.53-2.46-.66.23-1.82.19-3.46-.43-4.35-.86-1.22-2.11-1.43-2.62-2.63a10.38,10.38,0,0,1-.81-4.64,9.26,9.26,0,0,1-.09-3.28c-.26.06-.16-2.1-.15-2.24.16-1.58.44-1.49.68-3,0-.91,2.31-1.45,2.33.65-.55,2.77.27,5,.34,7.75,0,.34.56.66.93.77,6.1,1.75,10.67,1.08,16.73,1,1.62,0,2.6-2.06,2.95-3.65a24,24,0,0,0,.6-6.4c.31-.77,1-.56,1.57.08,1,1.2.23,1.64.49,3.18.2,1.19-1.34,2.95-1.34,2.95.17,0-.52,4-.34,4.05s-.23,3.62-.32,3.53c-.23,2,1.12,1.24.91,2.67a16.37,16.37,0,0,1-.35,1.69c.19,1.32-2.76,1-2.29,1.06-.65,0-1.16-.32-1.14-.85,0-.75-.17-1.31-.16-2-1.44-.08-.85,1.08-.92,2.57,0,.65.4,1.21,1.5,1.39s1.29.33,1.84,0c.28-.19,1.21-.4,1.36-.85.54,2.13,1.18,2.43,2.76,2.38.67,0,2.22.25,2.82-1.3.15-.39,1.2-.33,1.35-.71,2.73.54,1.06,1.65,4.37.59a1.91,1.91,0,0,0,1-2.89c-.1-.14-.64-.12-.65-.05-.36,2.85-1.48,2-2.55,1.94-3.51-.2-1.62-1.66-4.6,0-.35.2-1.4,1.63-2.78.51-1.88-1.68.15-2.88.38-4.71a83,83,0,0,0,0-8.4c-.18-3.58.73-1.4,1.34-2.95-.51.13-.24-4.38-.28-4.61-.31-1.59-2.18-1-2.67-1.58,0,0-.22-1.26.07-1.31a30.22,30.22,0,0,0,6.74-2.53c4.46-2.2,7-3.56,9.14-4.9.64-.4.9-1.25,1.25-1.25,4.07,0,8-.87,11.62,1.14,2.53,1.4,3.14,2.79,3.8,5.18-.29,0,.24,2.56.25,2.77,0,1.57,0,4.45,0,5.25.12,5.2.42,7-.29,10.49,0,0-.55,1.29-.72,1.27a11.76,11.76,0,0,1-2,2.31c-.28.23-.16,1,0,.87a20.65,20.65,0,0,1,2.41-.92A38.3,38.3,0,0,1,138.84,156.36Z"/><path d="M131.75,131.45a17,17,0,0,0-2.66-1.85c-.59-.33-3,1.32-3.62,1.39-2.51.26-3.95.39-6.6.46-.65,0-1.59,0-2-.58a1.44,1.44,0,0,1,.08-1.45c.8-1,2.37.72,3.33-1.87,0,0,3-.12,3.91-.17,3.13-.14,7.75-.12,7.34.26.38-.34,1,1.35,1.61,1.79,1.18.81.84-.26,1.37,1.38-.36-.34.33,1,0,.65a3.68,3.68,0,0,1-.32,1,10.21,10.21,0,0,1-1.43-.34C132.85,132.16,131.66,131.44,131.75,131.45Z"/><path d="M116.67,133.55c1.83-1.07-1.37-1.39-.81,1.76-.05-.29.6-.09.65-.24A8.92,8.92,0,0,0,116.67,133.55Z"/><path d="M114.86,140.67c.42,2.12,0,1.84-.2,3.79-.21,1.77,1.3,2.18,1.3.2C116,137.18,115.45,139.25,114.86,140.67Z"/><path d="M135.69,151.38c-.18.41-.45.44-.79.66s-.54.54-.41.83a.75.75,0,0,0,.59.28c.22,0,.43-.27.51-.47A4.29,4.29,0,0,0,135.69,151.38Z"/><path d="M116.86,148.65a.46.46,0,1,0-.44-.48A.46.46,0,0,0,116.86,148.65Z"/><path d="M133.41,136.2c-.68.34-1.26.26-1.91.63,1-.56-5.45-.92-3-.69a46.27,46.27,0,0,0-5-.52c0-.09-.34.27-.34.18-.9.21-1.37-.48-2-.92-.47-.3-.89,0-1.32,0,.09-.17-.15-.28-.09-.39a.86.86,0,0,1,.53-.29,12.49,12.49,0,0,0,2.43-.29c2.62-.91,4.65.34,7.34.25a4.63,4.63,0,0,1,2.79.36c.16.12.16.39.28.48.35.26,1,.1,1.19.32C134.71,135.72,133.87,136,133.41,136.2Z"/><path d="M130.84,140c-.17,0-.23-.26-.38-.26a10.72,10.72,0,0,1-4.3-1c-.48-.21-.95.17-1.45.23-.66.09-1.36-.18-1.93,0-.42.15-.78.78-.43,1a2.14,2.14,0,0,0,2.12-.22,3.55,3.55,0,0,1,2.82-.15,3.3,3.3,0,0,0,.78.23C129,139.79,129.92,140.06,130.84,140Z"/><path d="M121.13,137.52c0-.21-.36-.15-.24-.4-.64-.18-1.23.39-1.84.14-.34-.14-.55-.5-.89-.67,0,.5-.21,1.18.22,1.37.87.38,1.81-.72,2.73-.17A2.55,2.55,0,0,1,121.13,137.52Z"/><path class="cls-2" d="M69.27,99l-5.68,5.61s5,7.74,5.61,8c1-1.92,2.74-4.58,5-4.73l.41-2.87Z"/><path class="cls-2" d="M48.26,76.66l3,0C55.25,81.09,65.07,94,65.07,94l-1.5,3.6c3.84-3.21,6.05-5.32,7.47-7.35,2.78-3,5.28-.64,3.08,1.34-1.46,2.81-8.45,8.48-13,12.44-13,11.65-37.44-7-16.94-24.91Z"/><path d="M44.36,83.54c2.24-2.77,4.26-1.22,2.47.39-1.35,1.22,1.19,4,2.84,3.3,1.31-.52,2.89,1.58,2.5,2.36-1,2.08.93,4.26,2.44,3.54.83-.4,2.57,1,2,2.21a2.19,2.19,0,0,0,3,2.92c2.2-1.11,1,1.89,1,1.89C49.42,109.53,33.17,91.62,44.36,83.54Z"/><circle class="cls-2" cx="45.71" cy="75.9" r="3.57"/><path d="M46.71,73.69c2.17,1.16.3,4.35-1.13,4s-.36-.68-.36-.68c1.43.21,2.74-2.08.94-2.84C45.48,73.9,46.71,73.69,46.71,73.69Z"/><path class="cls-2" d="M175.55,76.78l-3,.12c-3.83,4.53-13.24,17.68-13.24,17.68l1.61,3.55C157,95,154.68,93,153.2,91c-2.87-2.92-5.3-.47-3,1.44,1.55,2.77,8.71,8.21,13.38,12,13.31,11.25,37.24-9.27,16.19-26.57Z"/><path d="M180.1,82.07c-1.87-1.94-3.37-.83-2.84.78.59,1.81-1.66,5.25-2.79,4.54-1.49-.94-3,1.55-2.43,2.44.93,1.49-.86,4.42-2.33,3.62-.81-.44-2.47,1.18-1.91,2.26.93,1.82-1.06,3.48-2.9,3-2.38-.61-.89,1.91-.89,1.91C175.42,109.67,191.53,89.79,180.1,82.07Z"/><path class="cls-2" d="M178.42,78.35c-2,.16-3.74-.15-3.9-2.11s1.34-4.84,3.31-5a3.57,3.57,0,0,1,.6,7.11Z"/><path d="M177,72.61c-2.79,1.61-.79,4.52,1.26,4,1.52-.41.34-.68.34-.68-2,.35-3.46-1.7-1-2.81C178.29,72.78,177,72.61,177,72.61Z"/><path class="cls-2" d="M155.77,100c.76.44,5.4,4.62,6.54,5.33-.68,2.85-5.21,11.67-6.21,13.19-.12-5.25-.86-11.2-3.74-11.22l-.54-2.13Z"/><path d="M137.12,183.59c.23-1.59-1.16-3.08-2.14-1.82-.54.68-.58,1.95-1.22,2.59-1.74,1.76-2.83,2.09-3.85,3.17s-1.44,1.93-.4,3.49a4.62,4.62,0,0,0,1.4,2.58c1.4,1.05,3.4-.05,5.51-2.69a4.21,4.21,0,0,0,.49-2.09C137.19,187.1,136.87,185.33,137.12,183.59Z"/><path d="M128.13,193.51c-.14,4.35-6.49,6.09-9,4.64-.43-.24-1.78-1.45-1.5-2.29a3.13,3.13,0,0,1,1.9-1.6c.78-.3,1.45,0,2.2-.7,1-.92,1.76-1.09,3-2.24a2.27,2.27,0,0,1,2.68-.05,1.71,1.71,0,0,1,.73,2.15C128.17,193.25,128.08,193.42,128.13,193.51Z"/><path class="cls-2" d="M135.24,187c-2.71,1.8-6,3.36-2.89,5,.71.38,2.7-1,3.19-2.66A18.64,18.64,0,0,0,135.24,187Z"/><path class="cls-2" d="M126,195.47a17,17,0,0,1-2,1.14,5.89,5.89,0,0,1-3.79.78c-1.18-.22-.69-1.23-.44-1.27,3.32-.44,4-2.32,6.07-3.15.61.15.74,1.08.65,1.35A3.22,3.22,0,0,1,126,195.47Z"/><path d="M101.05,156.09c-.83,1.06,0,1.22-2,3.17-.58.56-1.62,1-2.14,1.69a3.26,3.26,0,0,0-.09.95c1.28.42,3.62-.59,6.08-.62a21.34,21.34,0,0,1,4.43.77c2.64.54,5.08,0,8.26-.21,3.81-.21,4.54.7,5.74.56,2.36-.27,3.79-1.43,2.78-1.14.25-.07-2,.21-1.79-.12-.65-.11-1.06.24-1.61.3a8.78,8.78,0,0,1-4-.4c-2-.66-4.19.32-6.27.32-3.39,0-7.14-1.23-11.36-.8-.41,0,3.45-3.08,3.16-2.72,1.12-1.39,1.36-3.29,1.58-2.67C103.79,155,102.74,153.94,101.05,156.09Z"/><path d="M105.6,167c2.9-.24,8.34,1.23,10.88.31,0,.26,2.14-.67,2.08.37-.08,1.44-3.58,1.15-4.51.95-2.53-.57-3.43.23-8.67.07-.22,0-2.64.39-3.33-1.49-.18-.5,1.34-.59,3.55-.21"/><path d="M122.79,157.89c-.27.68.42,1.11.79.75a.82.82,0,0,0-.37-1.26C123.27,157.73,122.88,157.68,122.79,157.89Z"/><path d="M121.65,156.5a3.47,3.47,0,0,0-.78-.48c-.9-.22-1.63-.72-2.55-.86-.23,0-.33-.44,0-.62a2.39,2.39,0,0,1,1.79.21c.77.26.89,1.19,1.52,1.58.19.11.69.18.55.44s-.66.15-.72-.27Z"/><ellipse class="cls-2" cx="124.36" cy="159.86" rx="0.37" ry="0.49"/><path class="cls-2" d="M182,53c2,1.4,3.71,2.19,5.31,2.19,1.1,0,1.69-.42,1.69-1.1,0-1-1.07-1.1-2.82-1.48-3.62-.77-5.46-2.76-5.46-5.85,0-4.45,3.47-7.72,8.87-7.72A14.73,14.73,0,0,1,196.71,41l-2.32,5.55A7.59,7.59,0,0,0,190,44.87c-1.07,0-1.66.39-1.66,1,0,1,1.42,1.18,3.95,1.75A5.66,5.66,0,0,1,197,53.32c0,4.54-3.62,8-9.17,8a16.69,16.69,0,0,1-8.34-2.37Z"/><path class="cls-2" d="M31,39.53h9.58c5.67,0,8.57,2.61,8.57,7.15,0,3-1.63,5.13-4.09,5.43l5.67,8.63H42.18l-3.71-7v7H31Zm7.48,9.61h1.19c1.46,0,2.26-.74,2.26-2A2,2,0,0,0,39.66,45H38.48Z"/><path class="cls-2" d="M63.86,39.35h8.49l7.42,21.21H71.57l-.68-2.67H65.13l-.65,2.67H56.29Zm5.72,13.5-.65-2.4a21.51,21.51,0,0,1-.86-4.66h-.15a21.63,21.63,0,0,1-.86,4.66l-.65,2.4Z"/><path class="cls-2" d="M86.58,39.53h7.75V60.74H86.58Z"/><path class="cls-2" d="M103.26,39.53h6.17c3.68,0,6.44.35,8.4,1.33a10.4,10.4,0,0,1,1.3,17.77c-2.76,1.9-6,2.11-10.26,2.11h-5.61Zm11.49,10.62c0-2.79-1.54-4.1-4.63-4.1h-.33v8.22C113.18,54.21,114.75,53,114.75,50.15Z"/><path class="cls-2" d="M130.74,39.53h14.18v5.76h-6.7v2h6.08v5.43h-6.08V55h6.88v5.75H130.74V39.53Z"/><path class="cls-2" d="M153.68,39.53h9.58c5.67,0,8.57,2.61,8.57,7.15,0,3-1.63,5.13-4.1,5.43l5.67,8.63h-8.54l-3.71-7v7h-7.48V39.53Zm7.48,9.61h1.19c1.46,0,2.26-.74,2.26-2A2,2,0,0,0,162.34,45h-1.19Z"/></g></svg>