<svg id="Layer_1" data-name="Layer 1" xmlns="http://www.w3.org/2000/svg" viewBox="0 0 247.57 170.45"><defs><style>.cls-1{fill:#fff;}.cls-2{fill:#004c54;}.cls-3{fill:#231f20;}.cls-4{fill:#bbc4ca;}</style></defs><title>PHI</title><g id="PHI"><path class="cls-1" d="M144.23,12.61,132.16,25.26C151.93,17,195,2.94,195,2.94L181.23,16.45C218.93,5.29,247.57,0,247.57,0a301.9,301.9,0,0,1-20.7,38.67c2.4-.26,18.06-2.08,18.06-2.08s-14.1,23.36-30.38,40.2L223.66,79s-14.2,20.46-32.94,37.17c-26.95,24-40.82,20.33-40.82,20.33-20,14.49-36,7.15-36,7.15s6.93-17.48-.23-19.34c-6.45-1.68-16.27,3.37-17.49,5.39-1.27,4.41-6.64,15.62-12.18,22.4-10.62,13-22.41,18.31-22.41,18.31A30,30,0,0,1,52.21,149a35,35,0,0,1-16.75,9c-7.26,1.55-17.18.29-27.33-8.19C1.3,144.13,0,125,0,125a88.58,88.58,0,0,1,18.77-23,16.48,16.48,0,0,1-4.94-7.12c32.85-14.34,32.87-28,59-44.66C98.54,33.86,114.71,26.32,144.23,12.61Z"/><path class="cls-2" d="M128.23,24.22,117.91,35c20.38-9,63.42-23.68,63.42-23.68L168.84,23.58C213,9.92,241,5.29,241,5.29S231.82,25.68,219.64,43c5.89-.57,18.19-2,18.19-2a206.72,206.72,0,0,1-30.46,38c2,.3,10.26,2.18,10.26,2.18a191.37,191.37,0,0,1-30,32.94c-24.31,21.29-35.09,18.77-35.09,18.77a8.06,8.06,0,0,0,.21-2.12,8.32,8.32,0,0,0-.18-1.41c-18.71,17.61-34.3,11.67-34.3,11.67s6.92-16.76-3.7-20.14c-8.22-2.62-20.82,4.11-21.83,7.72-1.09,3.92-6.32,14.8-11.5,21.18a65.74,65.74,0,0,1-18.93,16.11s-9-7-5.91-27.32c.69-4.44-.19-6.17-.68-6.92-1.48-2.27-13.05.21-15.87,6.66-2,4.56,9.5,8.41,9.5,8.41a28.86,28.86,0,0,1-14.58,7.75c-5.83,1.19-14.86.81-24.34-7.4-5.61-4.86-6.77-21.29-6.77-21.29a89.52,89.52,0,0,1,20.43-23.66,16.43,16.43,0,0,1-5.2-5.86C46.09,84.59,49.82,68,80.53,49.52A426.39,426.39,0,0,1,128.23,24.22Z"/><path d="M200.5,81.38a52.37,52.37,0,0,1,8,2.07c-9.34,15.15-37.27,44.91-52.88,46.13a11.55,11.55,0,0,0-2.41-6.37c-5.85,10.7-23.74,17.27-31.16,15.56,9-33-29.23-20.44-32.17-11.38A66.06,66.06,0,0,1,63,162s-6.18-7-3.53-22.89c2-11.69-5.44-11.32-5.44-11.32-2.95-.14-14.13,1.21-17.66,9-2.84,6.29,7.12,10.7,7.12,10.7s-14.38,11.48-31-2.75c-4.08-3.49-5.6-18.23-5.6-18.23a87.13,87.13,0,0,1,22.92-24.84c-4.64-1.78-6.08-4.18-6.08-4.18C46,87.27,54.79,70.24,73.82,57.58c21-13.95,37-20.79,37-20.79l-6.05,7.62s5.07-2.17,7.28-3.25c20-9.79,53.78-20.47,53.78-20.47L155.28,30.9a383.06,383.06,0,0,1,39.51-10.69C206.53,17.7,231,12.54,231,12.54a148.37,148.37,0,0,1-18,34.12c7.39-.52,15.35-1,15.35-1S219.84,62.93,200.5,81.38Z"/><path class="cls-3" d="M109.64,58.43l-.74.27.67-.24Z"/><path class="cls-3" d="M108.78,58.75l.12,0Z"/><path class="cls-1" d="M135.11,98.3s-10.69-5.19-27.54.31c0,0,23.24-13.78,52.66-7.92a73.45,73.45,0,0,0-46.42,0,91.84,91.84,0,0,0-9.49,4.2s1.49-1.09,4.28-2.74a127.92,127.92,0,0,1,25.71-14.41c6.5-2.68,19.44-6.13,24.7-6.43,0,0-13.54-2.29-25.89.82,0,0,19.55-7.63,38.52-8.05,6.35-.14,20.89.63,20.89.63-21-6.22-42.7-7.45-57.55-5.17-8.44,2.09-15.1,4.18-15.1,4.18s1.17-.59,3.39-1.54c5.35-3.18,27.31-15,68.14-21.35a109.85,109.85,0,0,0-11.6-.62c-6.52,0-19.36,2.2-19.36,2.2,9.29-4.25,26.81-8.36,48.48-10.45,0,0-33.1-3.93-73.17,8.63l-.53.23s4.23-3.06,9-6.23c3.52-2.34,8.61-6,8.61-6S132.3,33.58,104.47,46.8c-7.85,3.72-12,5.94-12,5.94,1.21-1.39,6.79-6.29,8.14-8C80,54.83,72.41,61.54,60.14,74.55,49.19,86.16,49.69,88.18,33.07,97.17a28.22,28.22,0,0,0,24.64-3.05,34.71,34.71,0,0,0,6.09-5.4c4.39-5.09,2.94-10.31,8.76-14.06-.83,1.94-2.2,4.39-2.32,6.92C73,77.72,78.56,72.65,84.72,69c15.65-9.33,26-10.94,26-10.94l-1.18.42C88.18,67.36,84.69,79,84.58,80.2c-.23,2.62,7.73-3.25,14.24-4a27.56,27.56,0,0,0-15.57,15c-1.21,2.85-1.57,6.09-5,8.63a14.59,14.59,0,0,1-3.87,2.48c-4.5,2-7.6,1-8.66.3a3.63,3.63,0,0,1-1-1.13,10.2,10.2,0,0,0,7.84-1.62,11.44,11.44,0,0,0,4.28-4.61h0a5,5,0,0,0,.05-4.9,4.3,4.3,0,0,0-3.31-2,18.68,18.68,0,0,1,3.18-5,34.33,34.33,0,0,0-6.32,6.29A4.59,4.59,0,0,1,74,91.71c1.44,2.4.1,5.84-3,7.68s-6.77,1.4-8.21-1a4,4,0,0,1-.41-1l-.49.28C60.93,98.21,59,99,59,99a8.18,8.18,0,0,0,2.93.16c.26,3.39,2.37,8.84,14.31,5.76-3.41,3.35-11.62,3.13-16.59.53.68.51,1.46,1,2.39,1.62,15,9.29,32.19.54,36.4-1.88a32.62,32.62,0,0,1,3.12-1.77,35.27,35.27,0,0,0-7.31,9.81C99.46,106.57,114.69,95.82,135.11,98.3Z"/><path class="cls-4" d="M80.41,83.56c.57,2.21,4.41-.07,4.41-.07s-5.18,4.39-7.26,9.13a5.61,5.61,0,0,1-.68,2.55,4.6,4.6,0,0,0,1.47.15,8.81,8.81,0,0,0,2.92-1.09,8.07,8.07,0,0,1-3,5.53c3.38-2.54,3.75-5.78,5-8.63a27.56,27.56,0,0,1,15.57-15c-6.51.79-14.47,6.66-14.24,4,.11-1.22,3.6-12.84,25-21.73l-.79.28C89.19,66.06,78.88,77.68,80.41,83.56Z"/><path class="cls-2" d="M72.25,92.53c1,1.7,0,4.16-2.26,5.52s-4.93,1.07-5.94-.62a2.74,2.74,0,0,1-.31-.83,14.73,14.73,0,0,1-1.33.84,4,4,0,0,0,.41,1c1.44,2.39,5.11,2.84,8.21,1s4.43-5.28,3-7.68a4.59,4.59,0,0,0-3.54-2.09l-1.16,1.45A3.33,3.33,0,0,1,72.25,92.53Z"/><path d="M70,98c2.26-1.35,3.28-3.82,2.26-5.52a3.33,3.33,0,0,0-2.93-1.46,39.32,39.32,0,0,1-3.1,3.43,3.4,3.4,0,0,0,1.34,3.07A3.77,3.77,0,0,1,65.34,97a2.24,2.24,0,0,1-.8-1.05c-.26.21-.53.42-.81.61a2.71,2.71,0,0,0,.31.83C65.06,99.12,67.72,99.4,70,98Z"/><path class="cls-1" d="M65.34,97a3.76,3.76,0,0,0,2.22.53,3.4,3.4,0,0,1-1.34-3.07A22.25,22.25,0,0,1,64.54,96,2.25,2.25,0,0,0,65.34,97Z"/><path class="cls-4" d="M192.55,64.75S178,64,171.65,64.12c-19,.42-38.53,8.05-38.53,8.05,12.35-3.11,25.89-.82,25.89-.82-5.26.3-18.21,3.76-24.7,6.43A128,128,0,0,0,108.61,92.2c11-6.54,42.4-21.92,82.22-13.44,0,0,2.6-2,9.53-9.6,7.35-8.06,8.91-13,8.91-13s-33.8-3.63-58.27.14c-5.28.81-11,2.06-16,3.31C149.84,57.3,171.58,58.53,192.55,64.75Z"/><path class="cls-4" d="M114.54,104.88c27.63-6.85,46.83,1.46,49.14,10.18l.27-.14c1.12-.61,5.41-2.44,11.87-8.8,6.79-6.68,11-12,12.72-15.64-28.26-14.17-59.45-5.64-74.73.26a73.45,73.45,0,0,1,46.42,0c-29.42-5.86-52.66,7.92-52.66,7.92,16.85-5.5,27.54-.31,27.54-.31-20.43-2.48-35.65,8.27-40.9,15-.4.82-.79,1.68-1.12,2.57C97.82,111.39,102.88,107.77,114.54,104.88Z"/><path class="cls-4" d="M208.95,32c-21.66,2.09-39.18,6.21-48.48,10.45,0,0,12.84-2.2,19.36-2.2a109.85,109.85,0,0,1,11.6.62C150.6,47.24,128.64,59,123.29,62.22a176.41,176.41,0,0,1,34-10.06c15.86-3.14,34.3-3.92,41.72-4.66a62.77,62.77,0,0,0,14.74-23.13s-18.43,1.49-39.35,5.37c-21.75,4-35.81,9.71-38.62,10.9C175.85,28.07,208.95,32,208.95,32Z"/><path class="cls-4" d="M99,116s7-5.24,18.78-3.34c17.48,2.81,17,13.82,17,13.82s7.87-3.38,11.85-10.31a28.51,28.51,0,0,0-13.86-6.29C109.47,105.74,99,116,99,116Z"/><path class="cls-4" d="M51.22,103.25a27,27,0,0,1-13.33.13c-3.62,2.5-16.67,8.08-25,22.13.43,4.76.92,10.85,2.88,14.19,8,12.6,21.92,7.94,21.92,7.94s-21.17-9.4,1.46-23.09c7.23-4.37,27.22-7.65,39.14-3.82,1,.38,2.27,1.27,2.19,1.5-1.24,6.07-6.24,23.07-14.54,27.9-4.59-6.7,7.52-22.08-4.83-22.67a16,16,0,0,1,1.75,11.16c-.58,2.81-2.49,10.3.92,18.07,0,0,18.77-11.23,24.34-37.14a29.82,29.82,0,0,1,2.32-6.67C66.36,122.37,51.22,103.25,51.22,103.25ZM44,111.5c-1.73.51-5.47,1-3.69-1.62,0,0,2.25-1.21,5.25-2.77,1.29,1.06,2.63,1.8,6.15,2.13Z"/><path d="M40.28,109.88c-1.77,2.66,2,2.13,3.69,1.62l7.71-2.25c-3.51-.34-4.86-1.07-6.15-2.13C42.52,108.67,40.28,109.88,40.28,109.88Z"/></g></svg>