<svg id="Layer_1" data-name="Layer 1" xmlns="http://www.w3.org/2000/svg" viewBox="0 0 250 250"><defs><style>.cls-1{fill:#b1babf;}.cls-2{fill:#fff;}.cls-3{fill:#ffc20e;}.cls-4{fill:#da2128;}.cls-5{fill:#00539b;}</style></defs><title>PIT</title><g id="PIT"><path d="M0,125A125,125,0,1,0,125,0,125.14,125.14,0,0,0,0,125Z"/><circle class="cls-1" cx="125" cy="125" r="122.26"/><path class="cls-2" d="M125,227.29a102,102,0,1,0-102-102A102,102,0,0,0,125,227.29Z"/><path class="cls-3" d="M125.53,125.44c1.18-41.78,40.64-51.58,50.55-50.68-24.44-1.33-48.56-11.65-50.42-50.3-2.94,35.94-17.37,46.16-50.6,50.43,23.74,1.2,47.77,10.6,50.47,50.56"/><path class="cls-4" d="M176.22,177.14c1.18-41.77,39.95-52.08,49.86-51.18-24.52-.91-48.14-12.56-50-51.21-2.94,35.94-17.32,46.42-50.55,50.68,23.74,1.2,48,11.74,50.69,51.71"/><path class="cls-5" d="M126.14,226.86c1.18-41.78,40.16-50.62,50.08-49.72-24.44-1.33-48.83-13.05-50.69-51.71-2.94,35.94-16.94,46.74-50.17,51,23.74,1.21,48.08,10.46,50.78,50.43"/><path d="M97.11,116.51V131.8h4.06v-8.86c0-.92-.18-2.12,3.24-1.88V116.4h-1c-1.35.3-1.71.93-2.31,2l0-1.92Z"/><path d="M115.06,121.5a4.76,4.76,0,0,0-7.1-4.7,3.91,3.91,0,0,0-2.12,1.53,4.09,4.09,0,0,0-.68,2.3c-.1,1.66.45,3.85,2.71,4.42,1.26.32,2.7.48,3.37,1.5a1,1,0,0,1,.1,1.21c-.24.6-1.58.59-2.11.38a1.33,1.33,0,0,1-.79-1.36l-3.43,0a6.79,6.79,0,0,0,.58,3.11,4.09,4.09,0,0,0,2.38,1.92,6.7,6.7,0,0,0,5.38-.47,5.3,5.3,0,0,0,1.36-1.44,4.67,4.67,0,0,0,.36-3.74,5.3,5.3,0,0,0-.38-1.12,4.28,4.28,0,0,0-3-2.23l-1-.24c-1.92-.21-2-1.3-1.78-2a1.23,1.23,0,0,1,1.33-.81,1.24,1.24,0,0,1,1.16.78,4.37,4.37,0,0,1,.06,1Z"/><path d="M49.15,116.6a6.77,6.77,0,0,0-.77-3.76c-1.58-2.79-5.17-3.53-8.11-2.24a5.2,5.2,0,0,0-2.41,2.32,6.18,6.18,0,0,0-.91,2.86A6.92,6.92,0,0,0,40.18,122c1.55,1,2.68,1.09,4,2.36a3.16,3.16,0,0,1,.41,2.79c-.64,1.13-2.3.71-2.7.29a4.58,4.58,0,0,1-.51-2.59l-4.38,0a8.13,8.13,0,0,0,.55,4.42A4.4,4.4,0,0,0,40,131.6a7,7,0,0,0,7.79-1.11,3,3,0,0,0,.76-1.13,8.24,8.24,0,0,0,.71-5.11,6.31,6.31,0,0,0-.92-2.35c-.81-1.15-1.41-1.67-3.59-2.73.05,0-.68-.31-.63-.31-2.3-.74-3.21-2.14-2.5-3.64a1.82,1.82,0,0,1,2.54-.57,3,3,0,0,1,.58,1.95h4.35Z"/><path d="M51.38,116.52l-1.62,0,0,3.53,1.53,0,0,8.12c0,4.31,3.71,3.65,5.66,3.7v-4.58c-1.65,0-1.5-.3-1.5-1.13v-6l1.58,0,0-3.62-1.56,0,0-3.71h0l-4.1,2.25v1.41Z"/><polygon points="80.35 110.38 80.35 131.94 84.48 131.94 84.48 110.39 80.35 110.38"/><path d="M89.08,127.47c0,1.37,3,1.65,3.08-.08V127l3.37,0v1.8c0,1.2-.46,2.5-2.49,3.2a8,8,0,0,1-4.75,0,3.8,3.8,0,0,1-2.53-3.77v-7.46a4,4,0,0,1,2.06-3.51,6.16,6.16,0,0,1,5.29-.14,3.91,3.91,0,0,1,2.42,3.57v4.73H89.06Zm.15-5.3h3.05A1.61,1.61,0,1,0,89.23,122.18Z"/><path d="M72.64,127.47c0,1.37,3,1.65,3.08-.08V127l3.37,0v1.8c0,1.2-.47,2.5-2.49,3.2a8,8,0,0,1-4.75,0,3.8,3.8,0,0,1-2.53-3.77v-7.46a4,4,0,0,1,2.06-3.51,6.16,6.16,0,0,1,5.29-.14,3.91,3.91,0,0,1,2.42,3.57v4.73H72.65Zm.15-5.3h3.05A1.61,1.61,0,1,0,72.79,122.18Z"/><path d="M61.45,127.47c0,1.37,3,1.65,3.08-.08V127l3.37,0v1.8c0,1.2-.47,2.5-2.49,3.2a8,8,0,0,1-4.75,0,3.8,3.8,0,0,1-2.53-3.77v-7.46a4,4,0,0,1,2.06-3.51,6.16,6.16,0,0,1,5.3-.14,3.91,3.91,0,0,1,2.42,3.57v4.73H61.46Zm.15-5.3h3.05A1.61,1.61,0,1,0,61.6,122.18Z"/></g></svg>