<svg id="Layer_1" data-name="Layer 1" xmlns="http://www.w3.org/2000/svg" viewBox="0 0 247.82 144.33"><defs><style>.cls-1{fill:#fff;}.cls-2{fill:#002a5c;}.cls-3{fill:#0080c6;}.cls-4{fill:#ffc20e;}</style></defs><title>SD</title><g id="SD"><path class="cls-1" d="M122.31,0c-2.32,0-4.72.05-7.14.15l-4.83.2,3,3.77,3.41,4.24c-1.08,0-2.18,0-3.28,0a143.2,143.2,0,0,0-49.33,9A111.75,111.75,0,0,0,38.9,30.59,90.76,90.76,0,0,0,17.58,51.71l-2.64,3.7,4.54.17c1.19,0,2.23.06,3.26.06h1.41A126.43,126.43,0,0,0,8.54,82.12,104.51,104.51,0,0,0,1.11,106.7a75.4,75.4,0,0,0,.33,27.64l1.35,6.51L6,135C18,112.93,31.88,96.16,48.31,83.75,62.43,73.07,76,67.43,88,62.45l2.5-1,2.47-1L91.67,58a39,39,0,0,0-4.07-5.66c2.61-.11,5.23-.16,7.81-.16,35.78,0,70.93,10.42,104.47,31l5.34,3.27-1.71-6c-.68-2.37-1.31-4.47-1.93-6.36C219.83,91.4,235,116.14,242.7,134.77l3.93,9.55.76-10.3a142.66,142.66,0,0,0-2.66-40.76c-3.34-15.18-9.29-28.34-17.68-39.12A114.74,114.74,0,0,0,210.83,35.3a137,137,0,0,0-33.3-22.81l-.08,0-.09,0c-.87-.35-2-.86-3.23-1.44a110.21,110.21,0,0,0-18.48-6.9A128.39,128.39,0,0,0,122.31,0"/><path class="cls-2" d="M115.28,2.59q3.64-.15,7-.15c31.94,0,47.53,9.59,54.14,12.24,28.46,14,42.56,32.05,48.63,40.89,15.12,19.4,20.29,44.49,20.3,67.07,0,3.81-.15,7.56-.42,11.19-9.15-22.27-28-51.25-49.37-68.26.35.73.69,1.47,1,2.22s.77,1.81,1.14,2.76c1.19,3.08,2.25,6.45,3.41,10.52C170,62,134.44,49.73,95.41,49.73q-6.41,0-12.94.45s.68.73,1.63,1.82l.43.5a45.21,45.21,0,0,1,5,6.65C65.44,69.22,32.38,81.57,3.84,133.84a68.4,68.4,0,0,1-1.4-14c0-28.46,16.67-54.31,24.84-64.25l.46-.56c.59-.7,1.14-1.32,1.61-1.83-1.21,0-2.15-.07-3-.07l-1.81,0-1.83,0c-.87,0-1.88,0-3.17-.06,23.6-33,66.33-42.37,93.93-42.37,1.84,0,3.61,0,5.31.12l.86,0c.83,0,1.65.1,2.44.16Z"/><path class="cls-3" d="M126.76,6.89l-2.8.06,5.68,8.13C116.27,14,64.87,12.32,30.37,46.68l-2.44,2.45,9.89.31-1.71,2.11c-10.36,12.56-24.55,29.77-29.43,63L5.74,121l3.66-5.38C28,88.23,52.19,69,81.22,58.38l1.85-.68-1.15-1.6a50.1,50.1,0,0,0-8.68-9.23c50.82-5.14,87.58,8.64,116.85,23l3.56,1.75-1.52-3.66A99.89,99.89,0,0,0,184,52.2c22,13,37.41,32.19,53.28,56.74l3.27,5-.52-6C234.3,41.54,169.42,6,126.76,6.89"/><path class="cls-4" d="M134,16l-4.24-6.08c20.63.4,45.11,9.39,64.66,24,16.7,12.45,37,34.19,42,68.15-16.21-24.32-32.45-43.2-56.25-55.63L175,43.78l3.2,4.85a114.51,114.51,0,0,1,9.56,16.8c-28.29-13.48-66.8-27.26-118.35-21.21L66,44.62l4.09,3.46a54.64,54.64,0,0,1,8.25,8.26C51.42,66.58,28.73,84.23,10.71,108.78c5.52-28.4,18.24-43.85,27.72-55.33L44,46.62l-3.06-.07-5.78-.19c38.74-35.68,96.79-28.08,97.37-28l3.45.53Z"/></g></svg>