<svg id="Layer_1" data-name="Layer 1" xmlns="http://www.w3.org/2000/svg" viewBox="0 0 250.07 110.64"><defs><style>.cls-1{fill:#fff;}.cls-2{fill:#002a5c;}.cls-3{fill:#77c25f;}.cls-4{fill:#b2b5b8;}</style></defs><title>SEA</title><g id="SEA"><path class="cls-1" d="M209.57,90.73c-11.4-2.28-26.36-2.88-32.68-2.88l-150.38,0c-9.35,0-19,0-24-7.65S.22,64.83,8.71,49.56C9.35,48.42,35.1,0,35.1,0a39.66,39.66,0,0,0,5.28,5.35C43,7.4,45.7,8.5,52.88,8.5c12.74,0,95-.18,95.8-.18,16.69,0,33.55,1.73,44.47,13.71,5.67.6,24,3,39.06,10.24,8.83,4.22,14.65,10.52,16.85,18.21a26.49,26.49,0,0,1,1,7.31c0,7.31-2.74,15.39-8.1,23.8-11.33,17.77-21.78,24-22.25,24.32A25.76,25.76,0,0,1,207,110.64s5.62-6.39,7.51-12.77S209.57,90.73,209.57,90.73Z"/><path class="cls-2" d="M230.35,36.15c-17.2-8.22-39.29-10-39.29-10-9.64-11.78-25.93-13.53-42.39-13.53,0,0-82.91.18-95.8.18-15,0-16.52-6-16.52-6L16.23,44.54H68.49c16.45,0,17.27-1.65,28.18-9.67,11.59-8.52,20.83-11.61,31.78-11.61s18.19,2.46,30.37,7.86,18.66,8,25.91,4.93c0,0-5.71,7.71-23,.46s-21.89-8.79-32.38-8.79-22.19,5-37,19.77L110,61.73s-4.09,6.32-6.78,10.35-2.43,6.73-1,8.7,3.24,2.87,9.79,2.87,59-.12,64.86-.12c5.1,0,21.06.48,33.52,3,16.54,3.31,5.87,17.26,5.87,17.26s11.07-7.29,22-24.49C250.56,60.09,247.55,44.37,230.35,36.15Z"/><path class="cls-1" d="M200,39.24c-7.82-1.87-1.13-6.4-1.13-6.4a22.38,22.38,0,0,0-16.41,14l-.56,1.08C175.64,60.48,170,59.81,159.4,59.81H141.19c-14.75,0-21.62,7.31-28.69,19.76h8.33c7.61-11.34,13.36-14.39,28.42-15.24,34.41,0,61.84,9.89,76.34,17.44C246.21,47.14,215.61,41.41,200,39.24Z"/><path class="cls-1" d="M135.93,79.43c3.85-5.82,11.67-7.79,24.29-7.07,31.13,1.8,49,7.87,62.94,13-17.15-10-47.71-17.27-69-17.21-10.38,0-19.45,1.85-24.77,11.23h6.5Z"/><path class="cls-1" d="M169.34,45.09c-4.06,5.66-9.4,7.59-24.56,6.56-17.63-1.2-13.08-8.63-11-12.29h-.06c.56-1,1.52-2.79,2.49-4.56-13.51-.83-23.38,9.57-23.38,9.57,10.07,10,16.79,11,25.9,11h17c15.84,0,19.67-7.13,21.12-10.3A29.86,29.86,0,0,1,169.34,45.09Z"/><path class="cls-3" d="M161.65,43.4l-1-.4a8.24,8.24,0,0,1-6.83,2.25c-3.42-.44-5.38-2.92-4.41-5.54a4.69,4.69,0,0,1,.59-1.09c-1.75-.69-3.51-1.35-5.23-1.94-3.51,5.68-5.57,9.44,6.61,10.47,7.59.65,9.65-.65,11.24-3.38Z"/><path class="cls-4" d="M100.49,65c-6.28,10.9-8.78,13.41-4.36,18.58H26.52c-10.27,0-16.94-.39-20.37-5.68-3.34-5.14-2.65-10,6.35-26.22H71.67c10.19,0,12.81.58,18.34,4.87S100.49,65,100.49,65Z"/></g></svg>