<svg id="Layer_1" data-name="Layer 1" xmlns="http://www.w3.org/2000/svg" viewBox="0 0 245 209.31"><defs><style>.cls-1{fill:#da2128;}.cls-2{fill:#b1bac0;}.cls-3{fill:#fff;}.cls-4{fill:#f7941e;}</style></defs><title>TB</title><g id="TB"><path d="M150.15,187.5v0l0,0a.08.08,0,0,1,0,0v0M240.32,0a76.37,76.37,0,0,1-4.18,24.09,60.44,60.44,0,0,1-21.81,8.17c-18.1,2.68-27,0-43.76-5.39s-41.9-16.93-67.7-16.76S58.64,21.47,42.14,34.22c.26-.07,4.3-1.34,5.76-1.83,0,0-3.85,4.52-5,7A30.08,30.08,0,0,1,61.1,34.3s-3.66.91-5.2,3.21c0,0,4.28-.92,5,.76s-1.83,5.5-6.56,7.64A58,58,0,0,1,37.11,50a23.73,23.73,0,0,1,8.1,4.58,38.71,38.71,0,0,0-7.79,2.14,33.17,33.17,0,0,1-12.07,1.83,56.58,56.58,0,0,0,7.8,6c12.4,7.7,7.16,19.1,3.17,22.84-2.63.75-30,8.2-36.31,52.44,0,0,13.89-19.37,34.91-24.72s41.42,0,52.12,5.22S114.3,137,135.83,140.6c11.84,2,26.1,1.61,39.9-1-.22.34-10.75,16-15.28,22.32,0,0-3.36-4.22-7.9-4.64a5.9,5.9,0,0,0-3.45.42h0a5.29,5.29,0,0,0-2.91,3.83,5,5,0,0,0,1.19,4.38,5.57,5.57,0,0,0,2.78,1.73,2.52,2.52,0,0,1,2.05,1.68,102.49,102.49,0,0,0-7,12.27,64.44,64.44,0,0,0-3,8.55c-.6,2.07-1.15,2.89-1.32,3L138.72,195s.83,3.38,1.08,3.94a7,7,0,0,0-.8,3.21v.07a7.06,7.06,0,0,0,3.19,5.89,8.36,8.36,0,0,0,3.92,1.18,7.09,7.09,0,0,0,5.88-3.16,6.91,6.91,0,0,0,.76-1.53,7,7,0,0,0,3.18-2.37,40.12,40.12,0,0,0,4.91.38,20.28,20.28,0,0,0,13.09-4.38,17.1,17.1,0,0,0,5.88-12.37A12.85,12.85,0,0,0,175,175.31c4.43-6.39,9.86-14.36,15.57-23,10.62-16.1,19.31-30.09,25.93-41.77C223.41,98.66,245,66,245,21.37,245,8.36,240.32,0,240.32,0M181.79,138.26c2.38-.58,4.74-1.21,7.06-1.94a1.24,1.24,0,0,0,.2-.07c-2.37,3.6-21,30.29-22.31,32l-3.42-2.92c4.76-6.61,18.2-26.68,18.47-27.09m-28.7,38.69c1-1.74,2.1-3.45,3.2-5.16l.15-.23a10.77,10.77,0,0,0,.48,4.23,7.51,7.51,0,0,0,1.93,2.73c.85.78,1.56,1.41,2.15,1.9-2.87,3.71-6.94,10.65-6.94,10.65-1.74.1-2.61-.48-3.6-2.57a5.18,5.18,0,0,1-.33-1h0a14.94,14.94,0,0,1,0-5c.07-.15,2-3.88,3-5.55m10.82,7.46a5.21,5.21,0,0,1,2.37,2.2,1.93,1.93,0,0,1,.2.87c.08,1.25-1.39,3.09-2.69,3.57a9.1,9.1,0,0,1-3.4.57c-.38,0-.76,0-1.13,0,.35-.57.76-1.27,1.22-2,1-1.7,2.32-3.67,3.44-5.13m6.93,10.25c-2.31,2-6.24,3.3-10.35,3.23a17.76,17.76,0,0,1-8.56-1.93.46.46,0,0,0,0,.07c-.18.15-.55,1-3.24,1.4a6.23,6.23,0,0,1-3-.11c3.17,3.21,6,1.19,6,1.19a5.78,5.78,0,0,0,.33,1s-1,1.4-3.86.92a5.29,5.29,0,0,1-.95-.27l.16.09a2.43,2.43,0,1,1-.65-.3,5.39,5.39,0,0,1-2.74-3.23c2.79-2.47,2.7-6.94,5.54-13.15.13-.28.27-.57.42-.86a.09.09,0,0,1,0,0,14.27,14.27,0,0,0-1,6.13,8.59,8.59,0,0,0,.23,1.18h0c0,.17,1,4,3.6,3.41l-.41.92a15.82,15.82,0,0,0,8.2,2,10.6,10.6,0,0,0,10.6-7.09c.74-2.38-.4-5-2.76-7.34a3.44,3.44,0,0,0,.65-3.45c.21.71-1.12,2-2.52,1.85a2.23,2.23,0,0,1-.38-.06c-2.12-.6-4.54-3.17-6.59-4.71a6.79,6.79,0,0,1-2.59-5.58,6.92,6.92,0,0,0-2.14-5.18,6.53,6.53,0,0,0-3.5-1.77c-.46-.13-.59-.41-.54-.72.1-.5.74-.41.74-.41,3.89.78,6.73,4.63,7.36,5.76s6.72,5.83,9.1,7.93c1.11.81,5.92,4.5,6.78,8.28,1,4.51-1.71,8.78-4,10.79m.89-22.19-.1-.08c-.64-.58-1.46-1.28-2.37-2,1.49-2.12,18.54-27.47,23.53-35.33,1.75-.62,3.45-1.29,5.13-2-3.38,5.35-21.82,33.15-26.18,39.45m31.74-46.37c-11.75,5.48-38.86,14.56-65.86,9.51-9.39-1.75-21.76-4.69-38.12-14.6-10.73-6.5-22.31-12.71-49.31-12.59-22.37.11-36.74,10.25-41.31,14,12.14-39.61,48-33.81,48-33.81C50.36,85.49,42.5,86.7,42.5,86.7c11.24-17.69-6.87-26-6.87-26,1.53,0,8.4-2,11.91-3.21a67.16,67.16,0,0,1,10-2.06c-2.25-2.07-9.2-3.74-9.2-3.74A23.47,23.47,0,0,0,65,44.22c1.44-1.5,5.39-9,.91-11.91-4.12-2.67-12.28.29-12.29.3S78,6.28,128.45,17.53c23.93,5.34,50.89,19.35,75.79,19.5,8.37.05,26.83-2.66,37.85-13.75-.58,21.07-4.5,50.58-38.61,102.83m-53.32,61.36v.05l0,0a.08.08,0,0,1,0,0"/><path class="cls-1" d="M204.24,37c-24.9-.15-51.86-14.16-75.79-19.5C78,6.28,53.59,32.6,53.58,32.61s8.17-3,12.29-.3c4.47,2.91.53,10.41-.91,11.91A23.49,23.49,0,0,1,48.3,51.72s7,1.67,9.2,3.73a67,67,0,0,0-10,2.07C44,58.74,37.15,60.72,35.63,60.72c0,0,18.11,8.28,6.87,26,0,0,7.86-1.2,14.41,1.94,0,0-35.88-5.79-48,33.81,4.57-3.77,18.94-13.91,41.31-14,27-.13,38.59,6.09,49.32,12.58,16.35,9.92,28.72,12.85,38.11,14.6,27,5,54.11-4,65.86-9.51,34.1-52.25,38-81.76,38.61-102.83-11,11.09-29.48,13.8-37.85,13.75M185.73,97.38c-12.07,8.54-31,11.14-31,11.14-.21.82-1.46,1.68-1.46,1.68s1.94.72,6.68,4.29,3.46,3.4,5,4.42,2.38.73,2.38.73a6.78,6.78,0,0,1,.51,2.28c.63.59,3.73,3.55.85,6.61s-6.21.21-6.21.21a5,5,0,0,1-2.32-.14s-6.16,3.88-12.28-.35c-5-3.44-4.68-7.5-4.38-8.91a26.78,26.78,0,0,1-5.34,2.3,29,29,0,0,1-17.7.11,26.94,26.94,0,0,1-10.32-6.52,31.39,31.39,0,0,1-6-8.35c-.2-.41-.38-.82-.55-1.21-.43,1-2.52,5-9,4.69-7.43-.32-10-7.13-10-7.13A5,5,0,0,1,82.63,102s-4.36.26-4.82-3.92,3.8-4.67,4.67-4.76a6.7,6.7,0,0,1,1.78-1.52s.52.75,2.34.85.69-.54,6.63-.53,7.91.61,7.91.61a4.16,4.16,0,0,1-.15-2.22S87.5,77,83,62.91s-3.1-19.31,2.33-34.18c0,0,4,25.32,16.4,41.23a125.9,125.9,0,0,0,20.51,20.56h.38a11,11,0,0,1-2.52-4.61c-1.11-4.36-2.92-8.4-3.74-11.63s1-9.68,1-9.68c-2.48-4-1.27-10.51-1.27-10.51a7.75,7.75,0,0,0,2.37-1.88c1-1.25.66-4.92,1.49-10.32s4.34-11,12.13-14.17,19.38,1,19.49,1,11.89,3.74,16.16,10.93,3.72,13.82,1.13,18.62-5.1,7.53-5,9.13a7.66,7.66,0,0,0,.75,2.92s-3,5.95-7.35,7.63c0,0-2.42,6.26-5,8.33s-6.49,4.21-10,7a10.83,10.83,0,0,1-4.67,2.14l.34.25a125.78,125.78,0,0,0,28.66-4c19.46-5.24,37.94-23,37.94-23-4.62,15.14-6.69,20.13-18.75,28.68"/><path d="M141.34,70l.29-.85c.29-.88-.36-1.27-.4-2.69a5.42,5.42,0,0,1,.18-2.29,1.45,1.45,0,0,0-.87-1.75l-.14-.06-.14,0a1.46,1.46,0,0,0-1.76.88,5.39,5.39,0,0,1-1.24,1.93c-.89,1.11-1.65,1-1.93,1.91l-.29.86a1.37,1.37,0,0,0,.37,1.39,1.64,1.64,0,0,0,.64.42,1.47,1.47,0,0,0,1.91-.85.24.24,0,0,1,.3-.14.24.24,0,0,1,.16.3,1.47,1.47,0,0,0,1,1.82,1.75,1.75,0,0,0,.76.05,1.37,1.37,0,0,0,1.14-.89"/><path d="M144.95,61.33c0,1,.33,4.67,2,5.64h0a12.18,12.18,0,0,0,6.61,1.43,5,5,0,0,0,.62-.15h0A7.28,7.28,0,0,0,156.11,67a9.6,9.6,0,0,0,1.83-2.81,12.46,12.46,0,0,0,.48-1.39s.34-1.57,1-1.81l.21,0h0a13.71,13.71,0,0,0-4.41-.25l-.67.09c-2.62.48-5.06.88-6.74.31a4.37,4.37,0,0,1-1.43-.83l0,0-.31-.28h0a7.59,7.59,0,0,1-1-1.15l0,0s-.12,1.63-.11,2.58"/><path d="M126,49.75c.39.58-.29,2-.29,2a11,11,0,0,0-.42,1.3,8,8,0,0,0,.09,4.88c0,.06.42.74.4.76l-.11.09.11-.08s.24.33.4.49a12.26,12.26,0,0,0,6.14,2.85h0c1.88.21,4.37-2.55,5-3.32s1.47-2.12,1.47-2.12a8.61,8.61,0,0,1-1.54.33h0l-.42,0h0a4.53,4.53,0,0,1-1.64-.2c-1.68-.56-3.38-2.35-5.19-4.31-.16-.17-.32-.33-.48-.48a13.68,13.68,0,0,0-3.66-2.45l0,0h0l.14.15"/><path class="cls-2" d="M130.55,91.69h0a14.3,14.3,0,0,0,3,.71,11.42,11.42,0,0,0,3.31-.13c2.48-.44,5.32-3,6.39-3.74s5.12-3.43,6-4.08a7.7,7.7,0,0,0,2.63-2.78c.94-1.6,2.54-5.3,2.54-5.3s-1.53-.3-2-.36l0,0a37.86,37.86,0,0,1-2.72,4.29h-.05c.4.23,1.55,1,1.75,1.81A18.05,18.05,0,0,1,147.06,85a62.58,62.58,0,0,0-7.45,4.29,5.79,5.79,0,0,1-2.2.85c-.58-1-2.6-2.31-5.18-3.18S127,85.88,126,86.44a6,6,0,0,1-1.42-2.17,61.84,61.84,0,0,0-3.35-7.92,18,18,0,0,1-1.75-4.89c.81-.68,2.64-.36,2.64-.36a3.4,3.4,0,0,1,0-.51c0-1.35.39-4.16.44-4.55a.26.26,0,0,1,0,0c-.44-.25-1.85-.94-1.85-.94v0c-.11.43-1,4-1.16,5.71a7.64,7.64,0,0,0,.42,3.8c.34,1.07,2,5.64,2.35,6.88.05.16.11.35.17.58.43,1.58,1.17,4.65,2.67,6.26a11.79,11.79,0,0,0,5.37,3.34"/><path class="cls-2" d="M136.06,51c1.81,2.09,4.67,4.72,6.39,5.27s5.57.22,8.29-.35a38.2,38.2,0,0,1,6.79,0c-1.68-2.07-7.38-1.48-10.59-1.33-2.79.22-3.62-.19-3.81-.27s-1.1-.22-3.21-2.08c-2.47-2.06-6.66-6-9.25-5.33A38.24,38.24,0,0,1,136.06,51"/><path class="cls-2" d="M125.41,60.85c-.07-.1-.91-1.31.16-1.94l.13-.08.11-.09s-.37-.7-.4-.76a8,8,0,0,1-.09-4.88,10.52,10.52,0,0,1,.42-1.3s.67-1.46.29-2l-.15-.15h0l0,0s-2.12,3.88-2.31,5.9-.33,3.9,1.87,5.38"/><path class="cls-2" d="M132.4,62.09s0,.63-1.3,1.52a5.47,5.47,0,0,0,3.78-.2c1.63-.89,3.78-5,6.52-4.08s2,5.49,2.74,7.18A5.39,5.39,0,0,0,147,69c-.52-1.51-.11-2-.11-2h0c-1.62-1-2-4.68-2-5.64s.11-2.56.12-2.58c-1.22.63-5.67-.87-6.24-2.09,0,0-.89,1.36-1.47,2.12s-3.08,3.53-5,3.32"/><path class="cls-2" d="M159.43,61c-.66.23-1,1.81-1,1.81a12.18,12.18,0,0,1-.48,1.38A9.62,9.62,0,0,1,156.11,67a7.5,7.5,0,0,1-1.93,1.31,2,2,0,0,0,.08.27c.49,1.21-1,1.65-1,1.65,2.66.15,3.68-1.44,4.74-3.16s1.72-6.09,1.72-6.09h0l-.21,0"/><path class="cls-2" d="M122.83,64.46c1,.46,2.07.95,3.07,1.5,1.48.84,3.08,1.83,3.7,3.52a.11.11,0,0,0,0,0,2.32,2.32,0,0,1,.07,1.39.51.51,0,0,0-.06-.21c-.14-.26-.37-.46-.52-.7v0A6.12,6.12,0,0,0,128,69v0a9.23,9.23,0,0,1-.82,2,14.78,14.78,0,0,0-.91,1.73.15.15,0,0,1,0,0,3.81,3.81,0,0,0,.27,3.36c.2,0,.63-.19,1.45-2.47a2,2,0,0,0,.09-.28,1.24,1.24,0,0,0-.07-.47v0c.1-.37.58-.34.88-.3l.3,0a10.34,10.34,0,0,0,.52-1.59,5,5,0,0,0-1.17-4.75c-1.48-1.68-5.28-2.94-6.7-3.65s-2.71-4.16-2.54-6.53c0,0-.14,1.32-.14,2.65a12.61,12.61,0,0,0,.07,1.53,4.72,4.72,0,0,0,.12.61c.41,1.41.46,2.3,3.51,3.65"/><path class="cls-2" d="M143.93,78a1,1,0,0,1,.35.24,2.06,2.06,0,0,1,.2.31l-.45.08c-.08,0-.46.13-.46.24-.73,2.32-.5,2.73-.33,2.84a3.82,3.82,0,0,0,2.25-2.51s.27-1.42.32-2a10,10,0,0,1,.52-2h0a4.34,4.34,0,0,0-2.56.57,5.51,5.51,0,0,0-.6,1.9l.76.35"/><path class="cls-2" d="M155.2,73.76c-1.57-.29-5.36-1.58-7.55-1.12a5.07,5.07,0,0,0-3.49,2.43l0,0,0,0c1.21-1.4,3.42-1.34,5.08-1.13a34.94,34.94,0,0,1,3.87.74c3.25.77,3.83.09,5-.79a9.76,9.76,0,0,0,2.44-3l0-.06c-1.47,1.74-4,3.24-5.43,3"/><path class="cls-2" d="M141.91,67.05h0v0a4.58,4.58,0,0,1,.12-1.93,2.24,2.24,0,0,0-1.47-2.7,1.45,1.45,0,0,1,.87,1.76,5.48,5.48,0,0,0-.18,2.28c0,1.42.69,1.81.4,2.69l-.29.85a1.37,1.37,0,0,1-1.14.89v0a1.71,1.71,0,0,1-1.12,1h0a2.28,2.28,0,0,0,3-1.22l.27-.82a2.21,2.21,0,0,0-.09-1.55,3.89,3.89,0,0,1-.29-1.28"/><path class="cls-2" d="M135,67.86l.29-.85c.29-.88,1-.8,1.93-1.91a5.4,5.4,0,0,0,1.24-1.93,1.46,1.46,0,0,1,1.76-.88,2.25,2.25,0,0,0-2.82,1.26,4.35,4.35,0,0,1-1.07,1.61h0l0,0a3.71,3.71,0,0,1-1,.84,2.21,2.21,0,0,0-1,1.18l-.27.82a2.27,2.27,0,0,0,1.62,2.75,1.71,1.71,0,0,1-.27-1.5.11.11,0,0,1,0,0,1.38,1.38,0,0,1-.37-1.39"/><path class="cls-3" d="M119.52,71.47a18.12,18.12,0,0,0,1.75,4.89,61.39,61.39,0,0,1,3.35,7.92A6,6,0,0,0,126,86.44c1-.56,3.49-.38,6.19.52s4.6,2.15,5.18,3.18a6,6,0,0,0,2.21-.85A63.11,63.11,0,0,1,147.06,85a18,18,0,0,0,4.33-2.84c-.2-.86-1.35-1.58-1.75-1.81a4.82,4.82,0,0,0-1.66.58c-.54.4-2.51,3.33-5.09,4.43.24-1.46-.69-2.21-.94-2.18s-.43.6-.48.74-.55,1.13-.72,1.58-.12.5-.12.5L139.4,86c.39-.75.75-1.49,1.08-2.23a.54.54,0,0,0-.42-.75h0l-1.1-.18h0a.7.7,0,0,0-.8.38l-.14.35c-.17.41-.35.82-.53,1.22a.38.38,0,0,1,0,.07,1.34,1.34,0,0,0,0,.94,5.45,5.45,0,0,1-1.06-.11,3.72,3.72,0,0,1-.64-.21,1.36,1.36,0,0,0,.32-.48h0l.94-2.29s.22-.6-.17-.71-1.05-.27-1.58-.43a.53.53,0,0,0-.61.35c-.08.21-.22.53-.27.68l-.6,1.72a0,0,0,0,1,0,0,1.35,1.35,0,0,0,0,.71l-.77-.17a3,3,0,0,1-.67-.36,1.39,1.39,0,0,0,.2-.38c.24-.85.47-1.92.68-2.8a.6.6,0,0,0-.36-.65c-.45-.17-.89-.34-1.33-.52a.49.49,0,0,0-.62.39c-.18.81-.38,1.77-.52,2.47a1.36,1.36,0,0,0,.17.84c-.21-.06-.62-.23-1-.37s-.71-.41-.71-.41c.25,0,.39-.55.39-.55.28-.57.46-1.07.68-1.61l0-.07,0-.05a.77.77,0,0,0-.25-.93l-1.23-.63a.41.41,0,0,0-.62.28,12,12,0,0,0-.71,2,3,3,0,0,0,0,.69,2.37,2.37,0,0,1-1.08-1,3.56,3.56,0,0,0,.45-1.77c0-.75.05-1.44-.29-1.68s-.93.38-1.23.82a2.55,2.55,0,0,0-.36.7v.06c-1.4-2.43-1.2-6-1.39-6.62a5.14,5.14,0,0,0-1-1.5s-1.83-.32-2.64.36"/><path class="cls-3" d="M140.41,62.33l.15.06-.15-.06"/><path class="cls-2" d="M178.57,93.8l-.1.08s-13.29,7.91-33.48,9.35a29,29,0,0,1,1.7,2.84,88.86,88.86,0,0,0,18.65-2.89,70.07,70.07,0,0,0,11.23-4.12,51.27,51.27,0,0,0,10.32-6.29,49.59,49.59,0,0,0,5.71-5.37,28.25,28.25,0,0,0,5.81-9.31l.1-.28c-.1.23-3.94,9.05-19.93,16"/><path class="cls-3" d="M141.5,98.93a32.32,32.32,0,0,1,2.22,2.55l2.44-.18c3.7-.31,7.4-.76,11.06-1.42a113.06,113.06,0,0,0,19.15-5.17c.76-.3,1.48-.61,2.19-.91,16-6.94,19.84-15.77,19.93-16,0,0-.66.57-1.69,1.4l-1.48,1.19c-6,4.74-18.54,13.28-38.94,16.94a112,112,0,0,1-14.89,1.59"/><path class="cls-1" d="M144.51,114.22c-4.13,2.6-13.35,5-22.22,2a28.73,28.73,0,0,1-16.36-14.91,1.81,1.81,0,0,1,1-2.33,3.4,3.4,0,0,0-1.53.71,1.32,1.32,0,0,0-.13.29c-1,2.91,4.93,15.29,16.08,19s23.22-2.24,24.31-5.49a2.07,2.07,0,0,0,.09-.42,3.47,3.47,0,0,0-.74-1.29,1.76,1.76,0,0,1-.5,2.37"/><path class="cls-4" d="M129.57,94.53c-10.27-3.44-21.43,1.65-23.87,4.75a3,3,0,0,0-.27.39l0,.06a3.39,3.39,0,0,1,1.53-.71,1.82,1.82,0,0,0-1,2.33,28.73,28.73,0,0,0,16.36,14.91c8.88,3,18.1.57,22.23-2a1.76,1.76,0,0,0,.49-2.37,3.57,3.57,0,0,1,.74,1.29,7.41,7.41,0,0,0-.49-3.14c-1.65-4.93-7.17-12.62-15.68-15.47m6.49,11.74c0,.14,0,.28,0,.42l-1.12-.55a16.14,16.14,0,0,1-.63,2.49c-.56-.32-1.13-.63-1.7-.93a19.46,19.46,0,0,0,.6-2.37c-.62-.28-1.24-.55-1.88-.82q-.25,1.14-.61,2.27c-.59-.27-1.18-.53-1.78-.78.23-.73.44-1.46.63-2.19-.62-.24-1.26-.48-1.91-.7q-.33,1.06-.69,2.14c-.61-.22-1.22-.42-1.83-.61.24-.72.49-1.43.74-2.12-.65-.21-1.31-.41-1.95-.59-.29.69-.56,1.4-.82,2.13-.62-.17-1.25-.32-1.89-.46.26-.74.56-1.46.88-2.16-.67-.17-1.34-.33-2-.48a20.08,20.08,0,0,0-.94,2.24c-.64-.11-1.28-.2-1.92-.28a15.44,15.44,0,0,1,1-2.35l-1.23-.23.27-.4a60.87,60.87,0,0,0-10-1,35,35,0,0,1,10.88-.2l.11-.14,1.07.14c.32-.46.66-.9,1-1.34.6.07,1.19.16,1.76.26-.32.45-.64.91-.93,1.38q1,.18,1.93.4c.27-.49.54-1,.83-1.43.54.12,1.08.24,1.61.38-.24.48-.48,1-.71,1.47.61.16,1.22.34,1.83.53l.58-1.52c.52.16,1,.33,1.53.51-.15.52-.3,1-.45,1.56.6.22,1.19.44,1.78.68q.17-.8.31-1.6c.51.21,1,.43,1.52.67-.05.54-.12,1.08-.2,1.63.61.27,1.2.55,1.78.83,0-.55.07-1.09.08-1.64.52.27,1,.55,1.56.85q0,.82,0,1.64l.93.53c0,.08,0,.17,0,.25a33.54,33.54,0,0,1,8.31,6.54,60.12,60.12,0,0,0-8.33-5.08"/><path d="M107.26,99a61.73,61.73,0,0,1,10,1c.28-.41.57-.8.88-1.18a35.11,35.11,0,0,0-10.88.2"/><path d="M136.08,104.81c0,.48,0,1,0,1.46a59.76,59.76,0,0,1,8.33,5.08,33.57,33.57,0,0,0-8.31-6.54"/><path class="cls-3" d="M136.08,104.81c0-.09,0-.17,0-.26l-.93-.52c0-.55,0-1.1,0-1.65-.52-.29-1-.58-1.56-.85,0,.54,0,1.09-.08,1.63-.58-.28-1.17-.56-1.78-.84q.12-.81.2-1.62c-.51-.24-1-.46-1.52-.67q-.14.79-.32,1.6c-.58-.24-1.17-.46-1.78-.68.15-.52.31-1,.45-1.56-.51-.18-1-.35-1.53-.51-.19.5-.39,1-.57,1.52-.62-.19-1.23-.37-1.83-.53.23-.5.47-1,.71-1.47-.53-.14-1.07-.26-1.61-.38-.29.46-.56.94-.83,1.43q-1-.22-1.93-.4c.29-.47.61-.93.93-1.38-.57-.1-1.16-.18-1.76-.26-.36.43-.7.88-1,1.34l-1.07-.14-.1.13c-.3.38-.6.77-.87,1.18l-.27.4,1.23.22a15.4,15.4,0,0,0-1,2.34c.64.08,1.29.18,1.93.28a19.53,19.53,0,0,1,.94-2.24q1,.22,2,.48-.48,1-.88,2.16c.63.14,1.27.29,1.89.46.25-.72.53-1.43.82-2.13l1.95.59c-.25.7-.5,1.4-.74,2.13.62.19,1.23.4,1.84.62.24-.72.47-1.43.69-2.15q1,.34,1.91.71c-.2.72-.41,1.46-.64,2.2.6.24,1.19.5,1.78.77.24-.75.44-1.51.61-2.27.64.27,1.27.54,1.88.82a18.58,18.58,0,0,1-.6,2.37c.57.3,1.15.61,1.7.93a15.25,15.25,0,0,0,.63-2.49l1.12.55c0-.14,0-.28,0-.42,0-.48,0-1,0-1.45"/><path class="cls-3" d="M91.06,64.6l.57,1c.38.61.85,1.43,1.45,2.42A85.24,85.24,0,0,0,105,82.89s6.44,6.35,9.18,8.76a32,32,0,0,1,3.32-.72,112.71,112.71,0,0,1-11-10.32c-17.36-18.81-20.68-36.3-21.79-41,0,0-1.65,10.32,6.36,25"/><path class="cls-2" d="M107.24,91.93a12.73,12.73,0,0,0,1.85,1.6,30.36,30.36,0,0,1,3.06-1.24C96.84,78.92,91,64.52,91,64.52l0,.08c-8-14.67-6.36-25-6.36-25l-.1.29a23.16,23.16,0,0,0-1,6.21,39.64,39.64,0,0,0,.89,10.47,51.57,51.57,0,0,0,3.6,10.55A63.5,63.5,0,0,0,93.77,77a79.49,79.49,0,0,0,9.07,10.76q2.14,2.14,4.4,4.14"/><path class="cls-2" d="M91.64,65.63l-.57-1,.57,1"/><path class="cls-2" d="M89.39,97.69a1.76,1.76,0,0,0-.22.73,1.43,1.43,0,0,0,.28.76,46.57,46.57,0,0,1,7.73,1.07c.12-.42.27-.94.48-1.57a4.45,4.45,0,0,1,.49-1l0,0a48.9,48.9,0,0,0-8.73,0"/><path class="cls-3" d="M89.39,97.69a48.79,48.79,0,0,1,8.73,0l0,0a4.65,4.65,0,0,1,2.55-1.89c-1.28-.2-2.79-.38-4.08-.49-.64-.06-1.28-.11-1.93-.14l-1.23,0A7.5,7.5,0,0,0,91,96a4.46,4.46,0,0,0-1.57,1.7"/><path class="cls-3" d="M88.3,97.76s.14-.25.16-.28a4,4,0,0,1,1.43-1.42h0a8.45,8.45,0,0,1,3.41-1H92.8a26.38,26.38,0,0,0-3.53.29,21.5,21.5,0,0,1-3,.32,4.71,4.71,0,0,1-.88-.08h0a3.5,3.5,0,0,1-.79-.24s.57,2.41,3.69,2.41"/><path class="cls-2" d="M104.18,90.62c-.17,0-.29.18-.24.46a3.79,3.79,0,0,1-.08,2.25,4,4,0,0,1-2.19,2.36,3.91,3.91,0,0,0-2.28,2.7c-.3,1.43-1.08,3.32-.86,4.57a1.44,1.44,0,0,0,1.64,1.09,1.79,1.79,0,0,1-2,.31c-.9,1.65-2.24,2.33-4.7,1.86a8.46,8.46,0,0,1-6.35-7,6.51,6.51,0,0,1,1.32-.08h0a1.42,1.42,0,0,1-.32-.78,1.57,1.57,0,0,1,.18-.63c-3.12,0-3.68-2.36-3.69-2.4a3.08,3.08,0,0,0-1,2.15,1.37,1.37,0,1,0,0,.46s0,0,0-.06a3.5,3.5,0,0,0,.59,1.58,1.65,1.65,0,0,0,.92.71s.06-.09.07-.09.31-.33.35-.31a2.7,2.7,0,0,1-.84-3.46,3.82,3.82,0,0,0,1.62,3.09c.18.83,1.49,5.8,6.36,7.35,5.32,1.69,7.38-.85,7.85-1.81.22-.43.76-1.79.76-1.79.46-1.32,1.63-6.47,2.07-7.07a7.31,7.31,0,0,0,1.22-5.22s-.11-.36-.39-.28"/><path class="cls-3" d="M151.89,112.92a4.81,4.81,0,0,1,.9,3.09,48.13,48.13,0,0,1,6.95,5.29,4.48,4.48,0,0,0-.23-2.3,7.5,7.5,0,0,0-1.44-2.24l-.23-.17c-.59-.43-1.2-.83-1.82-1.22q-1.28-.83-2.61-1.59l-1.26-.71-.26-.14"/><path class="cls-3" d="M160.32,119.67a4.51,4.51,0,0,1,.31,1.87,2.34,2.34,0,0,1-.06.46v0l.32.23a5.81,5.81,0,0,0,.54.31,3.94,3.94,0,0,0,.91.35,3.23,3.23,0,0,0,.72.09,3.08,3.08,0,0,0,1.86-.68l0,0a3.36,3.36,0,0,1-.75-.27,4.74,4.74,0,0,1-.76-.48c-.33-.24-1.3-1.16-1.54-1.4l-1-1c-.39-.39-1.24-1.18-1.64-1.48l-1.13-.9a13.38,13.38,0,0,1,2.15,2.85"/><path class="cls-2" d="M162.35,122.91a4.4,4.4,0,0,1-.92-.35c-.18-.1-.36-.2-.54-.31l-.32-.23v0a1.15,1.15,0,0,1-1,1h0a8,8,0,0,1,1,.86,8.46,8.46,0,0,1-9.27,1.72c-2.25-1.1-2.91-2.46-2.63-4.33a1.77,1.77,0,0,1-1.41-1.45l.07,0a1.46,1.46,0,0,0,1.89.07,6,6,0,0,0,1.17-2c.3-.73.56-1.48.9-2.18a3.52,3.52,0,0,0,.28-.93,4,4,0,0,0-.48-2.61,4,4,0,0,1-.31-3.21,3.83,3.83,0,0,1,1.29-1.84.35.35,0,0,0,.08-.51c-.18-.23-.49,0-.49,0a7.29,7.29,0,0,0-2.18,4.9c0,.75-2.18,5.55-2.61,6.89a13,13,0,0,0-.48,1.89c-.13,1.06-.09,4.31,5.18,6.18,4.82,1.71,8.85-1.49,9.5-2.05a3.68,3.68,0,0,0,2.82-1.08,4,4,0,0,0,.34-.38A2.79,2.79,0,0,1,162,125.3a2.31,2.31,0,0,1-.48,0s0,.07,0,.11a1.5,1.5,0,0,1,.06.46,1.22,1.22,0,0,0,.43.1,2.68,2.68,0,0,0,1.78-.68,3.54,3.54,0,0,0,.34-.32,1.35,1.35,0,0,0,.57,1.78,1.37,1.37,0,0,0,1.3-2.4,1.35,1.35,0,0,0-1.48.12,3.11,3.11,0,0,0,.42-1.76c0-.07,0-.4-.05-.41l0,0a3.12,3.12,0,0,1-1.86.67,3.31,3.31,0,0,1-.72-.09"/><path class="cls-2" d="M152.55,117.1c-.22.63-.41,1.14-.57,1.54a47.09,47.09,0,0,1,6.81,3.81,1.45,1.45,0,0,0,.69-.44,1.75,1.75,0,0,0,.26-.72,48.67,48.67,0,0,0-6.94-5.29,8.56,8.56,0,0,1-.25,1.09"/><path class="cls-2" d="M145,30.48C130.24,28,127.39,39,127.34,41.73c0,2,.09,3.29,0,4.08A20.84,20.84,0,0,1,122.93,47a40.49,40.49,0,0,1,.65-6.16c.5-2,3.9-10.94,15.86-11a28.14,28.14,0,0,1,4,.29l1.49.29H145"/><path d="M166.54,91.71a125.32,125.32,0,0,1-28.66,4l-.34-.25a10.88,10.88,0,0,0,4.67-2.14c3.51-2.81,7.4-4.95,10-7s5-8.33,5-8.33c4.38-1.68,7.36-7.63,7.36-7.63a7.64,7.64,0,0,1-.75-2.92c-.07-1.61,2.43-4.32,5-9.13s3.16-11.39-1.13-18.62S151.7,28.77,151.6,28.74s-11.74-4.19-19.49-1S120.81,36.49,120,41.89s-.47,9.07-1.49,10.32a7.74,7.74,0,0,1-2.37,1.88s-1.21,6.54,1.27,10.51c0,0-1.85,6.46-1,9.68s2.64,7.27,3.74,11.63a11,11,0,0,0,2.52,4.61h-.38A125.82,125.82,0,0,1,101.74,70C89.38,54.05,85.35,28.73,85.35,28.73,79.91,43.59,78.55,48.82,83,62.91s18,27.58,18,27.58a4.14,4.14,0,0,0,.15,2.22s-2-.6-7.91-.61-4.81.62-6.63.52-2.34-.86-2.34-.86a6.76,6.76,0,0,0-1.78,1.52c-.87.09-5.12.58-4.67,4.75S82.63,102,82.63,102a5,5,0,0,0,1.93,1.28s2.58,6.81,10,7.13c6.46.28,8.54-3.65,9-4.69.17.39.35.8.55,1.21a31.39,31.39,0,0,0,6,8.35,27,27,0,0,0,10.32,6.51,28.94,28.94,0,0,0,17.7-.11,26.61,26.61,0,0,0,5.33-2.3c-.29,1.41-.59,5.48,4.39,8.91,6.12,4.23,12.28.35,12.28.35a4.94,4.94,0,0,0,2.32.14s3.33,2.84,6.21-.21-.22-6-.85-6.61a6.84,6.84,0,0,0-.51-2.28s-.86.29-2.38-.73-.23-.85-5-4.42-6.69-4.29-6.69-4.29,1.25-.86,1.46-1.68c0,0,18.9-2.61,31-11.15s14.13-13.54,18.75-28.67c0,0-18.49,17.76-37.94,23M119.2,60.2a12.29,12.29,0,0,1-.07-1.52c0-1.33.13-2.66.13-2.66a9,9,0,0,0,2.7-2.83,25.44,25.44,0,0,0,1.68-5c3.45-.39,6.68-4.06,6.87-4.29a10,10,0,0,1-3.14,1.92A20.7,20.7,0,0,1,122.93,47a40.82,40.82,0,0,1,.66-6.16c.5-2,3.9-10.93,15.86-11a28.15,28.15,0,0,1,4,.29c.51.09,1,.19,1.49.28l.07,0c2.72.56,4.91,1.23,5.48,1.4l.16.06c.28.09.66.21,1.13.38l.42.17.6.24c.28.1.58.23.88.37l1,.45.6.26C170.7,41.24,167.3,53,166.41,55.22a32.52,32.52,0,0,1-3.1,5.15,20.38,20.38,0,0,1-2.76-3.73,9.35,9.35,0,0,1-1.12-3.05s.3,5.11,2.89,7.57a26.3,26.3,0,0,0-1.68,5,9,9,0,0,0,.45,3.89l-.46.71,0,.06a9.75,9.75,0,0,1-2.45,3c-1.17.88-1.74,1.56-5,.79a35.19,35.19,0,0,0-3.86-.74c-1.67-.21-3.87-.27-5.09,1.13l0,0a2.6,2.6,0,0,0-.41.65,4.36,4.36,0,0,1,2.56-.57v0h0a9.57,9.57,0,0,0-.52,2c-.06.55-.32,2-.32,2a3.81,3.81,0,0,1-2.24,2.51c-.17-.11-.4-.51.33-2.84,0-.11.37-.25.46-.25l.45-.07a1.67,1.67,0,0,0-.2-.31c-.07-.11-.24-.18-.35-.25l-.76-.35-.6-.25a.7.7,0,0,1,0,.21,4.3,4.3,0,0,1-.1.46.39.39,0,0,1,0,.11c0,.15-.08.29-.12.44-.14.53-.27,1-.44,1.48l0,0a.52.52,0,0,1-.66.33l-.06,0L140,79.82a.74.74,0,0,1-.39-.72s0,0,0,0,0,0,0,0,0-.09,0-.13c.13-.47.41-1.47.44-1.71a4,4,0,0,1,.34-1,1.92,1.92,0,0,0-.45-.38.92.92,0,0,0-.51-.08.77.77,0,0,0-.21.38c0,.07-.17.58-.35,1.15l-.49,1.49a.5.5,0,0,1-.51.38.85.85,0,0,1-.27,0l-1.24-.47-.08,0a.6.6,0,0,1-.4-.74l.66-2c0-.14.09-.28.14-.43h0a1.25,1.25,0,0,1,.46-.65,3.94,3.94,0,0,0-.79-.37,7.26,7.26,0,0,0-.91-.2,1.29,1.29,0,0,1,.07.73l-.71,2.49c0,.08-.14.34-.31.4a1.57,1.57,0,0,1-.63-.09h-.08c-.39-.12-1-.21-1.33-.31,0,0-.61-.18-.42-.74,0,0,.4-1.46.6-2.16a.47.47,0,0,1,0-.06,3.8,3.8,0,0,0,.14-.78.46.46,0,0,0-.48-.55c-.21,0-.43.38-.49.59s-.19.63-.19.63v0h0l0,.1c-.21.57-.38,1-.57,1.6a.72.72,0,0,1-.8.43l-1.27-.25-.06,0a.52.52,0,0,1-.33-.67.08.08,0,0,1,0,0c.18-.51.32-.93.53-1.44.06-.13.27-.63.38-.82a1,1,0,0,1,.29-.3c0-.11-.16-.32-.48-.43l-.13,0-.31,0c-.3,0-.78-.07-.87.3v0a1.22,1.22,0,0,1,.06.47,1.71,1.71,0,0,1-.09.28c-.81,2.29-1.25,2.48-1.45,2.47a3.81,3.81,0,0,1-.27-3.36v0a15.43,15.43,0,0,1,.91-1.73,9.39,9.39,0,0,0,.82-2v0a6.14,6.14,0,0,1,1.11,1v0c.15.25.38.44.52.7a.54.54,0,0,1,.06.21,2.38,2.38,0,0,0-.06-1.39.16.16,0,0,1,0,0c-.62-1.69-2.21-2.68-3.7-3.52a32.93,32.93,0,0,0-3.07-1.5c-3.05-1.34-3.1-2.23-3.51-3.65a5.31,5.31,0,0,1-.12-.61m3.31,21.89c-.06-.22-.12-.42-.17-.58-.39-1.25-2-5.82-2.35-6.88a7.52,7.52,0,0,1-.47-3.16c0-.2,0-.41.05-.64.2-1.73,1.06-5.28,1.16-5.72v0s1.41.68,1.85.94a.21.21,0,0,1,0,0c-.05.4-.42,3.2-.44,4.56a4.06,4.06,0,0,0,0,.5,5.13,5.13,0,0,1,1,1.51c.19.64,0,4.18,1.39,6.62v-.06a2.65,2.65,0,0,1,.36-.7c.3-.45.88-1.07,1.23-.82s.3.94.29,1.69A3.56,3.56,0,0,1,126,81.1a2.36,2.36,0,0,0,1.08,1,2.91,2.91,0,0,1,0-.69,12,12,0,0,1,.71-2,.42.42,0,0,1,.63-.29l1.24.64a.76.76,0,0,1,.26.92l0,.05s0,0,0,.07c-.22.54-.4,1-.68,1.62,0,0-.14.53-.39.55a6.64,6.64,0,0,0,.71.42,7.53,7.53,0,0,0,1,.36,1.34,1.34,0,0,1-.16-.83c.13-.7.34-1.67.51-2.47a.49.49,0,0,1,.62-.39c.44.18.88.35,1.33.52a.59.59,0,0,1,.35.65c-.2.89-.43,2-.67,2.8a1.39,1.39,0,0,1-.2.38,2.7,2.7,0,0,0,.68.35c.26.07.77.18.77.18a1.31,1.31,0,0,1,0-.71,0,0,0,0,0,0,0l.6-1.71.28-.68a.53.53,0,0,1,.61-.35c.52.15,1,.3,1.57.43s.17.71.17.71L136,84.94a1.34,1.34,0,0,1-.32.48,4.06,4.06,0,0,0,.63.22,6.32,6.32,0,0,0,1.06.11,1.35,1.35,0,0,1,0-.95.17.17,0,0,0,0-.07c.18-.41.36-.82.53-1.22l.14-.35a.7.7,0,0,1,.79-.39h0c.37.07.73.13,1.1.19h0a.54.54,0,0,1,.42.75c-.34.73-.68,1.48-1.08,2.23l1.24.07s-.05,0,.12-.5.66-1.44.71-1.59.24-.71.48-.74,1.18.73.94,2.18c2.58-1.11,4.55-4,5.09-4.44a4.84,4.84,0,0,1,1.66-.58h.05a38.8,38.8,0,0,0,2.72-4.3l0,0c.51.06,2,.36,2,.36s-1.59,3.71-2.54,5.31a7.66,7.66,0,0,1-2.63,2.78c-.91.65-5,3.32-6,4.08s-3.91,3.3-6.39,3.74a11.35,11.35,0,0,1-3.31.13,14.14,14.14,0,0,1-3-.7h0a11.8,11.8,0,0,1-5.37-3.34c-1.5-1.61-2.24-4.68-2.67-6.26M93.78,77a63,63,0,0,1-5.72-9.89,51.68,51.68,0,0,1-3.6-10.55,39.37,39.37,0,0,1-.89-10.47,23.27,23.27,0,0,1,1-6.21l.1-.29c1.12,4.7,4.43,22.18,21.79,41a114.07,114.07,0,0,0,11,10.33,31.75,31.75,0,0,0-3.32.71c-2.74-2.41-9.16-8.74-9.18-8.76A85.26,85.26,0,0,1,93.08,68c-.61-1-1.07-1.8-1.44-2.42-.21-.35-.39-.69-.58-1l0-.08c.18.44,6.06,14.61,21.13,27.75a30.09,30.09,0,0,0-3.07,1.25,13.34,13.34,0,0,1-1.85-1.6q-2.26-2-4.4-4.14A79.93,79.93,0,0,1,93.78,77m.91,18.08c.65,0,1.29.08,1.93.14,1.29.11,2.8.28,4.08.49a4.6,4.6,0,0,0-2.54,1.89,4.38,4.38,0,0,0-.5,1c-.2.63-.36,1.15-.47,1.58a46.12,46.12,0,0,0-7.73-1.08,1.49,1.49,0,0,1-.29-.77,1.84,1.84,0,0,1,.23-.73A4.43,4.43,0,0,1,91,96a7.36,7.36,0,0,1,2.5-.92l1.22,0m8.67,1c-.44.6-1.61,5.75-2.08,7.07,0,0-.54,1.36-.76,1.79-.48,1-2.53,3.5-7.86,1.8-4.88-1.54-6.19-6.52-6.37-7.35a3.8,3.8,0,0,1-1.61-3.08,2.7,2.7,0,0,0,.84,3.44c-.05,0-.31.27-.34.31l-.07.1a1.63,1.63,0,0,1-.92-.71,3.22,3.22,0,0,1-.49-1.08,3.86,3.86,0,0,1-.1-.5.14.14,0,0,1,0,.06,1.38,1.38,0,1,1-1.15-1.57,1.36,1.36,0,0,1,1.14,1.1,3.08,3.08,0,0,1,1-2.15,3.58,3.58,0,0,0,.79.24,5.26,5.26,0,0,0,.89.08,21,21,0,0,0,3-.32,25.84,25.84,0,0,1,3.53-.29h.52a8.47,8.47,0,0,0-3.42,1h0a3.9,3.9,0,0,0-1.43,1.42s-.13.24-.15.28a1.14,1.14,0,0,0,.14,1.4h0a6.45,6.45,0,0,0-1.32.08,8.44,8.44,0,0,0,6.35,7c2.46.48,3.81-.2,4.7-1.86a1.78,1.78,0,0,0,2-.31A1.44,1.44,0,0,1,98.53,103c-.22-1.25.56-3.13.86-4.56a3.9,3.9,0,0,1,2.28-2.7,3.93,3.93,0,0,0,2.18-2.37,3.73,3.73,0,0,0,.08-2.24c0-.27.07-.41.24-.46s.39.29.39.29a7.32,7.32,0,0,1-1.22,5.22m42.39,17a1.93,1.93,0,0,1-.09.43c-1.09,3.24-13.15,9.23-24.3,5.49s-17.06-16.12-16.08-19a1.44,1.44,0,0,1,.13-.29s0,0,0-.06a2.56,2.56,0,0,1,.28-.39c2.45-3.1,13.6-8.19,23.87-4.75,8.51,2.86,14,10.54,15.68,15.47a7.37,7.37,0,0,1,.49,3.14m13.56,4.58c.39.3,1.25,1.09,1.64,1.48l1,1c.24.23,1.21,1.16,1.54,1.4a4.8,4.8,0,0,0,.76.48,4.06,4.06,0,0,0,.75.27h0a4,4,0,0,1,.05.4,3,3,0,0,1-.42,1.76,1.4,1.4,0,1,1-.4.52,3.12,3.12,0,0,1-.34.32,2.74,2.74,0,0,1-1.79.68,1.25,1.25,0,0,1-.42-.1,1.47,1.47,0,0,0-.06-.46l0-.12a2,2,0,0,0,.48,0,2.77,2.77,0,0,0,2.27-2.22,3.35,3.35,0,0,1-.34.38,3.68,3.68,0,0,1-2.81,1.08c-.65.55-4.68,3.76-9.5,2.05-5.26-1.87-5.3-5.12-5.17-6.18a13,13,0,0,1,.48-1.88c.43-1.34,2.6-6.14,2.6-6.89a7.33,7.33,0,0,1,2.18-4.9s.3-.23.48,0a.34.34,0,0,1-.08.51,3.82,3.82,0,0,0-1.29,1.84,4,4,0,0,0,.32,3.21,4.05,4.05,0,0,1,.47,2.62,3.89,3.89,0,0,1-.28.92c-.34.71-.6,1.46-.9,2.18a6,6,0,0,1-1.17,2,1.47,1.47,0,0,1-1.89-.07l-.07,0a1.75,1.75,0,0,0,1.41,1.44c-.28,1.87.38,3.23,2.63,4.33a8.46,8.46,0,0,0,9.27-1.72,7.19,7.19,0,0,0-1-.86h0a1.41,1.41,0,0,0,.72-.43,1.55,1.55,0,0,0,.24-.6h0a2.87,2.87,0,0,0,.07-.46,4.49,4.49,0,0,0-.32-1.86,12.77,12.77,0,0,0-2.12-2.84l1.11.87m-5.89-3.94c.89.51,1.76,1,2.61,1.58q.93.59,1.81,1.23l.22.17A7.23,7.23,0,0,1,159.5,119a4.36,4.36,0,0,1,.23,2.3,1.81,1.81,0,0,1-.26.71,1.4,1.4,0,0,1-.69.44,47.16,47.16,0,0,0-6.81-3.81c.16-.4.35-.92.57-1.54a7.87,7.87,0,0,0,.24-1.09,4.83,4.83,0,0,0-.9-3.09l.25.14,1.27.72m45-35.69a28.27,28.27,0,0,1-5.81,9.31,50.11,50.11,0,0,1-5.71,5.38,51.75,51.75,0,0,1-10.33,6.29,69.88,69.88,0,0,1-11.23,4.12,88.53,88.53,0,0,1-18.64,2.89,29.75,29.75,0,0,0-1.7-2.83c20.18-1.45,33.48-9.36,33.48-9.36l.1-.08c-.71.31-1.44.62-2.2.92a111.39,111.39,0,0,1-19.14,5.17c-3.66.66-7.37,1.11-11.07,1.42l-2.45.19a31,31,0,0,0-2.22-2.55,114,114,0,0,0,14.9-1.59c20.4-3.67,32.94-12.2,38.94-16.94.55-.44,1-.83,1.48-1.2,1-.83,1.67-1.36,1.69-1.4v0Z"/><path class="cls-2" d="M166.4,55.22a32,32,0,0,1-3.1,5.15,20.85,20.85,0,0,1-2.75-3.74c.46-.69,1.35-1.63,2.33-3a12.82,12.82,0,0,0,2-6.88c0-3.69-1.65-8.15-7.66-11.81l-.07,0-.23-.14c-.77-.46-1.54-.88-2.26-1.22l.6.25C170.7,41.23,167.29,53,166.4,55.22"/><path class="cls-3" d="M162.88,53.64a12.85,12.85,0,0,0,2-6.88c0-3.69-1.65-8.15-7.66-11.81l-.07,0-.23-.14c-.77-.47-1.54-.88-2.26-1.22l-1-.45-.89-.37-.6-.23-.42-.16c-.46-.17-.85-.3-1.13-.38l-.17-.06c-.57-.18-2.75-.84-5.47-1.4C130.24,28,127.39,39,127.34,41.73c0,2,.09,3.3,0,4.08a9.88,9.88,0,0,0,3.14-1.92c-.2.23-3.42,3.9-6.87,4.29a25.48,25.48,0,0,1-1.68,5A9,9,0,0,1,119.26,56c-.17,2.38,1.11,5.81,2.53,6.53s5.22,2,6.7,3.65a5,5,0,0,1,1.17,4.75,10.58,10.58,0,0,1-.52,1.6l.13,0c.31.11.48.32.48.44a1,1,0,0,0-.29.29,7.79,7.79,0,0,0-.38.82c-.21.51-.36.93-.53,1.44a.07.07,0,0,0,0,0,.52.52,0,0,0,.33.66l.06,0,1.27.25a.72.72,0,0,0,.8-.43c.19-.56.36-1,.57-1.59l0-.1h0l0,0s.13-.39.18-.62.28-.6.49-.6a.45.45,0,0,1,.48.55,3.58,3.58,0,0,1-.13.78.21.21,0,0,0,0,.06c-.2.69-.6,2.15-.6,2.15a.58.58,0,0,0,.42.74c.37.11.93.19,1.33.31l.07,0a1.58,1.58,0,0,0,.63.08c.17-.06.28-.32.31-.4l.71-2.49a1.34,1.34,0,0,0-.07-.73,6.58,6.58,0,0,1,.91.2,3.08,3.08,0,0,1,.79.37,1.27,1.27,0,0,0-.46.64v0l-.14.43c-.2.6-.45,1.36-.66,2a.61.61,0,0,0,.4.74l.07,0,1.24.47a.88.88,0,0,0,.27,0,.5.5,0,0,0,.51-.37c.09-.29.31-.92.49-1.5s.35-1.09.35-1.15a.83.83,0,0,1,.21-.38,1,1,0,0,1,.52.09,2,2,0,0,1,.44.38,3.91,3.91,0,0,0-.34,1c0,.23-.31,1.23-.44,1.69,0,0,0,.09,0,.13s0,0,0,.05,0,0,0,0a.74.74,0,0,0,.4.73l1.18.57.06,0a.52.52,0,0,0,.66-.33.08.08,0,0,1,0,0c.17-.52.29-.95.44-1.48l.12-.44a.37.37,0,0,0,0-.11,4.52,4.52,0,0,0,.1-.46.86.86,0,0,0,0-.22l.6.25a5.47,5.47,0,0,1,.6-1.9,2.47,2.47,0,0,1,.41-.65h0a5.08,5.08,0,0,1,3.48-2.42c2.19-.45,6,.83,7.55,1.12,1.39.25,4-1.25,5.43-3l.46-.71a9.12,9.12,0,0,1-.45-3.89,26.38,26.38,0,0,1,1.69-5c-2.59-2.46-2.89-7.57-2.89-7.57a9.24,9.24,0,0,0,1.13,3c.46-.68,1.35-1.62,2.33-3m-23-1.46c2.1,1.86,3,2,3.21,2.09s1,.49,3.81.27c3.21-.15,8.92-.74,10.6,1.33a38.1,38.1,0,0,0-6.8,0c-2.72.57-6.57.94-8.28.35s-4.58-3.18-6.4-5.27a38.69,38.69,0,0,0-5.38-4.13c2.58-.64,6.78,3.27,9.24,5.32m2.38,17.7-.27.82a2.28,2.28,0,0,1-3,1.23h0a1.72,1.72,0,0,0,1.13-1,.08.08,0,0,0,0,0,1.85,1.85,0,0,1-.76-.05,1.47,1.47,0,0,1-1-1.82.25.25,0,0,0-.47-.16,1.48,1.48,0,0,1-1.91.85,1.63,1.63,0,0,1-.64-.43.07.07,0,0,0,0,0,1.71,1.71,0,0,0,.27,1.51A2.28,2.28,0,0,1,134.06,68l.27-.82a2.24,2.24,0,0,1,1-1.19,3.58,3.58,0,0,0,1-.83v0h0a4.31,4.31,0,0,0,1.08-1.61,2.26,2.26,0,0,1,2.82-1.26l.13,0,.15.06a2.25,2.25,0,0,1,1.47,2.7A4.58,4.58,0,0,0,141.9,67v0h0a3.76,3.76,0,0,0,.29,1.28,2.21,2.21,0,0,1,.09,1.55m17.38-9h0S159,65.31,158,67s-2.08,3.31-4.74,3.16c0,0,1.54-.45,1-1.65a1.68,1.68,0,0,1-.08-.27h0s-.41.12-.62.15A12.22,12.22,0,0,1,146.94,67l0,0s-.41.48.11,2a5.4,5.4,0,0,1-2.89-2.44c-.76-1.69,0-6.23-2.74-7.18s-4.89,3.18-6.52,4.07a5.48,5.48,0,0,1-3.78.2c1.34-.89,1.3-1.52,1.3-1.52h0a12.2,12.2,0,0,1-6.14-2.85,5.81,5.81,0,0,1-.4-.49l-.11.08-.12.08c-1.07.63-.23,1.85-.16,1.94-2.2-1.48-2.06-3.36-1.87-5.37s2.31-5.9,2.31-5.9l0,0v0A13.46,13.46,0,0,1,129.52,52l.48.48c1.8,2,3.51,3.75,5.19,4.31a4.43,4.43,0,0,0,1.64.2h0l.42,0h0a8.94,8.94,0,0,0,1.54-.33c.57,1.23,5,2.72,6.24,2.09l0,0a8.3,8.3,0,0,0,1,1.15h0l.31.28,0,0a4.4,4.4,0,0,0,1.43.82c1.68.57,4.12.17,6.74-.31l.67-.09a13.77,13.77,0,0,1,4.42.24"/></g></svg>