<svg id="Layer_1" data-name="Layer 1" xmlns="http://www.w3.org/2000/svg" viewBox="0 0 244.97 173.54"><defs><style>.cls-1{fill:#fff;}.cls-2{fill:#002a5c;}.cls-3{fill:#4495d1;}.cls-4{fill:#bbc4ca;}.cls-5{fill:#da2128;}</style></defs><title>TEN</title><g id="TEN"><path class="cls-1" d="M79.1,101.24a41.39,41.39,0,0,0,4.57,15c4.09,7.89,12.66,18.4,30.32,24.35a71.68,71.68,0,0,0,9.84,12.24A71,71,0,0,0,224.1,52.26a70.27,70.27,0,0,0-38.68-19.81,48.6,48.6,0,0,0-44.08-11.26l-1.45.43c-7.14,2.37-10.84-.35-13.23-2.22a68.8,68.8,0,0,0-8.34-5.76c-9.48-5.33-23-5.52-34.31-.95-7.48,2.54-11.25-.75-13.48-2.29C55.73.18,37.53-2.26,18.21,2,5.2,4.86,0,7.51,0,7.51a84.7,84.7,0,0,1,18.22,5.18C25.86,15.88,31.94,20,36.54,27.34c0,0,2.9,4.25,1,5.51-2.1,1.4-4.3-2-4.3-2a64,64,0,0,0,.09,6.8C34.42,57.25,38.42,69,47.89,78.06c4.31,4.1,11.58,8.09,22.81,12.5C75.83,92.61,78.6,95.24,79.1,101.24Z"/><path class="cls-2" d="M220.9,55.46a66,66,0,0,0-37.53-18.74A44.34,44.34,0,0,0,142.6,25.54c4.73.7,7.87,3.52,6.66,6.64-.8,2.06-4.24,2.18-5.81,2.19-5,.05-9.29-3-12.72-5.8s-9.4-8.06-14.62-11c-9.72-5.47-25.16-4.79-36.33,2.35,6.68.45,14.72,2.38,19.52,6.35,2.68,2.22,6.09,6.67,3.3,8.76-2.45,1.83-8.48.89-11.54-.89A48.94,48.94,0,0,1,79.15,23.95C61.47,3.11,36.42,2,15.75,7.06,29.31,10.86,38.36,18.59,44,31.9s9.94,19,19.14,22.59c5.77,2.26,7.33,2.68,6.88,5.23-.66,3.74-7.49,1.95-12.71-.09-6.35-2.48-14.71-9.32-19.69-22.16C38.48,54.09,41.65,65.87,51,74.78c4,3.78,11.28,7.7,22.71,12.1,7.3,2.81,13.07,4.51,18.51,9.38,6.34,5.68,3.64,9.43-.57,8.72-4.76-.8-8.15-5.66-8.15-5.66s0,27.06,33.45,37.48A66.79,66.79,0,0,0,127,149.61,66.47,66.47,0,1,0,220.9,55.46Z"/><path class="cls-3" d="M217.37,58.83a60.93,60.93,0,0,0-36.6-17.6C168.87,29.37,157,29.93,157,29.93c5.21,3.27,2.52,10.53-9.06,12.13s-26-2.3-33.14-10.57C107.49,23,102,22.59,102,22.59c6.34,4,6.79,8.72,10.65,16s11.78,9.85,18.68,10.3c7.27.48,7.45,3.77,1.59,7.25-6.4,3.79-12.06.21-16.18-3.85-6.5-6.41-13-7.64-21.92-7.52S74,46,64,42.29,47.48,25.42,47.48,25.42c4.94,17.44,15.91,25.71,26.08,27.7C87,55.76,96.3,59,102,63.56a30.7,30.7,0,0,1,10.6,15.2c1.61,4.78,1.9,11.13.31,11.51-1.85.44-2.24-2.11-4.42-6.57-2.42-4.92-5.3-8.78-11.11-11.88-7.87-4.2-15.58-4-23.44-3.85a53,53,0,0,1-9.88-.63s.26.84,10.4,3.12C85.76,73,96.69,79.37,104,94.9c6.19,13.21,3,22.51-10.75,18.3,0,0,6.4,14.24,27.33,19.31a61.72,61.72,0,0,0,10,13.13,61.38,61.38,0,0,0,86.8-86.8Z"/><path class="cls-1" d="M174,43.85A58.38,58.38,0,1,1,132.68,61,58,58,0,0,1,174,43.85Z"/><path class="cls-2" d="M174,155.58a53.34,53.34,0,1,1,53.27-53.42A53.34,53.34,0,0,1,174,155.58Z"/><path class="cls-1" d="M160.92,91.44H145.11l-5.21,9.29-7-19.87h82l-7,19.87-5.17-9.29H187.18L174,149Z"/><polygon class="cls-4" points="214.88 80.86 132.9 80.86 134.22 84.63 173.32 84.63 160.92 91.44 174.02 149.02 174.02 84.63 213.56 84.63 214.88 80.86"/><path class="cls-5" d="M133.72,34.79c-11.89-.34-16.74-5.05-24.12-11a24.87,24.87,0,0,0-19.06-5.24c6-3.44,17.81-3.58,26.31,3.88C124.44,29.11,128.17,32.72,133.72,34.79Z"/><path class="cls-5" d="M32.23,8.6s11.12-.27,20.85,17.18c8.17,14.67,23.76,17.6,35.17,14.37A29.38,29.38,0,0,1,65,25.19C56.6,10.3,45.49,6.15,32.23,8.6Z"/><path class="cls-5" d="M95.21,93.08S93.63,76.87,70.53,72.16C47.26,67.43,44.27,55.32,44.27,55.32s.16,17.46,20.17,22.82C78.42,81.89,88.68,84,95.21,93.08Z"/><polygon class="cls-5" points="181.98 75.73 178.84 66.38 186.79 60.62 176.92 60.62 173.82 51.27 170.86 60.62 161 60.74 169.04 66.46 166.04 75.86 173.97 69.98 181.98 75.73"/><polygon class="cls-5" points="146.78 108.8 140.25 116.19 131.22 112.23 136.23 120.72 129.67 128.09 139.3 125.95 144.28 134.46 145.22 124.64 154.85 122.54 145.8 118.61 146.78 108.8"/><polygon class="cls-5" points="193.01 122.75 202.68 124.71 203.76 134.51 208.61 125.92 218.27 127.92 211.6 120.65 216.48 112.08 207.52 116.18 200.88 108.89 202 118.69 193.01 122.75"/></g></svg>