<svg id="Layer_1" data-name="Layer 1" xmlns="http://www.w3.org/2000/svg" viewBox="0 0 229.88 249.17"><defs><style>.cls-1{fill:#fff;}.cls-2{fill:#ffc20e;}.cls-3{fill:#681d13;}</style></defs><title>WAS</title><g id="WAS"><path class="cls-1" d="M71.35,189.3a5.91,5.91,0,0,1-2.46-.18A27.39,27.39,0,0,0,70,195l-1,1.18,1.16.89c-1.25,8.64,2.42,14.58,4.11,20.37a5.18,5.18,0,0,1-4-.25c.44,4.9,0,14.33-3.93,18.43-.76-.49-1.3-.62-1.6-1.07A41.87,41.87,0,0,0,62.59,240,52.78,52.78,0,0,0,61,249.17c-3.26-1.67-6.81-3.43-10-8.83a14.1,14.1,0,0,0-3-4,4.63,4.63,0,0,1-1.28,1.8,10.21,10.21,0,0,1-3.07,1.69,23,23,0,0,0-2.27-6.63c-1.24-2.72-5.48-6.32-8.95-15.14a42.24,42.24,0,0,1-2.73-9.88,3.18,3.18,0,0,1-.62.27c-1.29.35-2.22.27-2.66-.71-1.09,2.95-2.45,4.58-3.61,5.39-.53,1.69-.44,2.14-1.6,3.52a11.42,11.42,0,0,0-2.16,5c-1.2,3.07-3,4.59-3.27,5.39-.44-1-.62-.8-1.07-1.51-4.36,5.79-4.9,7.3-14.78,9.35,2.49-4.9,4.19-13.09,4-14.78-1.25-11.48-2.4-13.89-3-22.79a188,188,0,0,1-.44-30C1.6,149.68,6.59,134.46,10.86,123c5.52-16,18.16-41.84,27.39-57.62l0-14.32h3.56l3.74-8.54,1.69,1.25,6.41-17.09,4.54,12.91L66,34.65C69.09,31.8,91.17-.07,137.93,0c45.3-.07,92,35.37,92,92,0,51.46-42,91.17-90.53,91.17-37.58,0-61.8-19.14-74.64-36.68C65.53,155.29,63.82,172.83,71.35,189.3Z"/><path class="cls-2" d="M138,4.23A87.36,87.36,0,0,0,57.66,57.36l-13,0v2.86H56.51A87.34,87.34,0,1,0,138,4.23Z"/><polygon class="cls-1" points="51.53 62.36 54.98 64.59 55.75 62.36 51.53 62.36"/><circle class="cls-1" cx="138.04" cy="91.56" r="75.15"/><path d="M90.73,84.45s-6.14,14.87-5.88,26.62c0,0,1.91-4.41,2.58-3.65,0,0-5.52,18.52-1.33,29.11a15.62,15.62,0,0,1,2.4-4.72,33.46,33.46,0,0,0,3.21-6.59,17.63,17.63,0,0,1,.71,3.48,15.86,15.86,0,0,0,2.49-4.36c.35-1.4,1.25-2.94,1.87-4.72l.71.36s4.18-5.08,5.79-9.71c0,0,1.25-.18.62,3.47a13.31,13.31,0,0,0,3.56-8.64l.71.8c2.94,3.65,2.94,9.26,2.85,12.73-.71,11.13-6.41,17.1-13.53,23.59l.62.54c10.6-2,17.57-3.1,28.31,0a104.09,104.09,0,0,1,18.79,8.73s10.68,4.63,18.16,4.63c0,0,.35.18.35-.23,0,0-.8-2.76-.09-13.13,0,0,.8-4.81,1.43-8.1a23.32,23.32,0,0,0,.89-6.77c0-.37-.36-3.12,1.51-2.85,4.06.58,6.32-.35,9.44-.89a33.63,33.63,0,0,1,4.63-1.07s3.13.5,4.1.18a11.1,11.1,0,0,0,3.65-2.58s1.6-1.69.54-5.52c0,0-1.07-3.47-.45-4.54a13,13,0,0,1,2.32-3.74s1-1.6-.36-2.4c0,0-.71-.8.49-1.11a3,3,0,0,0,1.47-.22s.31-.13.36-.8a10.58,10.58,0,0,0-2-7.21s.67.18,1.16.36a10.58,10.58,0,0,0,4.32-.44c1.29-.71,3.16-1.6,2.9-5.87-.71-3.56-2.14-5.7-3.56-9.7-1.69-4.28-2-6.41-5.52-9.35-2.14-1-3.12-2.58-1.51-4.19,1.25-1.87.8-5.25-1.43-7.56a26.79,26.79,0,0,1-4.54-7.12,33.14,33.14,0,0,0-3.3-4.9c-1.07-1.34-2.67-2.14-5.52-5.52a6.67,6.67,0,0,1-2-3.12c-2.4-3.74-9.08-9-16.74-9.53l-3.83-.45c-2.67-1-11-1.25-16.74.35-1.85.4-5.52,1.07-5.52,1.07a29.36,29.36,0,0,0-7.75,3c-2.22,1.16-5.52,3.92-8,5.7-2.67,2.67-8.64,6.59-11.93,8.81A89.22,89.22,0,0,0,87.08,61.56S79,71.71,75,89.25c-.27,2.67-1,5.25-.53,8.19,0,0,3.56-7.75,6.85-10.15A22.37,22.37,0,0,0,80.58,91,20.75,20.75,0,0,1,83,87.38s1.25-1.34,3-3.47c0,0,3.74-4.9,4.81-5.43A14.22,14.22,0,0,0,89,85.42a6.08,6.08,0,0,0,1.11-1.25s.35-.71.71-.53A.87.87,0,0,1,90.73,84.45Z"/><path class="cls-3" d="M198.15,92.23c.94-2,.76-3.87-.58-6.19a23.68,23.68,0,0,1-2-4.72c-.27-.75-.8-2.32-1.43-3.65a15.44,15.44,0,0,0-1.87-4c-1.78-2.58-3.25-2.81-4.23-3.87h-.37c-1,.7-1,2.22-1.93,3.37a.57.57,0,0,1-.59.19c-.29-.14-.41-.39-.73-.84s-.53-.12-.84.23c-.21,0-.36.17-.52.33s-.05.44.16.76,0,.33.14.51a.89.89,0,0,1-.12.25c-.11.18-.4.14-.61.1a2.14,2.14,0,0,1-1-.31c-.65-.31-1-1.15-1.46-1.42a1.16,1.16,0,0,0-1,.08.55.55,0,0,0-.16.84c.42.38.74.83,1.19,1.17.6.45,1.26.78,1.34,1.42.11.81-1.09,1.1-1.65.68a8.26,8.26,0,0,1-1-.8c-.05-.05-.1-.32-.16-.37a3.27,3.27,0,0,1-.69-.63,2.37,2.37,0,0,0-1-1,.8.8,0,0,1-.27-.33c-.21-.37,0-.8-.13-1.14s-.18-.73-.58-.55c-.36.35-.31.35-.72.32s-.1-1-.09-.88a1.3,1.3,0,0,1,.15-.33c-.36-.11-.9-.4-.48-.93s.7.21.82-.06a3.48,3.48,0,0,1,.47-.74.35.35,0,0,1,.57.17c-.18.49.34.81.83.55.05,0,0-.4.08-.49a6.2,6.2,0,0,1,1.88-1.75c.06,0,.27-.1.29-.14.21-.43.46-1.05,0-1.25s-1.16,0-1-.69c.07-.32.5-.44.72-.54.85-.4,1.72-.79,2.6-1.14.21-.08.57-.4.84-.43a5.27,5.27,0,0,1,2.21.18,8.59,8.59,0,0,1,.93.38,1.88,1.88,0,0,0,2.23-.61,3.29,3.29,0,0,0-.14-3,11.93,11.93,0,0,0-2.19-2.76c-1-1-2.2-1.45-2.45-2.77a19.74,19.74,0,0,0-2.26-5A25.8,25.8,0,0,0,179,47.09c-.21-.28-1.6-1.68-1.83-1.91a9.12,9.12,0,0,0-3.91-2.64c-.86-.31-4.2-.11-5.93-.33-.54-.07-2.23-.11-2.68-1a6.21,6.21,0,0,0-1.79-2.51c-.31-.2-.8-.4-1.13-.57-1.56-.79-3.18-2.11-4.88-2-.62,0,0,.69.14.78a4.76,4.76,0,0,1,1.53,1.33c.44.51,1.39.53,2.21.87s1.42.82,2.15,1.2,1.6,1.55.85,2-1.41-.09-2.32.13a4.45,4.45,0,0,1-1.51.17c-1.4.19-1.88-.48-3-1.25s-1.76-2-2.8-2.69a16.46,16.46,0,0,0-4-2.17c-.32-.11-.75.07-1-.09-.51-.29-.9-.89-1.52-.94a6.23,6.23,0,0,0-2.17,0c-.15,0-.55.48-.69.47-.63,0-1.37-.19-1.69.16-.51.56.1.5.74.8a4.69,4.69,0,0,0,1.54.56,7.75,7.75,0,0,1,4.36.72,2.89,2.89,0,0,1,.82.94c-1.35,0-3.46-.55-5-.43,2.6-.21-2.65.07-3.81,0-.33,0-.34.69.2,1.08.14.1.93,0,1,.21a4.18,4.18,0,0,1,2.19,0c.67.24.29.14.87.44a2,2,0,0,0,1.12.4c.54-.06.58-.86,1.13-.61a4.9,4.9,0,0,0,.69.33c3.09-.06,3.15.91,4.6.89.38,0,.93-.15,1.19,0a1.89,1.89,0,0,0,2,.09s2.05,5.52,1.51,15.58a42.13,42.13,0,0,1-1.78,8.55s-1.43,5.52-.89,9.35a55.65,55.65,0,0,1-7.66,30.71c-1.6,2-2.49,3-.89,4.45,3.38,3.12,6.14,3.83,11,4.9a12.8,12.8,0,0,0,4.36.71,16.65,16.65,0,0,1,8.19,2.4c1.69.89,6.23,2.58,9,2.14a12.37,12.37,0,0,1,4.27.8,3.43,3.43,0,0,0,2.49.09c.76-.54.4-.31,1.38-1,.18-.44,1.47-1,1.2-2.8a28.47,28.47,0,0,0-.89-4,3.3,3.3,0,0,1-.44-3.07,25,25,0,0,1,2.23-3.21c1.07-1.2.45-2-1-2.45a17,17,0,0,0-3.52-.31,8.51,8.51,0,0,0-2.45-.09s-.71.49-1.11.85l-.53-.31a5.76,5.76,0,0,1,1.51-2.27,9.62,9.62,0,0,0,3.29.09c.93-.42,2-.59,2.76-.89a19.5,19.5,0,0,1,3.56,0,6.75,6.75,0,0,0-2-6.1c-.67-.62-1.2-1.43-2.18-1.47A7.92,7.92,0,0,1,182.25,93c-.85,0-1.11.31-1.56.85a6.83,6.83,0,0,1-2.54,2.63l-.71-.09a26.62,26.62,0,0,1,2-2.85,17.55,17.55,0,0,1,2.32-4.1c.49-.85.62-2.76,1.82-3.29.58,0,.67-.14,1.11.13-.89.85-3.38,3.87-.8,5.74,1.07.89,2.67.89,3.07,0a2.53,2.53,0,0,1,.85-1,3.65,3.65,0,0,1,2.89.76A8.32,8.32,0,0,0,193,93.79a3.83,3.83,0,0,0,2.18.36A4.08,4.08,0,0,0,198.15,92.23Z"/><path class="cls-3" d="M179.54,71.35c.53.28.75.19,1.85.35a2.39,2.39,0,0,0,1.82-.61c.13-.12.87-.49.85-.78-.1-1.35.11.89-.16-1.15a5.41,5.41,0,0,0-.21-1.29.79.79,0,0,0-1-.46,10.5,10.5,0,0,0-1,.79c-.49.93-1.24,1-1.58,1.67s-.47.68-.63,1C179.4,71.06,179.33,71.23,179.54,71.35Z"/><path d="M187.73,84.77c1.54-.5,2.27.21,4,1.36.29.2.53.72.11,1a.58.58,0,0,1-.55,0,5.07,5.07,0,0,0-3.58-1.71C187.59,85.39,187.34,84.89,187.73,84.77Z"/><path d="M178.65,100.42a20.49,20.49,0,0,1-.76,2c-.3.69-.16,1.54-.63,2.17a.53.53,0,0,1-.86-.16,5.07,5.07,0,0,1,.43-3.61,1.48,1.48,0,0,1,1.74-.65c-.06.14.15.21.09.36Z"/><path d="M163.33,92.23a1,1,0,0,1-.71-1.16c.17.05,0-.19.18-.18,1.07.07,2.06.49,3.12.52a7.85,7.85,0,0,0,3.54-.73,29.68,29.68,0,0,0,3.88-2.23,6.81,6.81,0,0,1,2.17-.79c1.15-.26,1.07-.91,1.94-1.41,1.25-.74,1.16-1.27,1.87-1,.2.08-.21.52-.42.72a6.72,6.72,0,0,0-1.52,1.61,8.31,8.31,0,0,1-.89,1c-1.43,1.07-1.76,2-2.83,3.31a11.49,11.49,0,0,0-1.21,2.58,10.8,10.8,0,0,1-.7,1.5c-.13.2-.61.11-.78.27a13.24,13.24,0,0,0-2.4,2.78.42.42,0,0,1-.53.08,3.11,3.11,0,0,0-2.73-2c-.24,0-.5-.55-.48-1a.39.39,0,0,0-.24-.33c-.2,0-.3-.24-.52-.25s-.41-.37-.46-.51a26.32,26.32,0,0,1-.35-2.74Z"/><path class="cls-1" d="M143.6,116.95c-.23-.89-1.67-.81-2.69-.7a11.69,11.69,0,0,0-4.51,1.23c1-1.51,2.23-1.6,4.56-2.5.53-.2.4-1.14.06-1.69a1.42,1.42,0,0,0-1.1-.7,5.89,5.89,0,0,0-3.56.33,17.65,17.65,0,0,0-8.93,6.12,1.66,1.66,0,0,0-.26,1.69c.35.49.92,1.83,1.07,1.67,1.43-1.55,3.17-3,5-2.53-.8.27-3.6,1.69-4.49,3.75a2.33,2.33,0,0,0,.89,1.28c.71,1.2,1,1.69,1.38,1.92.26,0,.78-.54.92-.77,2-2.62,3.93-4.22,9.37-4.93,1.56-.26,2.45-.71,2.58-2.14a2.89,2.89,0,0,0-.31-2.14"/><path class="cls-1" d="M137.12,125.22c.09,1.34-.11,1.94.27,2.81s1.12,1.54,1.4,2.39c.22.65,1,1.48,1,1.93a1.37,1.37,0,0,1,.41.67c.47.62,1.87,1.37,1.38,1.73s-2.32.13-3.36,0c-1.34-.22-.56,1-.27,1.12,1.36.56,4.23.76,5.16,1.27a3.6,3.6,0,0,1,1.55,1.35,6.24,6.24,0,0,0,.78,1.15,11.68,11.68,0,0,0,2.16,2.5c.47.38,1,1,.84,1.62s-.63.83-1.28.74a7.77,7.77,0,0,1-1.48-.49c-1.25-.4-1.52-.86-2.4-.4-.49.25.22,1.07.76,1.36,2.24,1.19,4.93,1.22,7.1,2.48a5,5,0,0,1,2.89,5.16c0,.05.67.42.71.36.64-1,2.25.24,3,0,.07,0,.1-.44,0-.61-.37-.56-1.17-.59-1.51-1.13s.16-1.19,0-1.69-1,.37-1.37,0c-1.43-1.48-2.36-3.24-4.28-4.09a14.78,14.78,0,0,0,1-5.88c-.54-.45-.76.27-.89.35-.44.42-.27,1.34-.78,2-.08.12-.77,0-1-.2a10.54,10.54,0,0,1-3.14-4c0-.06-.29-.39-.34-.47a3.78,3.78,0,0,1,.21-4.59c.12-.14.3-1,.18-1.07s-.64.17-.82.35c-.61.62-1.13,1.86-2.16,1.75s-1.6-1.29-2.32-2.07c-.22-.76-.65-1.24-.54-1.33-1-1.43-1.07-2.58-2-4.36A1.33,1.33,0,0,0,137.12,125.22Z"/><path class="cls-3" d="M143.88,149.26c1.16.59-.18-.76-.18-.76a12.27,12.27,0,0,1-1.7-2.31,22,22,0,0,1-1.15-2.23c-.45-1.07-1.31-1.82-2.75-3.21a13.24,13.24,0,0,1-2.29-2.82c-.71-1.4-1.11-3.89-2.79-5.07-1.3-.91-1-1.94-2.12-3.7-.43-.67-1.31-.74-2-1.4-1.63-1.64-.6-2.28-2-3.79a6.4,6.4,0,0,1-1.44-1.8c-.7-1.29-.17-3-1.37-3.59a16.25,16.25,0,0,0-2.63-1,15.9,15.9,0,0,1-3.92-2.08c-1.06-.83-3.23-2.64-5.57-4.66,1.43,11-.53,20.3-11.4,30.09C120.73,137.24,129.55,142,143.88,149.26Z"/><path class="cls-3" d="M151.49,135.28c.06.9.37.73.86,2a7.15,7.15,0,0,0,1.31,2A9,9,0,0,1,157,146.4c.1,1.34.18,1.25,1.49,2.2a5.46,5.46,0,0,1,1.06.84c.27.22,2.18,2.27,2.45,2.49,0-.8.08-2.16.07-2.58-.13-4.2.69-8.54-.74-12.21-1.07-2.75-3.47-5.84-4.41-8.72l-.47-1.57a26.4,26.4,0,0,1-.54-4.56l-3-1.42c-2.34-.94-5-1.8-7.35-2.68,0,1.25.18,2.14-.76,3.38.63,1.51,1.16,4.85,1.87,5.65a11.39,11.39,0,0,1,3.83,6.14C150.74,134.21,151.45,134.66,151.49,135.28Z"/><path class="cls-1" d="M115.3,40.46s-1.78-.18-6,3c-4.63,2.85-10.77,6.94-15.22,12.38-3.25,3.25-7.83,8.19-9.53,11.66A42.8,42.8,0,0,0,80,79s.62,2.32,2.41-.71c3.11-5.29,15-23.1,31.87-36.1l.8,0c-8.37,7.21-19.23,16.92-29.78,33.43-.39.61-.9,1.71-.95,1.79-.47.88.74,1,.13.87,1,.23,1.32-1.1,1.93-1.37.38-.16.54,1,1.15.68A13.08,13.08,0,0,0,92.24,73a9.73,9.73,0,0,0,.53,1.52c1,.27,4-3.92,5.61-6.77.44.53-.11,1.84.48,1.28a25.17,25.17,0,0,0,4.44-5.27c1.14-2,2.38-2.86,2.83-6.33a3,3,0,0,1,.89.8,19.08,19.08,0,0,1,1.19-1.89c.77-.87.93-1.54,1.86-2.16a5.82,5.82,0,0,0,1.22-2.34c.14-.69,1.68-2.93,1.78-3.67,1.25-2.31,3.38-3.56,4.9-5.34C119.4,41.53,118.33,39.31,115.3,40.46Z"/><path class="cls-1" d="M99.63,110c.62.71,1.15-.22,1.15-.22a13.2,13.2,0,0,0,2-4c.44-1.38,1-1.87,1.42-7.66,1.25,1.87,1.43,5.43,1.43,5.43l.36-.09s1.16-3.29,3.11-4.36a8.44,8.44,0,0,1,2.14-4.45c-.27-1.34-.45-2.4-.71-4.54A38.49,38.49,0,0,1,110,76.43c1.6,8.55,2.54,9.79,2.54,9.79l.36.13c.67-1,.85-2.81,1-4.41.8-3.38,2.23-3,2.23-3.74-.44-2.76-1.16-7.12-.71-10.86.89,4.1,1.33,3.83,2,5.34.8,1.87.89-.44.89-.44-.18-2.4,1.51-4.81-.09-10.42-.62-3.83-2.4-12-1.69-13.89.44-2.32-.36-1.51-.36-1.51s-2.31.53-5.78,10.33C105.33,73,101,90.41,96.25,104.48c1.42-7.39,9-33.48,11.22-42.92,0,0-.31-.67-.8.09a12.82,12.82,0,0,0-1.47,2.09,1.53,1.53,0,0,0-.62.22l-1.11,1.69a98.12,98.12,0,0,1-8.33,9.44A28,28,0,0,0,92.55,80c-.4.94.22,1.07.89.54a30.47,30.47,0,0,1,4-3.34c.1-.08,1.93-.74,1.93-.77a5.59,5.59,0,0,1-.82.75A22,22,0,0,0,96,80.24c-1,1.79-2.17,4-3.65,6.71A59.33,59.33,0,0,0,89,94.24c-1,2.76-.71,3-.71,3,1.34.53.61,1.21.61,1.21-.61,1.1-.87,2,.15,1.59a2.1,2.1,0,0,0,1.3-.82c.52-.65,1-1.09,1.33-1.54.6-.74.49-1,1.13-1.71A7.76,7.76,0,0,1,95,93.83a7.27,7.27,0,0,0-1.56,3.43l.36.45.27.18S92.6,99.75,91.89,104a29.9,29.9,0,0,1-.58,3.37,3.52,3.52,0,0,0,1.81-.79,13.09,13.09,0,0,0-.41,1.87,8.1,8.1,0,0,0-.16,2c0,1.07,0,.62.36,1.87,1.6-.71,2-.62,3.47-2.4.72-.67,1.26-2.3,1.47-2.19.4.18.07,1.08-.11,1.49a8.86,8.86,0,0,0-.55,1.38c0,.2-.25.51.08.79.14.12,0,.1.5.09.27,0,.51-.42.51-.42s.15,0,.29-.35a1.32,1.32,0,0,1,.49-.54A.68.68,0,0,1,99.63,110Z"/><path d="M64.47,212.47c1.81,4.35,2,8.55.44,16.65-1.78-1.69-1.87-3.21-3.21-4-.18,4.63-.35,6.06-1.24,8.1-1.87,3.65-2.4,5.52-2.49,9.08-3.12-2.58-3.92-6.14-6.06-8.19-1.51-1.52-4.54-4.36-5.61-6.23-.18,2.23,0,3-.89,5.16-.72-2.47-.8-3.21-2.49-5.25-2.23-3.12-7.21-10.06-8.37-17.45-.27-1.25-1-4.9-1.78-9.88-.62,1.69-1.69,3-2.76,3.29-.53.27-.53-.44-.53-.44a12.64,12.64,0,0,0,.44-4.72c-.27-2-.8-6.32-1.78-7.39h-.44a7.33,7.33,0,0,1-1.78,5.25c-.09-2.31,0-4.1-.53-5.25-.27-.8-.89-1.51-1.07-.71a19.48,19.48,0,0,0-.62,4.9c-.18,3.21-.18,4.27-.53,6.95a13.16,13.16,0,0,1-2.58,6.77,9.44,9.44,0,0,0-1.69-3.83c0,2.58.53,6.41-1.07,8.46a16.07,16.07,0,0,0-2.85,6c-.27-2.31-1-1.6-1.34-2.85a22.3,22.3,0,0,1-7.48,11.75,28.3,28.3,0,0,0,2.14-7.12A63.49,63.49,0,0,0,7,211.13c-2.44-11.65-3.61-38.56-1.78-48.79,4.42-36.43,23.24-69.87,39.2-100h-2v-7h2.14l2.89-6.5,1.92,1.47,4-12.06,1.74,8.86,7.57-5.92-6.14,14h2.11c-.34.74-.68,1.47-1,2.21l-13,0v2.86H56.51c-.27.7-.51,1.42-.76,2.13H51.53L55,64.59c-.22.69-.44,1.39-.65,2.09l-1.54-1c-.63,2.85-2.67,12.58-2.22,18.32C56,89.25,60,94.33,59.39,105.72c0,0,.35.26-2-.45,1.16,1.25,1.51,2.23,2.49,4.36a46,46,0,0,1,.44,9.79s.27,7.93.54,10.42c1.07.36.45,3.21.53,6.94a31.14,31.14,0,0,1-.44,4.1c-2.22-1.78-2-1.69-2.67-1.51.53,1.78.89,1.78,2,3.21,0,10.59.36,21.54,1.07,26.35.35,3.47,1,7.48,1.25,8.73a32.14,32.14,0,0,0,2.14,6.41,3.59,3.59,0,0,1-3-1.25c1.43,2.67,1.43,2.14,2.31,3l1.25,9.26-1.42,1.6,2,1.25a38.11,38.11,0,0,0,.09,8,19.43,19.43,0,0,0,2,6.05,2.79,2.79,0,0,1-3-2.05c-.71-.8-2-2.58-2.32-2.58C62.42,210,63.84,211,64.47,212.47ZM47.19,67.35c-2.94,4.19-5.08,10.77-6.14,15.49a12.81,12.81,0,0,1,2.67-1.07C44.17,79.55,47.68,66.66,47.19,67.35Z"/><path class="cls-1" d="M26.45,176.08a96.7,96.7,0,0,0-1.07-9.81c-.37-1,0-1.16.53-1.34.13-.1,2.14-2.58,2.14-3.92-1.69,1.16-2.14,1.43-3.74,2.49-.18-3.83-1.87-9.88-3.74-14.6a14.47,14.47,0,0,1,3.83,5.52,60.72,60.72,0,0,0,1.07-8.1c-1-3.47-2.85-11-2.67-16.65,1.16,4.1,2.22,8.55,3.38,11.22.53-2,1-5.43,1.69-8.37a10.48,10.48,0,0,0,2.49-2c-.35-.62-1.87.54-2.14.62A55.18,55.18,0,0,0,27,114.27l.27-.27c.8.36,1.78,2,2.14,3.65,1.6-1.87,2.67-11.13,3.12-14.78-1.69,0-2.49,1.87-3.65,1.69.18-1.16.27-.62.71-1.69.44-1.25,1.51-2.49,2-4.19,1-1.43,1-3.11,1.07-4.72s-.18-3.74,1.07-5.7a21.3,21.3,0,0,0,.71,3s2.49-5.43,3.83-6.68A69.26,69.26,0,0,1,48.26,62.45H46.39c-2.22,3-17.54,31.88-19.05,37.12C15.59,123.16,8,146.66,6.57,169.87c.09.8.1.3.49,1s.16,1.41.42,2.1c.24-.3.67-.44.71-.89.34,1.38-.67,2.71-.18,4.1.54-.49,1.35-.6,1.78-1.25,0,.55-.19,1.08-.27,1.62a11.47,11.47,0,0,0,.34,2.83c.14,1.22,1.65,2.15,1.22,3.34a9,9,0,0,0-.44,5.88c.13.38.33,1,.78,1.24a1.52,1.52,0,0,0,1.19,0,1,1,0,0,0,.37-.66c.13-.86-.25-1.66-.1-2.48a6.48,6.48,0,0,1,1.06-3,.56.56,0,0,1,.78.15c.45,1,.27,2.2.86,3.12a1,1,0,0,0,1.28.19c.83-.77.52-2,.63-3,.18-1.67-.61-2.57-.83-4.27s.09-1.83.6-2.48c.53,1.49.53,3.12,1.61,4.44a.64.64,0,0,0,.83.14c.78-.67.62-2.14.05-3.09-.87-1.44-1.57-3.73,0-5.05a3.15,3.15,0,0,0,.29,2.1,8.9,8.9,0,0,1,1.61,3.76c0,.53.8.74,1.26.32.08-.08,0-.42.22-.46.75-.1,1.1.78,1.06,1.39.3,0,.69.1.84-.05.72-.74.54-2.49.59-3.51C25.74,175.52,26.14,176.25,26.45,176.08Z"/><path class="cls-1" d="M58.77,184.75c.49.48,1.76-.17,2.13.37a1.75,1.75,0,0,0-.35-.87c-3.29-3.92-6.41-8-6.23-11.13a25,25,0,0,0,5.88,6.41l.09-.62c-1.25-8-1.25-11.57-1.91-19.18-2-1.61-6.36-6.41-5.57-10.51,1.47,2.85,3.21,5,4.81,6l.67.49c-.13-1.38,0-9.52,0-12A47.19,47.19,0,0,1,55,138.66a28.31,28.31,0,0,0-4.32-6.45,32.59,32.59,0,0,0-5.25-5.79s.62.09.94.09a12.54,12.54,0,0,1,3.83,1.91c.67.27,1.56,1.52,3.16,3,1.07,1,1.16,1.78,1.74,2.09a33.27,33.27,0,0,0,3.43,2.85h.36c.27,1.07.13-6.63.13-6.63a45.87,45.87,0,0,1-3.52-7.79c-.18-1.07.62.67,2.14,1.42.45-1.56-.36-9.43-.44-14.87-.44-1.69-6.72-10.42-7-12.6,2.14,3.47,5,3.92,6.05,5.3.27.22.31.31.62.18-.18-9-4.18-13.35-7.92-16.56-.53-8.28,2.22-20.12,2.22-20.12l-1.51-1C42.65,92.54,39.45,109.64,38.74,131a224.74,224.74,0,0,0,6.53,64l.71,2.36c.19.24.42.5.74.34a1.19,1.19,0,0,0,.5-1,12.26,12.26,0,0,1,1-4.12c.06-.1.33-.38.47-.54a4.53,4.53,0,0,0,.8-2.18,1,1,0,0,1,.35-.51c.44-.4.92.18,1.18.54.45.62.23,1.44.63,2.07a27.7,27.7,0,0,0,3.5,4.41,1.61,1.61,0,0,0,1.52.59.68.68,0,0,0,.41-.35c.25-.66-.28-1.24-.58-1.81-.42-.82-1.16-1.81-.68-2.65.13-.23.78.45,1.06.14a1.54,1.54,0,0,0,.22-1.35,9.74,9.74,0,0,0-.65-1.58A46.77,46.77,0,0,1,54,183.87a1.74,1.74,0,0,1-.13-.88c.32.69,1.07,1.17,1.44,1.82a5.64,5.64,0,0,0,.39.45c.44.6,1.27.85,1.56,1.5.41.91.45,2.78,1.75,2.53.42-.08,1.08-.46.8-1.13a4.76,4.76,0,0,0-.72-1.49c-.34-.37-.85-.6-1.08-1a2.81,2.81,0,0,1-.32-2.47C57.76,183.88,58.31,184.29,58.77,184.75Z"/><path class="cls-1" d="M32.73,193.58c.72-3.07,1.37-5.9,3.06-8.62a3.18,3.18,0,0,1,.7-.63c.14,1.73-.07,3.49,1,5.06.49.72,1.21.55,1.95.54.48,1.66,1.67,2.89,2.1,4.62a.66.66,0,0,0,.83.43,2.84,2.84,0,0,0,1.58-1.15l.08-.12c-5.8-19.14-7.25-45-6.35-67,1.07-16.21,2.32-28.07,5.88-42.65,0,0-1.16.44-1.78.71-1.25.63-1.78,1.25-3.11,2.94-.54,1.16-1.25,1.69-1.69,3-1.6,3.21-1.87,5.7-2.67,8l.53-.09a35.68,35.68,0,0,1,5.08-5l.89-.44c-1.25,3.21-2.94,4-4.63,6.94C33.82,105,31.61,123,30.55,128l1.07-.35A21,21,0,0,1,37,124.77c1.78-1.43-5.88,6.59-6.86,9.22-1,7-2.4,18.38-2.62,23.5l.4,0c.53-.36,4.76-5.48,6.41-6.05l.58-.54a60.45,60.45,0,0,0-4.41,9c-.62,1.85-1.42,3.74-2.14,5.43a2,2,0,0,0-.36,1.6,51.59,51.59,0,0,0,.71,8.9l.44.62a8.7,8.7,0,0,1,3.2-3.29l.09.53c-1,2.32-2.22,4.45-2.67,5.61a69.67,69.67,0,0,0,1.51,14.24c.09.64.89.53,1.25.27Z"/><path class="cls-2" d="M62.26,214.46C61,211.62,59,207.7,60.39,201.91c.89,2,1.51,2,2.94,2.32a54.68,54.68,0,0,0,0-5.52,10.92,10.92,0,0,0-1.78-2.14L62.88,194c.62-2.58-.62-4.63-.49-5a27.1,27.1,0,0,1-1.4-3.7c-.23-.81-1.69,0-2.22-.51s-1-.86-1.1-1.57a2.81,2.81,0,0,0,.32,2.47c.23.43.74.66,1.08,1a4.77,4.77,0,0,1,.72,1.49c.28.67-.39,1.06-.8,1.13-1.3.24-1.34-1.62-1.75-2.53-.29-.64-1.12-.9-1.56-1.5a5.81,5.81,0,0,1-.39-.45c-.37-.65-1.12-1.13-1.44-1.82a1.74,1.74,0,0,0,.13.88,46.84,46.84,0,0,0,2.48,5.56,9.79,9.79,0,0,1,.65,1.58,1.54,1.54,0,0,1-.22,1.35c-.28.31-.93-.36-1.06-.14-.48.83.26,1.82.68,2.65.29.57.83,1.15.58,1.81a.68.68,0,0,1-.41.35,1.61,1.61,0,0,1-1.52-.59,27.7,27.7,0,0,1-3.5-4.41c-.4-.63-.18-1.45-.63-2.07-.25-.36-.74-.93-1.18-.54a1,1,0,0,0-.35.51,4.54,4.54,0,0,1-.8,2.18c-.14.17-.41.44-.47.54a12.24,12.24,0,0,0-1,4.12,1.19,1.19,0,0,1-.5,1c-.32.17-.55-.1-.74-.34l.47,1.6.06.19c.15.5.28,1,.4,1.43l.06.23c.12.44.22.84.3,1.2l0,.15a8.48,8.48,0,0,1,.17.91c-.12-.24-.26-.53-.4-.86l-.15-.36-.29-.73-.18-.49-.19-.52c-.81-2.06-1.57-4.19-2.25-6.45h0l-.08.12A2.84,2.84,0,0,1,42.35,195a.66.66,0,0,1-.83-.43c-.43-1.73-1.62-3-2.1-4.62-.74,0-1.46.18-1.95-.54-1.07-1.57-.85-3.33-1-5.06a3.2,3.2,0,0,0-.7.63c-1.69,2.72-2.33,5.55-3.06,8.62A12.8,12.8,0,0,1,32.3,195c-.4,1.2.22,1.38.85.58,1.09-1.41.87-.25,1,.09.27,2,1.33,4.1,1.78,7.57a85.22,85.22,0,0,0,1.42,8.46c.94,5.56,4.63,11.22,6.85,12.62-.27-2.32.53-3.19.36-5l.44-.09c.09,3.12,2.4,7.12,5.08,9.35,2.14,2.49,3.29,3,5.09,5.61.53.89,1,1.3,1.41,2,1-2,2.76-5.57,2.76-9.49a33.56,33.56,0,0,0-.89-9.08c1.6.71,3.38,3.29,4.72,5.52C64,221.5,63.51,216.78,62.26,214.46Z"/><path class="cls-2" d="M6.6,169.87c.09.8.08.31.47,1s.16,1.41.42,2.1c.24-.3.67-.44.71-.89.34,1.38-.67,2.71-.18,4.1.54-.49,1.35-.6,1.78-1.25,0,.55-.19,1.08-.27,1.62a11.47,11.47,0,0,0,.34,2.83c.14,1.22,1.65,2.15,1.22,3.34a9,9,0,0,0-.44,5.88c.13.38.33,1,.78,1.24a1.52,1.52,0,0,0,1.19,0,1,1,0,0,0,.37-.66c.13-.86-.25-1.66-.1-2.48a6.48,6.48,0,0,1,1.06-3,.56.56,0,0,1,.78.15c.45,1,.27,2.2.86,3.12a1,1,0,0,0,1.28.19c.83-.77.52-2,.63-3,.18-1.67-.61-2.57-.83-4.27s.09-1.83.6-2.48c.53,1.49.53,3.12,1.61,4.44a.64.64,0,0,0,.83.14c.78-.67.62-2.14.05-3.09-.87-1.44-1.57-3.73,0-5.05a3.15,3.15,0,0,0,.29,2.1,8.9,8.9,0,0,1,1.61,3.76c0,.53.8.74,1.26.32.08-.08,0-.42.22-.46.75-.1,1.1.78,1.06,1.39.3,0,.69.1.84-.05.72-.74.54-2.49.59-3.51.09-1.87.53-1.16.84-1.33a19.12,19.12,0,0,1,0,3.47c.27,3.2-.09,7.39-1,8.37-.8-.8-.89-1.51-2-1.78-2.85,1.34-2.67,13.53-2.49,15.4,0,.44-.71,0-.71,0a13.28,13.28,0,0,1-2.76-4.63s-.62-.71-.62,0c-.8,2.58-.53,9.62-.18,11.31a7.13,7.13,0,0,1-.89,5.16c-.18.53-.54.62-.54-.09s-.62-1.16-.89-2c0,0-.62-1.15-.8,0a31.41,31.41,0,0,1-2.85,7.84l-.44.27c.18-2.85-.71-7.3-1.33-10.6-1.43-8.55-2.85-16.56-2.85-28.22,0-5.25.28-10.91.28-10.91Z"/><polygon class="cls-1" points="55.56 49.41 56.01 51.5 58.32 47.01 55.56 49.41"/><polygon class="cls-1" points="47.1 55.2 48.35 52.13 51.91 55.2 47.1 55.2"/><polygon class="cls-1" points="51.2 51.82 52.85 45.94 54 54.22 51.2 51.82"/><path class="cls-1" d="M141.69,40.87c-.27-.29-1.23-.14-1.4-.55a2.16,2.16,0,0,0-.42-.74c-.3-.23-.71.09-1.12.15a3.71,3.71,0,0,1-1.68-.22c-1,1.1-3.51.37-4.71.45-.15,0,.76.52.92.66.85.72,2.23.65,3.26.69a4.4,4.4,0,0,0,.63-.19,11.25,11.25,0,0,1,3.37.43C140.91,41.64,142.05,41.26,141.69,40.87Z"/><path class="cls-1" d="M159,42.42l-2.65-1.51a3.54,3.54,0,0,0-.61-.81c-.59-.54-.91-1.19-1.59-1.62a15,15,0,0,0-2.65-1.7c-.11,0-.23,0-.35,0a.12.12,0,0,1-.09-.17c-.09,0-.21,0-.25,0a1.12,1.12,0,0,0-.48-.28c-.52-.17-1.11.14-1.56-.26a6.1,6.1,0,0,0-.85-.55c-.79-.51-1.69-.2-2.54-.07a1.74,1.74,0,0,0-.6.4c-.32.27-.84-.22-1.27-.08s-.78.55-.43.91a3.12,3.12,0,0,0,1.41.78c1.54.39,3.14,0,4.59.65a1.69,1.69,0,0,1,1.09.92c-.15,0-.3.17-.43.07a2,2,0,0,0-1.09-.28,33.08,33.08,0,0,0-7.29-.06c0,.62.25,1.27.81,1.35.75.1,1.57-.13,2.29-.08a6.49,6.49,0,0,1,2.43,1,.53.53,0,0,0,.43,0c.35-.15.66-.67,1.06-.48a2.94,2.94,0,0,0,.76.26c.55.1,1,0,1.48.07,1.12.17,2.08.92,3.2.76a1.71,1.71,0,0,1,1.63.53c-.24-.21,1.53,1.05,1.69.74C157.18,42.79,159,42.7,159,42.42Z"/><path class="cls-1" d="M165.43,41.88c-.71-.46-.8-1.35-1.18-2a2.94,2.94,0,0,0-1.15-1.16c-2.1-1.08-4.53-3-6.09-2.82a.52.52,0,0,0-.41.84c.54.52,1.49.7,1.57,1.55,2.09,1,5.74,1.74,5.57,4C163.73,42.52,165.08,41.83,165.43,41.88Z"/><path class="cls-2" d="M17.74,169c.06.25.47.1.25.36a5.59,5.59,0,0,0,1.59-.05c.25-.07.42-.46.47-.68.15-.75.51-1.69-.16-2.22s-.49-1.23-.9-1.6a8.17,8.17,0,0,1-.88-.56c-.21-.21-.58.26-.58.47,0,.59.39,1.17.39,1.8C17.9,167.51,17.46,167.78,17.74,169Z"/><path class="cls-2" d="M11.32,160.83c-.06-1-.4-2.48,1.14-2.08.48.13.59.85.6,1.19a5.76,5.76,0,0,0,.64,2.5c.23.46-.16.86-.39,1.2-.6.88-1.82,1.38-2.52.5-.42-.53-.94-1.31-.56-2a5.43,5.43,0,0,1,1-1.37"/><path class="cls-2" d="M12.86,171.44a2,2,0,0,1,.52-2.93,1,1,0,0,1,1.49.37c.34,1.06.75,2,1.08,3a1.48,1.48,0,0,1-2,1.66C13.25,173.21,13.3,172.07,12.86,171.44Z"/><path class="cls-2" d="M13.69,175.66c-.39-.12-.43.21-.62.38-.4.34-.4,1.07-.75,1.54a3.41,3.41,0,0,0-.2,3,2.1,2.1,0,0,0,1.76,1.35c1.15-.1,2-2.24,1.13-2.76-1.15-.67-.74-2.39-1.17-3.32,0-.07-.31,0-.48,0"/><path class="cls-2" d="M21,173.46a.83.83,0,0,1,0-1.17,1,1,0,0,1,1.17.15c.09.08.42.29.51.36a2.41,2.41,0,0,1,1,2.95.79.79,0,0,1-1.11.34c-.31-.24-.74-.25-1-.65C21.37,174.81,21.51,174.08,21,173.46Z"/><path class="cls-2" d="M10.51,166.26c-.18-.57-.66-.29-.92.13a6.38,6.38,0,0,0-1,3.35c.18.8,1.32.95,1.88.6,1.27-.8.36-3.87.3-3.44A.91.91,0,0,0,10.51,166.26Z"/><path class="cls-2" d="M35.28,175.07a.47.47,0,0,0-.72.32c-.09.92-.11,2.65,1.28,2.37a.93.93,0,0,0,.7-1.12A2.78,2.78,0,0,0,35.28,175.07Z"/><path class="cls-2" d="M38.6,178.33a1,1,0,0,0-1.18-.1,1.83,1.83,0,0,0-.52,1.85,4.55,4.55,0,0,0,.94,1.95c.32.34,1,.73,1.18.49a2.83,2.83,0,0,0,.62-2.23A4,4,0,0,0,38.6,178.33Z"/><path class="cls-2" d="M51.33,177.26c-.25,0-.56.06-.66.21a1.46,1.46,0,0,0,.7,2c.7.35,1.57-.82,1.06-1.47a1.87,1.87,0,0,0-1.45-.76"/><path class="cls-2" d="M45.22,185.45a1.58,1.58,0,0,1-.46-1.51,1.07,1.07,0,0,1,1.22-.61,2.05,2.05,0,0,1,1.22.9c.81,1,1,2.69,0,3.57a1.05,1.05,0,0,1-1.51-.23c-.38-.64-.1-1.16-.4-1.85C45.34,185.72,45.16,185.45,45.22,185.45Z"/><path class="cls-2" d="M52.62,186c-.72-.57-.42-1.71-1.22-2.22a1.22,1.22,0,0,0-1.46,0c-.43.37-.43.92-.54,1.48a1.43,1.43,0,0,0,.27.87c.59,1.2,2,1.24,3.12,1.91.15.09.44-.22.54-.41C53.68,187.05,53.12,186.42,52.62,186Z"/><path class="cls-2" d="M40.84,184.9a1.06,1.06,0,0,0-1.41,0,.7.7,0,0,0-.26.5c0,1.16-.39,2.35,0,3.45.25.66.84,1.46,1.61,1.12a1.31,1.31,0,0,0,.7-1.54C41.16,187.22,41.66,185.9,40.84,184.9Z"/><path class="cls-2" d="M45.59,171c-.2-.55-.73-1-.44-1.51.08-.15.38-.11.59-.17a1.83,1.83,0,0,1,1.8.38,7.82,7.82,0,0,1,.83,1.21,8.24,8.24,0,0,1,.54,1.5,1.21,1.21,0,0,1-.46,1.43c-.5.3-.71.57-1.45.24-.28-.12-.45-.72-.58-.95s-.16-1.18-.39-1.46A1.87,1.87,0,0,1,45.59,171Z"/><path class="cls-2" d="M45.11,174a1,1,0,0,0-.72-.21c-.11,0-.42,0-.41.22.07,1.08-1.18,1.58-1.56,2.44s.4,1.71,1,2.31,1.33.15,2,0c1-.31,1.16-1.76.93-2.73A4.31,4.31,0,0,0,45.11,174Z"/></g></svg>